<svg width="122" height="87" viewBox="0 0 122 87" fill="none" xmlns="http://www.w3.org/2000/svg">
<path d="M80.695 85.594C82.1297 85.594 83.5248 85.53 84.8804 85.402C94.0325 84.558 101.269 80.9499 106.081 75.9125C108.626 73.287 110.551 70.1247 111.714 66.6577C112.809 63.3755 113.129 59.884 112.647 56.4575C109.322 32.8385 81.3937 44.324 93.1018 29.9585C104.81 15.5929 81.8897 -2.67801 73.0949 1.64605C64.3001 5.97012 73.9989 15.2183 52.2652 10.8462C30.5316 6.47413 35.029 25.6837 35.029 25.6837" stroke="#CCDDE2" stroke-miterlimit="10"/>
<path d="M22.1808 65.2095C22.1808 65.2095 12.2273 58.0721 8.38457 65.9655C8.38457 65.9655 12.426 51.6427 26.2102 46.5199C26.2102 46.5199 30.1502 44.3279 30.3236 45.6519C30.4969 46.9759 31.6396 47.6519 32.1396 47.6359C32.6396 47.6199 36.861 47.8839 37.0077 47.2533C37.1543 46.6226 36.8743 44.7332 38.9677 44.7199C41.0611 44.7066 52.4199 47.4973 55.6679 50.4466C55.6679 50.4466 50.0145 57.2721 53.0372 64.7975L50.4905 64.1802C50.4905 64.1802 52.0612 77.7804 49.9199 85.6912H12.9326C12.9326 85.6912 16.63 86.1565 20.4221 83.4511L25.9288 76.3844C25.9288 76.3844 28.3435 72.7256 33.2769 72.203C33.2769 72.203 36.085 71.8963 36.0583 70.5616C36.0316 69.2269 37.0703 71.4163 38.4584 69.4869C38.6277 69.4869 42.0011 69.6816 42.0011 69.6816C42.0011 69.6816 44.5344 69.9189 45.0105 67.6576C45.4865 65.3962 47.2411 49.524 46.6105 48.5706C45.9798 47.6173 45.7385 47.6053 40.4157 47.6373C35.093 47.6693 30.4156 46.6079 29.7382 49.256C29.0609 51.904 28.2782 61.9375 28.2782 61.9375C28.2782 61.9375 25.2782 62.7228 22.9928 65.9722C23.0008 65.9709 22.1808 67.5549 22.1808 65.2095Z" fill="#00FFF0"/>
<path d="M22.1808 60.3893V66.6374" stroke="black" stroke-miterlimit="10"/>
<path d="M50.3199 63.5136C56.1933 66.6337 72.4255 73.0085 73.0015 48.4894C73.0015 48.4894 72.3029 42.0507 74.1242 41.2106C75.9456 40.3706 78.883 37.7106 75.1002 31.2705L77.5683 28.8078C77.9018 28.4646 78.0852 28.003 78.0784 27.5244C78.0715 27.046 77.8748 26.5899 77.5316 26.2564C77.1884 25.9229 76.7268 25.7395 76.2484 25.7463C75.7699 25.7532 75.3137 25.9499 74.9802 26.2931L70.0748 31.4932C70.0748 31.4932 69.3642 30.1598 68.1041 30.8545C66.8441 31.5492 62.2227 34.4972 64.3214 40.6533L58.8627 56.3335" stroke="black" stroke-miterlimit="10"/>
<path d="M70.0682 31.49C70.0682 31.49 71.3762 33.4807 68.5921 35.5154" stroke="black" stroke-miterlimit="10"/>
<path d="M75.9056 32.817C75.9056 32.817 76.7203 35.3757 73.4336 37.0264C72.2709 37.6104 70.9949 36.3811 71.5442 35.2011C71.5535 35.1837 71.5615 35.165 71.5709 35.1464" stroke="black" stroke-miterlimit="10"/>
<path d="M76.9002 35.9769C76.9002 35.9769 76.1816 38.4756 74.2149 38.5956C72.4748 38.701 72.7669 36.9263 72.7669 36.9263" stroke="black" stroke-miterlimit="10"/>
<path d="M43.2544 34.4119C43.1211 34.4466 43.0371 34.3359 42.9131 34.3572C41.1304 34.0319 39.805 32.6239 39.6557 31.9465C39.7064 32.3159 40.3837 32.2785 40.269 32.6559C40.2477 32.7279 40.205 32.6999 40.1704 32.7692C40.1144 32.9025 40.1157 32.7199 40.037 32.8399C39.5997 32.1932 39.3464 31.8719 39.269 31.5158C39.3216 31.898 39.2906 32.2869 39.1784 32.6559C39.1578 32.728 39.1306 32.7981 39.097 32.8652C38.8304 33.4945 38.2743 34.0266 37.345 34.1586C37.1121 34.188 36.8767 34.1956 36.6423 34.1812C35.9757 34.1426 35.3996 34.1039 34.909 34.0826C33.2689 34.0092 32.6809 34.1332 32.8649 35.1919C32.9664 35.6707 33.1101 36.1398 33.2943 36.5933C33.6196 37.4493 33.8463 38.932 33.5129 40.5467V40.556C33.1263 42.436 31.9023 43.8894 29.2795 45.2547C28.8149 45.4946 28.3358 45.7051 27.8449 45.8854C23.2941 47.5734 12.4086 51.8495 7.89656 67.5297C7.41658 69.2004 7.05791 70.7204 6.80457 72.1085L6.68057 72.0365C3.59919 70.1898 1.58983 66.047 2.2005 62.483C2.50451 60.7136 3.65652 59.4789 5.13388 58.5496C6.17123 57.9069 7.28058 57.3802 8.2099 56.5869C11.2899 53.9562 8.82724 49.8655 10.5326 46.7201C12.4553 43.1814 15.466 41 19.3967 40.82C20.3861 40.8627 21.4994 40.9787 22.5794 40.9267C24.1475 40.9827 25.7502 40.8547 26.8982 39.8266C27.8022 39.0266 27.9902 37.7226 28.3329 36.6346C28.7187 35.4076 29.0405 34.1615 29.2969 32.9012C29.5314 31.7063 29.9689 30.5604 30.5902 29.5132C31.261 28.3783 32.2071 27.4309 33.3409 26.7584C34.33 26.2002 35.4328 25.8732 36.5663 25.8024C37.5986 25.8632 38.6028 26.1627 39.4997 26.6771C39.806 26.8582 40.0956 27.0661 40.3651 27.2985C42.3504 28.9918 43.3011 31.8585 43.2544 34.4119Z" fill="#3D2FE8"/>
<path d="M73.3775 38.4463C73.3775 38.4463 72.7415 39.2356 73.0895 39.985C73.4375 40.7343 74.3016 40.909 75.1416 40.581" stroke="black" stroke-miterlimit="10"/>
<path d="M75.0976 31.2702L73.3402 33.0262" stroke="black" stroke-miterlimit="10"/>
<path d="M28.2849 61.7655L29.7156 49.432C29.7734 48.9329 30.0128 48.4727 30.3878 48.1385C30.763 47.8044 31.2478 47.6199 31.7503 47.62H44.8891C45.1766 47.6199 45.4609 47.6803 45.7235 47.7972C45.9861 47.9141 46.2211 48.0851 46.4133 48.2989C46.6055 48.5128 46.7505 48.7647 46.8389 49.0381C46.9273 49.3118 46.9571 49.6008 46.9265 49.8867L45.0118 67.659C44.9575 68.1614 44.7195 68.6262 44.3434 68.9638C43.9674 69.3015 43.4798 69.4883 42.9744 69.4883H38.273" stroke="black" stroke-miterlimit="10"/>
<path d="M43.8144 50.7612C44.1104 50.7612 44.3504 50.5214 44.3504 50.2252C44.3504 49.9292 44.1104 49.6892 43.8144 49.6892C43.5184 49.6892 43.2784 49.9292 43.2784 50.2252C43.2784 50.5214 43.5184 50.7612 43.8144 50.7612Z" fill="black"/>
<path d="M34.9663 64.627C36.353 64.939 36.6303 64.9443 37.9757 65.1443C38.8237 65.271 40.7624 65.3763 40.7971 64.0603C40.8291 62.9043 39.5317 62.2256 38.6157 61.8563C37.5585 61.4541 36.4522 61.1955 35.3263 61.0869C34.8623 61.0336 34.396 60.9971 33.9276 60.9776C30.6809 60.8443 26.9355 61.6296 24.6995 64.1696C19.5194 70.0471 12.6313 73.8258 12.6313 73.8258" stroke="black" stroke-miterlimit="10"/>
<path d="M38.6797 65.2092C39.3464 65.4919 40.4757 66.0946 40.013 67.2493C39.8024 67.7826 39.4197 67.9719 38.8944 68.0493C37.7597 68.2133 36.5423 67.9719 35.4276 67.7386C35.0156 67.6519 34.285 67.4933 33.8783 67.3813" stroke="black" stroke-miterlimit="10"/>
<path d="M37.4943 68.0759C37.4943 68.0759 38.7063 68.0613 38.4143 69.188C37.933 71.0547 34.1929 70.2093 32.4436 69.8173" stroke="black" stroke-miterlimit="10"/>
<path d="M37.569 44.8209C43.2678 45.0703 51.9519 46.741 59.8267 53.5531" stroke="black" stroke-miterlimit="10"/>
<path d="M80.695 85.595L12.9326 85.6963" stroke="black" stroke-miterlimit="10"/>
<path d="M50.3199 60.9639C50.3199 60.9639 51.6532 73.3734 50.3199 85.5949" stroke="black" stroke-miterlimit="10"/>
<path opacity="0.54" d="M109.163 55.2959L120.882 25.2675C121.028 24.6864 121.039 24.08 120.914 23.4941C120.79 22.9082 120.534 22.3584 120.166 21.8862C119.797 21.4142 119.326 21.0322 118.788 20.7695C118.249 20.5067 117.658 20.3702 117.06 20.3701H70.5055C69.4603 20.3699 68.4453 20.7217 67.6244 21.3687C66.8034 22.0157 66.2242 22.9204 65.9801 23.9368L53.1479 53.9586C53.0086 54.5379 53.0026 55.1414 53.13 55.7235C53.2576 56.3057 53.5156 56.8513 53.8845 57.3194C54.2533 57.7874 54.7235 58.1658 55.2597 58.426C55.7958 58.6861 56.3841 58.8213 56.98 58.8213H104.647C105.686 58.8213 106.694 58.4745 107.512 57.8357C108.33 57.1969 108.912 56.303 109.163 55.2959Z" fill="white"/>
<path d="M109.163 55.2959L120.882 25.2675C121.028 24.6864 121.039 24.08 120.914 23.4941C120.79 22.9082 120.534 22.3584 120.166 21.8862C119.797 21.4142 119.326 21.0322 118.788 20.7695C118.249 20.5067 117.658 20.3702 117.06 20.3701H70.5055C69.4603 20.3699 68.4453 20.7217 67.6244 21.3687C66.8034 22.0157 66.2242 22.9204 65.9801 23.9368L53.1479 53.9586C53.0086 54.5379 53.0026 55.1414 53.13 55.7235C53.2576 56.3057 53.5156 56.8513 53.8845 57.3194C54.2533 57.7874 54.7235 58.1658 55.2597 58.426C55.7958 58.6861 56.3841 58.8213 56.98 58.8213H104.647C105.686 58.8213 106.694 58.4745 107.512 57.8357C108.33 57.1969 108.912 56.303 109.163 55.2959Z" fill="#3D2FE8"/>
<path d="M109.163 55.2959L120.882 25.2675C121.028 24.6864 121.039 24.08 120.914 23.4941C120.79 22.9082 120.534 22.3584 120.166 21.8862C119.797 21.4142 119.326 21.0322 118.788 20.7695C118.249 20.5067 117.658 20.3702 117.06 20.3701H70.5055C69.4603 20.3699 68.4453 20.7217 67.6244 21.3687C66.8034 22.0157 66.2242 22.9204 65.9801 23.9368L53.1479 53.9586C53.0086 54.5379 53.0026 55.1414 53.13 55.7235C53.2576 56.3057 53.5156 56.8513 53.8845 57.3194C54.2533 57.7874 54.7235 58.1658 55.2597 58.426C55.7958 58.6861 56.3841 58.8213 56.98 58.8213H104.647C105.686 58.8213 106.694 58.4745 107.512 57.8357C108.33 57.1969 108.912 56.303 109.163 55.2959Z" stroke="black" stroke-linecap="square" stroke-linejoin="round"/>
<path d="M107.449 54.0802L118.261 26.3771C118.395 25.8412 118.405 25.2819 118.29 24.7416C118.176 24.2012 117.94 23.6941 117.6 23.2586C117.26 22.8233 116.825 22.4709 116.329 22.2285C115.833 21.9861 115.288 21.8599 114.736 21.8597H71.7842C70.8198 21.8594 69.8835 22.184 69.126 22.7809C68.3687 23.378 67.8344 24.2125 67.6095 25.1504L55.7706 52.8468C55.6422 53.3814 55.6366 53.938 55.7545 54.4751C55.8722 55.012 56.1102 55.5154 56.4506 55.9471C56.791 56.3789 57.2249 56.7279 57.7196 56.9678C58.2142 57.2077 58.7569 57.3322 59.3067 57.3322H103.283C104.241 57.3317 105.171 57.0115 105.925 56.4223C106.68 55.8331 107.216 55.0089 107.449 54.0802Z" fill="#3D2FE8"/>
<path d="M74.8829 26.9529C75.4523 26.0982 76.3843 25.7182 76.9643 26.1035C77.5443 26.4889 77.5523 27.4955 76.9829 28.3502C76.8945 28.4816 76.7947 28.6048 76.6843 28.7182L80.9043 37.6277C81.571 37.1784 82.3177 37.0677 82.8484 37.421C83.191 37.649 83.3817 38.037 83.4417 38.4877L86.3244 37.5144L88.8458 36.6717C89.1125 36.5797 89.3938 36.4917 89.6685 36.405C89.7721 36.0954 89.9159 35.8009 90.0965 35.529C90.8965 34.329 92.2045 33.7956 93.0179 34.329C93.8312 34.8623 93.8419 36.2583 93.0645 37.4517L97.8646 44.0158C98.9113 43.1571 100.145 42.8918 100.999 43.4598C102.162 44.2331 102.179 46.2518 101.038 47.9678C100.993 48.0358 100.941 48.0919 100.893 48.1572L104.093 52.5293C104.102 52.5426 104.114 52.5586 104.122 52.5719C104.203 52.6939 104.259 52.8307 104.287 52.9745C104.315 53.1181 104.314 53.2659 104.285 53.4094C104.256 53.553 104.199 53.6893 104.117 53.8107C104.036 53.9322 103.931 54.0363 103.809 54.1173C103.687 54.1981 103.55 54.2542 103.406 54.2822C103.262 54.3102 103.115 54.3097 102.971 54.2806C102.828 54.2515 102.691 54.1945 102.57 54.1126C102.448 54.0309 102.344 53.9259 102.263 53.8039L99.422 49.5172C98.5233 50.0386 97.5686 50.1385 96.8686 49.6719C95.7566 48.9332 95.7032 47.0612 96.6939 45.4051L92.0925 38.4624C91.4138 38.9237 90.6645 39.041 90.1271 38.685C89.827 38.4733 89.6225 38.1518 89.5578 37.7904C89.4431 37.821 89.3298 37.8544 89.2151 37.8864L86.6511 38.5864L83.3697 39.4704C83.2692 39.8637 83.1033 40.2373 82.879 40.5757C82.079 41.7758 80.7723 42.3091 79.9577 41.7691C79.143 41.2291 79.131 39.8144 79.9297 38.613C80.0487 38.4388 80.1826 38.275 80.3297 38.1237L76.3123 29.0396C75.8283 29.3689 75.2936 29.4542 74.9109 29.1996C74.3229 28.8156 74.3136 27.8089 74.8829 26.9529Z" fill="white"/>
<path d="M105.443 27.4447H111.669C111.954 27.4447 112.232 27.3616 112.471 27.2059C112.709 27.05 112.897 26.8282 113.011 26.5673C113.048 26.4873 113.068 26.4007 113.069 26.3127C113.067 26.1427 112.999 25.9801 112.878 25.8603C112.758 25.7404 112.595 25.6731 112.425 25.6727H105.802C106.118 26.1993 105.961 26.9274 105.443 27.4447Z" fill="#D7E8F0"/>
<path d="M101.418 26.806C101.418 26.9756 101.486 27.138 101.606 27.2578C101.726 27.3775 101.889 27.4447 102.058 27.4447H105.443C105.961 26.9274 106.118 26.1993 105.807 25.6727H102.818C102.533 25.6725 102.255 25.7552 102.017 25.9104C101.778 26.0657 101.59 26.2871 101.475 26.5473C101.439 26.6289 101.42 26.7168 101.418 26.806Z" fill="#3D2FE8"/>
<path d="M102.975 27.4447C102.993 27.479 103.013 27.5115 103.037 27.542C103.481 28.1487 104.443 28.2087 105.193 27.6594C105.281 27.594 105.365 27.5223 105.443 27.4447C105.961 26.9274 106.118 26.1994 105.807 25.6727C105.79 25.6389 105.769 25.6068 105.746 25.5767C105.306 24.966 104.343 24.91 103.594 25.4553C103.504 25.5217 103.419 25.5944 103.339 25.6727C102.826 26.1914 102.669 26.9154 102.975 27.4447Z" fill="white"/>
<path d="M99.8526 30.7131C99.8539 30.883 99.9225 31.0454 100.043 31.165C100.164 31.2846 100.327 31.3518 100.497 31.3518H107.03C106.714 30.8185 106.871 30.0985 107.39 29.5811H101.257C100.972 29.5811 100.693 29.6642 100.455 29.8199C100.216 29.9758 100.028 30.1977 99.9139 30.4585C99.8766 30.5383 99.8558 30.625 99.8526 30.7131Z" fill="#3D2FE8"/>
<path d="M107.029 31.3518H110.095C110.38 31.3521 110.658 31.2697 110.897 31.1146C111.135 30.9595 111.323 30.7385 111.438 30.4785C111.475 30.3971 111.495 30.309 111.495 30.2198C111.496 30.1358 111.479 30.0527 111.447 29.9751C111.415 29.8975 111.368 29.8271 111.309 29.7678C111.249 29.7084 111.179 29.6614 111.101 29.6294C111.024 29.5973 110.941 29.5809 110.857 29.5811H107.389C106.869 30.0985 106.713 30.8225 107.029 31.3518Z" fill="#D7E8F0"/>
<path d="M107.029 31.3517C107.042 31.3866 107.061 31.4194 107.085 31.449C107.526 32.0597 108.489 32.1157 109.237 31.5704C109.327 31.5045 109.413 31.4314 109.491 31.3517C110.005 30.8344 110.158 30.1103 109.855 29.581C109.838 29.5467 109.818 29.5142 109.795 29.4837C109.35 28.877 108.387 28.817 107.639 29.3663C107.55 29.431 107.466 29.5027 107.389 29.581C106.869 30.0983 106.713 30.8224 107.029 31.3517Z" fill="white"/>
<path d="M104.853 35.2319H108.763C109.048 35.232 109.326 35.1493 109.565 34.994C109.803 34.8388 109.991 34.6175 110.106 34.3572C110.143 34.2772 110.162 34.1904 110.163 34.1025C110.163 33.932 110.095 33.7688 109.974 33.6484C109.853 33.528 109.69 33.4601 109.519 33.4598H105.217C105.523 33.9892 105.366 34.7132 104.853 35.2319Z" fill="#3D2FE8"/>
<path d="M98.5139 34.5959C98.5146 34.7649 98.5823 34.9269 98.7023 35.0461C98.8223 35.1655 98.9848 35.2321 99.154 35.2319H104.853C105.366 34.7132 105.519 33.9892 105.217 33.4598H99.914C99.6292 33.4598 99.3505 33.5429 99.1121 33.6986C98.8735 33.8545 98.6857 34.0763 98.5713 34.3372C98.5347 34.4185 98.5151 34.5065 98.5139 34.5959Z" fill="#D7E8F0"/>
<path d="M102.385 35.2316C102.402 35.2653 102.423 35.2975 102.446 35.3276C102.886 35.9383 103.849 35.9943 104.598 35.4489C104.688 35.3825 104.773 35.3099 104.853 35.2316C105.366 34.7129 105.519 33.9889 105.217 33.4596C105.199 33.4253 105.179 33.3928 105.155 33.3622C104.711 32.7556 103.749 32.7036 102.999 33.2449C102.911 33.3102 102.827 33.382 102.749 33.4596C102.231 33.9769 102.069 34.7049 102.385 35.2316Z" fill="white"/>
<path d="M79.5696 53.5316H83.4804C83.7649 53.5319 84.0433 53.4492 84.2817 53.2939C84.5201 53.1386 84.7081 52.9174 84.823 52.657C84.8677 52.5596 84.8869 52.4526 84.8789 52.3458C84.8711 52.239 84.8361 52.136 84.7775 52.0463C84.7189 51.9567 84.6385 51.8834 84.5438 51.8332C84.4492 51.7831 84.3434 51.7578 84.2364 51.7596H79.935C80.2403 52.289 80.083 53.013 79.5696 53.5316Z" fill="#3D2FE8"/>
<path d="M64.0441 52.8962C64.0442 52.9798 64.0609 53.0627 64.0931 53.1399C64.1253 53.2172 64.1723 53.2874 64.2317 53.3464C64.291 53.4055 64.3613 53.4523 64.4388 53.4842C64.5161 53.516 64.599 53.5323 64.6828 53.5322H79.5696C80.083 53.0135 80.2363 52.2895 79.9337 51.7601H65.4441C65.1593 51.7601 64.8806 51.8432 64.6422 51.9989C64.4037 52.1548 64.2158 52.3765 64.1014 52.6375C64.0647 52.7188 64.0453 52.8068 64.0441 52.8962Z" fill="#D7E8F0"/>
<path d="M77.1016 53.5319C77.1192 53.5656 77.1398 53.5978 77.163 53.6279C77.603 54.2399 78.5656 54.2946 79.315 53.7492C79.4048 53.6828 79.4899 53.6102 79.5697 53.5319C80.083 53.0132 80.2363 52.2892 79.9337 51.7599C79.9162 51.7256 79.8957 51.6931 79.8723 51.6625C79.427 51.0559 78.4643 51.0039 77.7163 51.5452C77.6276 51.6105 77.5439 51.6823 77.4656 51.7599C76.9483 52.2772 76.7909 53.0052 77.1016 53.5319Z" fill="white"/>
<path d="M7.02718 72.7375C6.53064 72.5416 6.05046 72.3067 5.59116 72.0348C2.50712 70.1881 0.497752 66.0467 1.10976 62.4813C1.4151 60.712 2.56712 59.4786 4.0498 58.5479C5.08582 57.9053 6.2005 57.3799 7.12585 56.5866C10.2059 53.9559 7.74189 49.8638 9.44725 46.7198C11.5206 42.9064 14.854 40.6703 19.2461 40.8157C21.3541 40.885 24.0915 41.369 25.8128 39.8263C26.7168 39.0263 26.9062 37.7223 27.2488 36.6343C27.6351 35.4073 27.9573 34.1612 28.2142 32.9009C28.445 31.7061 28.8798 30.5601 29.4995 29.5128C30.1702 28.3768 31.1162 27.4281 32.2503 26.7541C34.3836 25.5235 37.3583 25.4101 39.5024 26.6755C39.8076 26.8569 40.0966 27.0644 40.3664 27.2955C42.3504 28.9968 43.2998 31.8622 43.2544 34.4169" stroke="black" stroke-miterlimit="10"/>
<path d="M39.225 31.29C39.3357 32.042 39.793 32.7353 40.605 32.9433C41.5224 33.1767 42.0091 34.07 42.2677 34.9674C42.6353 36.2839 42.5412 37.6865 42.0011 38.9421C41.4997 40.1234 40.6064 41.4755 39.0957 41.6875C36.3316 42.0875 34.9556 40.9168 34.9556 40.9168" stroke="black" stroke-miterlimit="10"/>
<path d="M36.9223 35.3076C37.1845 35.3076 37.397 35.0951 37.397 34.8329C37.397 34.5708 37.1845 34.3583 36.9223 34.3583C36.6602 34.3583 36.4477 34.5708 36.4477 34.8329C36.4477 35.0951 36.6602 35.3076 36.9223 35.3076Z" fill="black"/>
<path d="M41.097 34.9929C41.3592 34.9929 41.5717 34.7805 41.5717 34.5183C41.5717 34.2561 41.3592 34.0436 41.097 34.0436C40.8349 34.0436 40.6224 34.2561 40.6224 34.5183C40.6224 34.7805 40.8349 34.9929 41.097 34.9929Z" fill="black"/>
<path d="M35.821 70.3466C36.5116 70.7706 35.9543 71.4692 35.453 71.7053C34.5916 72.1053 33.4783 72.1759 32.5396 72.2879C25.4022 73.1279 23.0194 82.9254 18.5394 84.7468C14.0593 86.5681 2.03644 87.8988 7.90055 67.5279C12.4153 51.8503 23.3008 47.5742 27.8515 45.8862C28.3414 45.7062 28.8195 45.4959 29.2835 45.2569C31.9062 43.8942 33.1343 42.4355 33.5196 40.5541C33.5196 40.5541 33.5196 40.5541 33.5196 40.5461C33.8529 38.9314 33.6289 37.4487 33.3023 36.5914C33.1149 36.1386 32.9695 35.6695 32.8676 35.19C32.6249 33.826 33.6783 34.018 36.6357 34.1807C37.993 34.2607 38.761 33.6473 39.0917 32.866C39.1241 32.7983 39.1505 32.7277 39.1704 32.6553C39.3094 32.2129 39.3261 31.7411 39.2184 31.29" stroke="black" stroke-miterlimit="10"/>
<path d="M38.9677 34.9479C38.9677 34.9479 39.4664 36.7706 39.4157 37.0399C39.365 37.3092 38.7263 37.1012 38.7263 37.1012" stroke="black" stroke-miterlimit="10"/>
<path d="M38.6237 38.7703C37.6677 39.285 36.5623 38.961 36.1303 38.1036" stroke="black" stroke-miterlimit="10"/>
<path d="M37.6846 36.7725C38.575 35.9318 38.6318 34.5458 37.8114 33.6767C36.991 32.8076 35.604 32.7846 34.7135 33.6252C33.8231 34.4659 33.7663 35.852 34.5867 36.721C35.4071 37.5901 36.7941 37.6132 37.6846 36.7725Z" stroke="black" stroke-miterlimit="10"/>
<path d="M43.222 36.2672C44.1126 35.4266 44.1694 34.0406 43.349 33.1715C42.5285 32.3024 41.1416 32.2793 40.251 33.12C39.3605 33.9607 39.3037 35.3467 40.1241 36.2158C40.9445 37.0849 42.3316 37.1079 43.222 36.2672Z" stroke="black" stroke-miterlimit="10"/>
<path d="M41.7824 33.1729C42.1571 33.1705 42.5185 33.3115 42.7926 33.5671C43.0666 33.8227 43.2323 34.1736 43.2558 34.5476C43.2796 34.9549 43.1446 35.3554 42.879 35.6652C42.6134 35.9748 42.2379 36.1693 41.8317 36.2076C41.7851 36.2076 41.7371 36.2076 41.6904 36.2076C41.3179 36.2103 40.9583 36.071 40.6845 35.8182C40.4109 35.5653 40.2438 35.2178 40.217 34.8462C40.1913 34.4378 40.3256 34.0356 40.5915 33.7245C40.8572 33.4133 41.2337 33.2179 41.6411 33.1795C41.6877 33.1795 41.7357 33.1795 41.7824 33.1795V33.1729ZM41.7824 32.8582C41.7264 32.8582 41.6691 32.8582 41.6117 32.8662C41.1224 32.9127 40.6703 33.147 40.3502 33.5201C40.0302 33.893 39.8673 34.3756 39.8957 34.8662C39.9256 35.3212 40.1278 35.7477 40.4613 36.0587C40.7949 36.3696 41.2344 36.5416 41.6904 36.5396C41.7464 36.5396 41.8037 36.5396 41.8611 36.5316C42.3505 36.4859 42.803 36.2516 43.1228 35.8784C43.4428 35.5052 43.6052 35.0222 43.5758 34.5316C43.5491 34.0746 43.3484 33.6451 43.0148 33.3317C42.6812 33.0182 42.2401 32.8445 41.7824 32.8462V32.8582Z" fill="white"/>
<path d="M38.3864 35.0008L39.549 34.8942" stroke="black" stroke-miterlimit="10"/>
<path d="M36.2463 33.6357C36.6323 33.632 37.0051 33.7767 37.2875 34.04C37.5699 34.3032 37.7405 34.665 37.7637 35.0504C37.7886 35.47 37.6497 35.883 37.3761 36.2022C37.1025 36.5214 36.7155 36.7218 36.297 36.7611C36.249 36.7611 36.1997 36.7611 36.1517 36.7611C35.7653 36.7646 35.3923 36.6197 35.1098 36.3561C34.8272 36.0926 34.6566 35.7307 34.633 35.3451C34.6083 34.9256 34.7474 34.5131 35.021 34.1942C35.2946 33.8753 35.6814 33.6751 36.0997 33.6357C36.1483 33.6308 36.1974 33.6287 36.2463 33.6291V33.6357ZM36.2463 33.3077C36.1877 33.3077 36.129 33.3104 36.0703 33.3157C35.566 33.3625 35.1 33.6047 34.7718 33.9903C34.4434 34.3759 34.2788 34.8744 34.313 35.3798C34.3435 35.8459 34.5507 36.283 34.8924 36.6015C35.234 36.9202 35.6844 37.0965 36.1517 37.0945C36.209 37.0945 36.2677 37.0945 36.3263 37.0865C36.8282 37.0393 37.2922 36.7989 37.6201 36.4159C37.9481 36.033 38.1142 35.5376 38.0837 35.0344C38.0534 34.5683 37.8465 34.1313 37.505 33.8127C37.1635 33.494 36.7134 33.3177 36.2463 33.3197V33.3077Z" fill="white"/>
<path d="M43.0116 36.0439C43.7751 35.3231 43.8234 34.134 43.1192 33.3881C42.4151 32.6421 41.2252 32.6219 40.4616 33.3427C39.698 34.0635 39.6498 35.2526 40.354 35.9984C41.0581 36.7444 42.248 36.7647 43.0116 36.0439Z" fill="#3D2FE8"/>
<path d="M37.8743 36.6274C38.6446 35.8993 38.6929 34.6994 37.9821 33.9474C37.2711 33.1952 36.0704 33.1759 35.3002 33.9041C34.5298 34.6321 34.4816 35.8321 35.1924 36.5841C35.9032 37.3361 37.1039 37.3556 37.8743 36.6274Z" fill="#3D2FE8"/>
<path d="M31.4982 47.6356C30.9116 47.0236 30.4022 46.1236 30.0676 44.8209" stroke="black" stroke-miterlimit="10"/>
<path d="M36.9223 47.6199L37.569 44.8212L38.2717 41.8052" stroke="black" stroke-miterlimit="10"/>
<path d="M39.5657 58.7636C39.8142 57.5441 39.1418 56.3774 38.0638 56.1576C36.9858 55.9379 35.9104 56.7485 35.6619 57.9678C35.4134 59.1873 36.0858 60.354 37.1638 60.5736C38.2418 60.7933 39.3172 59.9829 39.5657 58.7636Z" fill="#D7E8F0"/>
<path d="M80.811 78.6042L79.7176 84.7137C79.687 84.8851 79.597 85.0405 79.4634 85.1523C79.3299 85.2642 79.1612 85.3256 78.987 85.3257H73.2682C73.0922 85.3258 72.9218 85.2634 72.7874 85.1495C72.6531 85.0358 72.5637 84.8779 72.5349 84.7043L71.5349 78.6042H80.811Z" stroke="#CCDDE2" stroke-miterlimit="10"/>
<path d="M81.851 77.9214C81.8357 78.1072 81.751 78.2804 81.6139 78.4068C81.477 78.5334 81.2974 78.6036 81.111 78.604H71.2442C71.0602 78.604 70.8828 78.5359 70.7462 78.4128C70.6095 78.2896 70.5232 78.1203 70.5042 77.9374C70.4943 77.8343 70.5062 77.7303 70.5388 77.632C70.5715 77.5338 70.6244 77.4435 70.6942 77.367C70.7638 77.2903 70.8487 77.2291 70.9435 77.1874C71.0382 77.1455 71.1406 77.1239 71.2442 77.124H81.111C81.213 77.1242 81.3141 77.1452 81.4075 77.1862C81.5011 77.227 81.5853 77.2867 81.6547 77.3615C81.7241 77.4363 81.7774 77.5247 81.8111 77.621C81.845 77.7174 81.8585 77.8196 81.851 77.9214Z" stroke="#CCDDE2" stroke-miterlimit="10"/>
<path d="M76.4883 77.1137C76.4883 76.8004 77.2883 72.8977 76.6216 69.4376C76.2589 67.5389 75.4589 65.7749 73.8482 64.8082" stroke="#CCDDE2" stroke-miterlimit="10"/>
<path d="M76.6243 69.4429C76.6243 69.4429 76.8069 66.8135 79.079 66.6322" stroke="#CCDDE2" stroke-miterlimit="10"/>
<path d="M76.8683 73.455C77.5147 73.0022 78.2932 72.777 79.0816 72.815" stroke="#CCDDE2" stroke-miterlimit="10"/>
<path d="M76.8683 71.5868C76.8683 71.5868 75.2176 69.6321 72.5802 71.1788" stroke="#CCDDE2" stroke-miterlimit="10"/>
<path d="M75.7042 70.8C75.7042 70.8 71.9868 67.4053 71.2588 72C71.2588 72 72.3055 72.6813 73.8509 72C75.3962 71.3187 75.7042 70.8 75.7042 70.8Z" stroke="#CCDDE2" stroke-miterlimit="10"/>
<path d="M77.4416 67.4323C77.4416 67.4323 77.3083 65.9042 79.0789 65.4042C80.8496 64.9042 81.8537 66.9963 81.8537 66.9963C81.8537 66.9963 80.487 68.5069 77.4416 67.4323Z" stroke="#CCDDE2" stroke-miterlimit="10"/>
<path d="M77.8523 72.8137C77.8523 72.8137 77.7909 71.2683 79.8523 71.587C81.9137 71.9057 82.2523 73.6643 82.2523 73.6643C82.2523 73.6643 78.8763 74.9017 77.8523 72.9763" stroke="#CCDDE2" stroke-miterlimit="10"/>
<path d="M75.3683 66.2429C75.3683 66.3522 73.8189 66.1096 73.7202 66.0749C72.9696 65.8509 72.4362 65.3309 72.0855 64.6429C71.9775 64.4296 71.3522 63.2335 71.5295 63.0255C71.5349 63.0255 75.2176 61.8388 75.3683 66.2429Z" stroke="#CCDDE2" stroke-miterlimit="10"/>
<path d="M111.717 66.6572C110.554 70.1247 108.629 73.2876 106.083 75.9134C101.269 80.9508 94.0325 84.5588 84.883 85.4028V66.6572H111.717Z" stroke="#CCDDE2" stroke-miterlimit="10"/>
<path d="M106.083 75.9136C101.269 80.951 94.0325 84.559 84.883 85.403V75.9136H106.083Z" stroke="#CCDDE2" stroke-miterlimit="10"/>
<path d="M103.298 71.4701C103.298 70.7224 102.692 70.1162 101.944 70.1162C101.196 70.1162 100.59 70.7224 100.59 71.4701C100.59 72.218 101.196 72.8243 101.944 72.8243C102.692 72.8243 103.298 72.218 103.298 71.4701Z" stroke="#CCDDE2" stroke-miterlimit="10"/>
</svg>
