<svg width="122" height="121" viewBox="0 0 122 121" fill="none" xmlns="http://www.w3.org/2000/svg">
<path d="M17.9603 54.586C22.3481 48.453 28.9237 45.6732 28.9237 45.6732C29.1383 45.5838 28.2237 37.1817 28.205 36.5857C27.9277 26.7703 29.5556 16.5576 36.9339 9.46999C46.1573 0.615817 62.8923 -1.21874 73.473 6.24081C73.3397 6.14215 76.9541 3.29299 77.2594 3.11034C79.2342 1.91854 81.4625 1.21001 83.763 1.04246C93.0212 0.375832 101.511 7.6501 104.984 16.4496C108.458 25.249 107.66 45.2985 101.289 51.0808" stroke="#CCDDE2" stroke-miterlimit="10"/>
<path d="M14.0046 65.2253C14.2327 62.8099 14.8537 60.4477 15.8431 58.2324C15.9374 58.0217 16.0361 57.8155 16.1391 57.6138" stroke="#CCDDE2" stroke-miterlimit="10"/>
<path d="M25.4465 90.7488C24.3799 89.7796 23.392 88.793 22.4867 87.801" stroke="#CCDDE2" stroke-miterlimit="10"/>
<path d="M114.327 61.9229C114.335 62.5895 114.327 63.2695 114.295 63.9507C114.105 68.1652 113.203 72.5209 110.947 76.07C110.536 76.7249 110.078 77.3488 109.576 77.9366C104.776 77.3033 104.06 72.4076 98.5102 69.6397C91.8612 66.3159 80.9739 67.5065 80.9739 67.5065L86.3376 62.5588C86.0509 47.6584 75.1116 48.573 75.1116 48.573L74.5556 49.9343C74.9778 48.7014 75.4049 47.5517 75.8369 46.4851L75.8609 46.4291C80.9272 33.8459 86.1762 32.286 90.26 30.4688C91.2355 30.237 92.2345 30.118 93.2371 30.1141C103.678 30.0581 109.805 40.6908 112.485 49.2503C113.152 51.3835 114.177 55.9459 114.315 61.0763C114.317 61.3509 114.327 61.6376 114.327 61.9229Z" fill="#189DC7"/>
<path d="M120.193 117.77C119.382 118.886 118.045 119.494 116.666 119.494H100.827C100.219 119.503 99.6149 119.384 99.0549 119.146C98.4948 118.907 97.991 118.554 97.5755 118.109C97.5675 118.109 97.5755 118.109 97.5755 118.109C97.5193 118.052 97.4666 117.991 97.4182 117.928C96.9219 117.313 96.6115 116.569 96.5236 115.784C96.4436 115.062 96.9796 114.421 97.7049 114.45C97.9797 114.461 98.2414 114.571 98.4414 114.76C98.6414 114.948 98.7663 115.203 98.7928 115.477C98.7928 115.534 98.8048 115.59 98.8128 115.646C98.8715 115.972 99.0145 116.276 99.2274 116.529C99.4158 116.752 99.6524 116.929 99.9191 117.047C100.186 117.165 100.476 117.221 100.767 117.21H116.734C117.02 117.215 117.304 117.158 117.565 117.043C117.827 116.928 118.061 116.758 118.25 116.544C118.464 116.296 118.61 115.998 118.673 115.677C118.737 115.356 118.716 115.025 118.613 114.714L111.481 93.5091C111.423 93.3464 111.354 93.1877 111.275 93.0344C110.856 92.1501 110.193 91.4044 109.363 90.8859C108.533 90.3674 107.572 90.0978 106.594 90.1093C103.591 90.1453 99.7794 90.1533 99.4208 90.1533C91.4306 90.1239 87.7948 90.1239 85.7949 90.1773C85.9321 89.6858 86.1802 89.2324 86.5202 88.852C86.5202 88.852 86.5282 88.844 86.5282 88.84C87.0159 88.3202 87.6835 88.0059 88.3948 87.9614C91.3573 87.7187 94.2904 87.2761 97.1396 86.5028C102.167 85.1402 106.963 82.803 110.295 79.0446C111.917 77.2252 113.142 75.0886 113.895 72.7703C114.478 70.9295 114.846 69.0271 114.991 67.1013C115.042 66.4934 115.074 65.8809 115.087 65.2641V65.2361C115.087 65.0948 115.094 64.9494 115.094 64.8081C115.113 63.9295 115.072 63.0508 114.975 62.1776C115.845 62.1844 116.679 62.5296 117.3 63.1402C117.354 63.2838 117.394 63.4326 117.42 63.5842C117.444 63.7278 117.456 63.8731 117.456 64.0188V81.2645C117.457 82.4424 117.225 83.6089 116.772 84.6961C116.319 85.7835 115.654 86.7701 114.817 87.5987C113.431 88.972 113.036 91.0559 113.693 92.8891L120.781 113.979C120.995 114.611 121.053 115.286 120.951 115.946C120.849 116.606 120.589 117.232 120.193 117.77Z" fill="#3D2FE8"/>
<path d="M22.488 117.238V68.8901H25.4465V117.258L22.488 117.238Z" fill="#189DC7"/>
<path d="M80.9752 67.4999C83.0938 67.2745 85.5443 67.0079 87.8975 67.0612" stroke="black" stroke-miterlimit="10"/>
<path d="M69.4345 69.6355C65.6828 70.5821 62.0323 71.9487 58.9178 74.2206C53.6915 78.0283 51.3023 85.1319 53.4382 91.2862C53.4382 91.2942 61.8377 115.523 61.8377 115.523H59.6271C59.1508 115.523 58.6791 115.617 58.2392 115.8C57.7994 115.984 57.4002 116.252 57.0646 116.59C56.4073 117.243 56.0833 118.333 56.0833 119.333H75.9795L68.4186 94.6007C68.2301 93.9911 68.1877 93.3455 68.2949 92.7165C68.4021 92.0875 68.6558 91.4925 69.0356 90.9797C69.4155 90.4669 69.9106 90.0508 70.4813 89.765C71.0518 89.4791 71.6816 89.3315 72.3197 89.3343C76.6274 89.4556 80.6285 89.621 84.9856 89.4316" stroke="black" stroke-miterlimit="10"/>
<path d="M114.357 64.1519V64.1253C114.164 58.9256 113.903 53.7952 112.48 49.2461C109.8 40.6867 103.673 30.054 93.2318 30.11C92.2292 30.1138 91.2302 30.2329 90.2547 30.4646C83.3724 32.1005 78.5927 39.1521 75.8555 46.425L75.8315 46.481C75.5702 47.1787 75.3285 47.8746 75.1062 48.5689C74.9556 49.036 74.7697 49.4911 74.5503 49.9301C73.7118 51.6197 72.3827 53.017 70.737 53.9388C69.0913 54.8606 67.2056 55.2641 65.3268 55.0965C52.6876 53.9472 36.0299 53.2912 30.7836 62.172" stroke="black" stroke-miterlimit="10"/>
<path d="M93.6745 54.4806C91.8346 56.7018 89.8974 58.847 87.8948 60.9215C83.7951 65.1719 80.2579 69.6863 73.8957 69.9877C68.82 70.2316 63.9883 68.2838 59.1885 66.9332C54.0542 65.4893 51.4557 64.3347 46.6706 62.8761C45.2926 62.4577 43.8629 62.2333 42.4229 62.2095L37.6058 62.2468" stroke="black" stroke-miterlimit="10"/>
<path d="M74.8862 115.836C75.3449 115.63 75.8422 115.525 76.3448 115.526H78.5607C78.5607 115.526 73.9289 106.523 70.2252 100.53" stroke="black" stroke-miterlimit="10"/>
<path d="M77.9287 89.452L93.4211 119.494H75.8969H72.7184" stroke="black" stroke-miterlimit="10"/>
<path d="M120.193 117.77C119.382 118.886 118.045 119.494 116.666 119.494H100.827C99.5141 119.494 98.2328 118.95 97.4142 117.924C96.9179 117.309 96.6075 116.565 96.5196 115.78C96.4396 115.059 96.9756 114.417 97.7009 114.447C97.9757 114.457 98.2374 114.567 98.4374 114.756C98.6374 114.945 98.7623 115.199 98.7888 115.473C98.8212 115.86 98.9731 116.228 99.2234 116.525C99.4146 116.744 99.6517 116.919 99.9177 117.037C100.184 117.154 100.472 117.212 100.763 117.206H116.734C117.02 117.211 117.304 117.154 117.565 117.039C117.827 116.924 118.061 116.754 118.25 116.54C118.464 116.292 118.61 115.994 118.673 115.673C118.737 115.352 118.716 115.021 118.613 114.711L111.481 93.5091C111.12 92.5052 110.456 91.6386 109.58 91.0294C108.704 90.4202 107.66 90.0987 106.594 90.1093C103.591 90.1453 99.7794 90.1533 99.4208 90.1533C90.524 90.1253 87.0215 90.1253 85.1656 90.1933C85.1367 90.1931 85.1082 90.1872 85.0815 90.176C85.0548 90.1648 85.0307 90.1484 85.0104 90.1279C84.9902 90.1073 84.974 90.0831 84.9632 90.0563C84.9523 90.0295 84.9467 90.0008 84.947 89.972C84.9443 89.1489 85.2463 88.3538 85.7949 87.7401C85.7971 87.7385 85.7989 87.7365 85.8003 87.7343C85.8016 87.732 85.8025 87.7293 85.8029 87.7268C86.2913 87.2082 86.9585 86.8946 87.6695 86.8495C90.632 86.6069 93.5651 86.1642 96.4143 85.3909C101.442 84.0284 106.238 81.6912 109.57 77.9327C111.191 76.1134 112.417 73.9767 113.169 71.6584C113.751 69.8183 114.118 67.9168 114.261 65.9921C114.314 65.3823 114.346 64.7699 114.357 64.1549V64.1255C114.357 63.9856 114.365 63.8402 114.365 63.6989C114.383 62.8203 114.343 61.9416 114.245 61.0684C115.696 61.0604 117.158 62.115 117.412 63.5869C117.436 63.7305 117.448 63.8758 117.448 64.0216V81.2645C117.449 82.4425 117.217 83.6089 116.764 84.6962C116.311 85.7836 115.646 86.7702 114.809 87.5988C113.423 88.9721 113.028 91.0559 113.685 92.8892L120.773 113.979C120.988 114.611 121.048 115.285 120.947 115.945C120.846 116.605 120.587 117.231 120.193 117.77Z" stroke="black" stroke-miterlimit="10"/>
<path d="M44.0961 65.2269H2.83056C1.81956 65.2269 1 66.0465 1 67.0575V67.0588C1 68.0698 1.81956 68.8894 2.83056 68.8894H44.0961C45.1071 68.8894 45.9266 68.0698 45.9266 67.0588V67.0575C45.9266 66.0465 45.1071 65.2269 44.0961 65.2269Z" stroke="black" stroke-miterlimit="10"/>
<path d="M32.4101 117.468H15.7244C15.1582 117.468 14.6992 117.927 14.6992 118.493C14.6992 119.059 15.1582 119.518 15.7244 119.518H32.4101C32.9763 119.518 33.4354 119.059 33.4354 118.493C33.4354 117.927 32.9763 117.468 32.4101 117.468Z" stroke="black" stroke-miterlimit="10"/>
<path d="M20.1802 63.583V63.767C20.2068 65.0323 21.3974 65.2256 22.424 65.2336L42.2708 65.2202C43.1401 65.2202 43.8574 64.5536 43.8588 63.735V63.7003C43.8428 62.9004 43.1441 62.2484 42.2855 62.2471C42.2855 62.2471 31.1822 62.2071 22.5827 62.1818C22.428 62.6324 22.0361 62.9817 21.5468 63.267C21.1259 63.4877 20.6552 63.5965 20.1802 63.583Z" stroke="black" stroke-miterlimit="10"/>
<path d="M9.26616 45.7572C9.27029 45.9679 9.33056 46.1736 9.44082 46.3532L18.6403 61.8042C18.7593 61.99 18.9156 62.1492 19.099 62.2717C19.2826 62.3942 19.4895 62.4774 19.7069 62.5162C20.0744 62.5886 20.4554 62.5473 20.7988 62.3975C21.3628 62.1469 21.6881 61.6416 21.6774 61.1296C21.6754 61.0652 21.6688 61.001 21.6574 60.9376C21.6292 60.7964 21.5768 60.6611 21.5028 60.5376L12.3033 45.0866C11.9033 44.4106 10.9247 44.1453 10.1381 44.4933C9.57681 44.7386 9.2515 45.2439 9.26616 45.7572Z" stroke="black" stroke-miterlimit="10"/>
<path d="M34.142 62.247C34.142 62.247 35.25 61.1924 37.7978 59.5178" stroke="black" stroke-miterlimit="10"/>
<path d="M43.1762 44.9145L39.1377 49.3929C38.8566 49.7049 38.4662 49.897 38.0474 49.9295C37.6285 49.962 37.2132 49.8325 36.8872 49.5675C36.7071 49.4213 36.5602 49.2386 36.4559 49.0314C36.3516 48.8242 36.2924 48.5973 36.2824 48.3656C36.2723 48.1339 36.3115 47.9026 36.3974 47.6871C36.4832 47.4717 36.6139 47.2769 36.7806 47.1157L37.5192 46.4011C37.5472 46.3611 37.5792 46.3251 37.6112 46.2877L38.1445 45.6998L42.7309 40.7161C43.2875 40.1042 43.9885 39.6417 44.7698 39.3707C45.5512 39.0995 46.3881 39.0286 47.2039 39.1642L47.2719 39.1762" stroke="black" stroke-miterlimit="10"/>
<path d="M48.8638 46.1265H44.824C44.3643 46.1265 43.9236 45.9438 43.5985 45.6188C43.2735 45.2937 43.0908 44.853 43.0908 44.3933C43.0908 43.9336 43.2735 43.4928 43.5985 43.1677C43.9236 42.8427 44.3643 42.66 44.824 42.66H50.557" stroke="black" stroke-miterlimit="10"/>
<path d="M45.7666 46.1265C45.7106 46.8344 45.44 47.3584 45.0413 47.7264C44.0147 48.6596 42.1322 48.557 40.8229 47.9157" stroke="black" stroke-miterlimit="10"/>
<path d="M38.1511 45.6971C36.9898 44.2985 37.2285 42.3973 38.1311 40.9267C41.8575 34.8418 48.9611 38.5895 53.6315 41.212C56.4117 42.7806 59.0693 44.5572 61.5817 46.5264C63.8056 48.2596 65.8641 50.3342 68.5359 51.3768C70.1358 52.0021 72.0251 52.1514 73.617 51.4301" stroke="black" stroke-miterlimit="10"/>
<path d="M45.0414 47.7159C47.8595 49.796 50.5503 52.043 53.0996 54.4449" stroke="black" stroke-miterlimit="10"/>
<path d="M79.33 15.0054C80.0046 15.6214 81.0406 15.6547 81.8978 15.5721C82.9938 15.4721 84.079 15.2068 85.1523 14.9828L85.8043 14.9494H85.8136C85.9387 14.9508 86.0621 14.9765 86.1772 15.0256C86.2922 15.0745 86.3965 15.1457 86.484 15.2349C86.5716 15.3242 86.6406 15.4298 86.6873 15.5458C86.7341 15.6618 86.7574 15.7858 86.7562 15.9107C86.7711 17.3178 86.6308 18.7223 86.3376 20.0985L87.5868 20.7744C87.7482 20.3238 87.5668 19.6745 87.9495 19.6252C88.1948 19.1679 88.5601 18.8705 89.1334 19.2105C90.256 19.8772 90.6986 21.8357 89.6174 22.733L90.3107 24.0289C90.5524 24.4833 90.9442 24.8395 91.4193 25.037C91.8944 25.2344 92.4235 25.2608 92.9158 25.1115L92.2079 23.5463C93.8691 23.8409 95.0317 21.7677 94.5251 20.5024C94.1798 19.6332 94.1971 18.9572 94.6584 18.1119C94.6891 18.0546 94.3758 17.9786 94.4024 17.9199C94.4184 17.3 94.2464 16.636 93.9478 16.32C93.4225 15.7547 92.3652 15.6534 92.5812 14.7948C92.6772 14.4212 92.7127 14.0346 92.6865 13.6495C92.6301 13.1462 92.4667 12.6608 92.207 12.226C91.9474 11.7911 91.5977 11.4169 91.1813 11.1283C90.3067 10.5537 89.3281 11.075 88.3934 11.0603C87.2588 11.0483 86.4456 10.0857 85.2563 10.0711C84.6643 10.0617 84.1897 10.2924 83.6831 10.579C83.2591 10.823 82.8418 11.0777 82.4365 11.3537C82.0312 11.6296 81.6712 11.8683 81.1872 11.8696C80.5566 11.8776 79.9473 11.4777 79.3127 11.6643C78.9917 11.7507 78.7098 11.9435 78.5127 12.2109C78.3114 13.1949 78.6754 14.4121 79.33 15.0054Z" fill="#3D2FE8"/>
<path d="M87.5921 20.6281C87.6735 20.2808 87.7933 19.9436 87.9494 19.6228C88.1948 19.1655 88.5614 18.8682 89.1334 19.2082C90.256 19.8748 90.6986 21.8334 89.6173 22.7307L90.3106 24.0266C90.5522 24.4808 90.9442 24.8372 91.4192 25.0347C91.8944 25.2321 92.4234 25.2584 92.9158 25.1092" stroke="black" stroke-linecap="round" stroke-linejoin="round"/>
<path d="M92.2079 23.5439L92.9132 25.1119C93.0905 25.4865 93.5984 26.6384 94.1304 27.8357C94.5091 28.693 94.9037 29.5756 95.197 30.2249" stroke="black" stroke-linecap="round" stroke-linejoin="round"/>
<path d="M80.7832 17.9137C80.7832 17.9137 82.8617 17.3963 83.7697 18.9723" stroke="black" stroke-miterlimit="10"/>
<path d="M81.3952 22.6187C80.8352 22.772 80.0819 22.9093 79.65 22.4214L80.5912 20.4401C80.8198 19.9543 80.8763 19.4051 80.7512 18.8829C80.5459 18.0043 80.0326 16.6697 80.5832 15.5111" stroke="black" stroke-miterlimit="10"/>
<path d="M82.7939 19.9634C82.9516 19.7017 82.83 19.3392 82.5222 19.1537C82.2145 18.9683 81.8372 19.03 81.6794 19.2917C81.5216 19.5535 81.6432 19.916 81.951 20.1014C82.2587 20.287 82.636 20.2251 82.7939 19.9634Z" fill="black"/>
<path d="M85.8269 32.4369L85.3336 26.9625" stroke="black" stroke-miterlimit="10"/>
<path d="M87.5868 20.7718C87.5868 20.7238 87.5868 20.6745 87.5868 20.6265C87.5895 20.575 87.5895 20.5234 87.5868 20.4718" stroke="black" stroke-linecap="round" stroke-linejoin="round"/>
<path d="M87.5881 20.7736L87.1588 20.543L86.3376 20.0963" stroke="black" stroke-linecap="round" stroke-linejoin="round"/>
<path d="M84.151 22.7596C84.151 22.7596 84.1097 24.1462 82.5244 24.7169" stroke="black" stroke-miterlimit="10"/>
<path d="M92.2079 23.5438C93.8691 23.8385 95.0317 21.7653 94.525 20.5C94.1797 19.6307 94.1971 18.9548 94.6584 18.1095C94.689 18.0521 94.7144 17.9961 94.741 17.9401C95.0837 17.1842 94.9624 16.4349 94.4237 15.7923C93.9131 15.1843 93.1438 14.971 93.3651 14.0844C93.4646 13.6995 93.5015 13.3011 93.4744 12.9045C93.417 12.3868 93.2491 11.8874 92.9823 11.4401C92.7156 10.9928 92.356 10.6079 91.9279 10.3113C91.0293 9.71531 90.0173 10.2553 89.0494 10.2406C87.8841 10.2233 87.0428 9.23134 85.8202 9.21667C85.2083 9.21667 84.715 9.44466 84.195 9.74064C83.7577 9.99263 83.3244 10.2579 82.9111 10.5406C82.4978 10.8232 82.1111 11.0739 81.6205 11.0739C80.9699 11.0739 80.3419 10.6739 79.6913 10.8606C79.0406 11.0472 78.654 11.5859 78.526 12.2098C78.318 13.1884 78.682 14.411 79.3366 15.0097C80.0113 15.6256 81.0472 15.659 81.9045 15.5763C83.0004 15.4763 84.0857 15.211 85.1589 14.987L85.8109 14.9537H85.8202C85.9453 14.9549 86.0688 14.9807 86.1838 15.0297C86.2989 15.0787 86.4031 15.1498 86.4906 15.2391C86.5782 15.3283 86.6473 15.434 86.6941 15.5499C86.7407 15.6659 86.7641 15.7899 86.7629 15.9149C86.7778 17.3221 86.6374 18.7264 86.3442 20.1027" stroke="black" stroke-miterlimit="10"/>
<path d="M87.8388 25.061C87.8388 25.061 85.3616 28.3515 83.1604 27.6142C80.9592 26.8769 80.8472 22.8038 80.8472 22.8038" stroke="black" stroke-linecap="round" stroke-linejoin="round"/>
<path d="M22.488 117.238V68.8901H25.4465V117.258" stroke="black" stroke-miterlimit="10"/>
<path d="M25.2105 40.7575C27.8481 40.7575 29.9862 38.6193 29.9862 35.9818C29.9862 33.3442 27.8481 31.2061 25.2105 31.2061C22.573 31.2061 20.4348 33.3442 20.4348 35.9818C20.4348 38.6193 22.573 40.7575 25.2105 40.7575Z" fill="#3D2FE8"/>
<path d="M23.3427 37.2137C23.203 37.1182 23.079 37.0017 22.9747 36.8684C22.7903 36.6401 22.6961 36.3523 22.7095 36.0592C22.723 35.7662 22.8435 35.4882 23.048 35.2778C23.1815 35.1405 23.3449 35.0358 23.5256 34.9722C23.7063 34.9086 23.8992 34.8877 24.0893 34.9112C24.0472 34.6468 24.0922 34.3757 24.2178 34.1392C24.3433 33.9027 24.5425 33.7134 24.785 33.6C25.0276 33.4867 25.3006 33.4553 25.5624 33.5107C25.8244 33.5662 26.0613 33.7054 26.2372 33.9072C26.6092 34.3285 26.7838 34.9552 26.8491 35.5071C26.8829 35.7952 26.8874 36.0862 26.8625 36.3751C26.8505 36.5204 26.7985 37.359 26.6625 37.4124C25.7639 37.7563 24.232 37.831 23.3427 37.2137Z" fill="white"/>
<path d="M58.9059 39.6307C60.3196 39.6307 61.4657 38.4846 61.4657 37.0708C61.4657 35.6571 60.3196 34.511 58.9059 34.511C57.4921 34.511 56.346 35.6571 56.346 37.0708C56.346 38.4846 57.4921 39.6307 58.9059 39.6307Z" fill="#3D2FE8"/>
<path d="M58.7298 35.8845C58.8077 35.8374 58.8929 35.8037 58.9818 35.7845C59.1348 35.7477 59.2958 35.7681 59.4347 35.8417C59.5738 35.9154 59.681 36.0373 59.7365 36.1845C59.7726 36.2806 59.7859 36.3839 59.7755 36.4862C59.7651 36.5883 59.7313 36.6868 59.6765 36.7738C59.8113 36.8166 59.929 36.9012 60.0126 37.0155C60.096 37.1297 60.1411 37.2675 60.1411 37.4091C60.1411 37.5505 60.096 37.6884 60.0126 37.8026C59.929 37.9168 59.8113 38.0014 59.6765 38.0444C59.3711 38.1112 59.053 38.088 58.7605 37.9777C58.6132 37.928 58.4711 37.8637 58.3365 37.7857C58.2685 37.747 57.8726 37.5311 57.8792 37.4524C57.9179 36.9351 58.2312 36.1751 58.7298 35.8845Z" fill="white"/>
<path d="M39.0577 34.151C39.3446 34.3905 39.6649 34.5867 40.0083 34.7336C40.6408 34.9976 41.331 35.0928 42.0114 35.0099C42.6917 34.927 43.3389 34.6687 43.8894 34.2603C44.316 33.935 44.6894 33.4857 45.1307 33.1591C45.4385 32.9179 45.8082 32.7682 46.1973 32.7271C46.3266 32.7308 46.455 32.7038 46.5719 32.6484C46.8679 32.4644 46.5186 32.1591 46.4879 31.9431C46.4468 31.5977 46.5336 31.2492 46.7319 30.9632C47.2383 30.208 47.468 29.3009 47.3817 28.3956C47.2956 27.4905 46.899 26.6429 46.2591 25.9968C45.6193 25.3507 44.7756 24.9458 43.8714 24.8508C42.9671 24.7558 42.0576 24.9766 41.2976 25.4755C40.5469 25.9675 39.9896 26.6968 39.4243 27.3941C38.9257 28.0087 38.4044 28.614 38.0391 29.3166C37.1805 30.9685 37.6818 33.0031 39.0577 34.151Z" fill="#3D2FE8"/>
<path d="M44.1494 28.7062C44.6214 28.7062 45.004 28.3235 45.004 27.8516C45.004 27.3795 44.6214 26.9969 44.1494 26.9969C43.6774 26.9969 43.2948 27.3795 43.2948 27.8516C43.2948 28.3235 43.6774 28.7062 44.1494 28.7062Z" fill="white"/>
<path d="M42.4962 30.7274C42.9681 30.7274 43.3508 30.3448 43.3508 29.8728C43.3508 29.4008 42.9681 29.0182 42.4962 29.0182C42.0242 29.0182 41.6415 29.4008 41.6415 29.8728C41.6415 30.3448 42.0242 30.7274 42.4962 30.7274Z" fill="white"/>
<path d="M40.9456 32.6246C41.4176 32.6246 41.8002 32.242 41.8002 31.77C41.8002 31.298 41.4176 30.9154 40.9456 30.9154C40.4736 30.9154 40.091 31.298 40.091 31.77C40.091 32.242 40.4736 32.6246 40.9456 32.6246Z" fill="white"/>
<g opacity="0.46">
<path opacity="0.46" d="M65.6628 23.7665C65.596 24.1013 65.4554 24.4168 65.251 24.6902C65.0466 24.9635 64.7837 25.1878 64.4816 25.3464L57.354 29.1329C57.0852 29.2763 56.7907 29.3653 56.4874 29.3947C56.1842 29.4241 55.8781 29.3933 55.5867 29.3041C55.2954 29.2149 55.0245 29.0691 54.7897 28.875C54.5548 28.6809 54.3606 28.4422 54.2182 28.1729L48.5372 17.4762C48.2493 16.9337 48.1887 16.2992 48.3684 15.7119C48.5481 15.1248 48.9535 14.6328 49.4958 14.3444L56.6287 10.5593C57.702 9.98869 59.1832 10.426 59.7592 11.5179L65.4415 22.2106C65.6972 22.6867 65.7756 23.238 65.6628 23.7665Z" fill="#3D2FE8"/>
</g>
<path d="M63.5469 22.956L56.5967 20.3068C56.5082 20.2724 56.4347 20.2076 56.3895 20.1242C56.3443 20.0406 56.3303 19.9437 56.35 19.8509L57.9619 12.4366C57.9802 12.3577 58.0219 12.2862 58.0818 12.2317C58.1415 12.1771 58.2165 12.1419 58.2966 12.1308C58.3767 12.1196 58.4584 12.1331 58.5308 12.1693C58.6031 12.2056 58.6628 12.263 58.7019 12.334L64.0402 22.3947C64.078 22.4663 64.093 22.5478 64.0836 22.6282C64.074 22.7086 64.0402 22.7843 63.9868 22.8451C63.9333 22.9059 63.8626 22.9491 63.7841 22.9689C63.7056 22.9887 63.6228 22.9841 63.5469 22.956Z" fill="white"/>
<g opacity="0.46">
<path opacity="0.46" d="M73.929 31.2099C74.0748 31.3144 74.1954 31.4504 74.2816 31.6079C74.3679 31.7652 74.4179 31.94 74.4276 32.1192L74.6943 36.3576C74.7044 36.5176 74.6828 36.678 74.6309 36.8295C74.5789 36.9813 74.4975 37.1211 74.3914 37.2413C74.2852 37.3614 74.1564 37.4594 74.0123 37.5296C73.8682 37.5999 73.7117 37.6411 73.5517 37.6508L67.1907 38.0428C66.8683 38.0621 66.5514 37.9528 66.3096 37.7388C66.0676 37.525 65.9204 37.2238 65.9001 36.9015L65.6401 32.6605C65.6287 32.3402 65.7405 32.0278 65.9527 31.7877C66.1648 31.5476 66.4609 31.398 66.7801 31.3699L73.1397 30.9699C73.4229 30.954 73.7026 31.0391 73.929 31.2099Z" fill="#3D2FE8"/>
</g>
<path d="M73.0837 32.0472L70.2998 34.803C70.2645 34.8365 70.2185 34.8568 70.1698 34.8601C70.1213 34.8636 70.0729 34.85 70.0332 34.8217L66.8334 32.4352C66.7992 32.4094 66.7738 32.3738 66.7606 32.3332C66.7472 32.2925 66.7467 32.2487 66.7591 32.2077C66.7715 32.1668 66.796 32.1307 66.8296 32.104C66.8631 32.0775 66.904 32.0619 66.9467 32.0592L72.9303 31.6899C72.9722 31.6888 73.0134 31.7003 73.0487 31.723C73.0839 31.7455 73.1115 31.7782 73.1281 31.8167C73.1446 31.8551 73.1491 31.8976 73.1413 31.9388C73.1334 31.9799 73.1133 32.0176 73.0837 32.0472Z" fill="white"/>
<g opacity="0.46">
<path opacity="0.46" d="M30.7316 54.5006C30.3141 54.5693 29.892 54.605 29.469 54.6073C25.4186 54.6073 25.5546 50.8515 25.5546 50.8515L28.9104 51.5768C28.7836 51.2662 28.735 50.9291 28.769 50.5953C28.8029 50.2614 28.9184 49.941 29.105 49.6623C29.873 48.5397 31.6569 49.117 31.6569 49.117L32.7661 48.4023L32.5261 49.7356L34.0127 49.4849L33.2488 50.3689C34.2754 51.3555 35.5833 54.3593 32.4288 55.9206C29.2743 57.4818 27.9131 55.6112 27.9131 55.6112L29.469 54.6086L30.7316 54.5006Z" fill="#3D2FE8"/>
</g>
<path d="M30.6649 50.8275C30.9329 50.8275 31.1502 50.6104 31.1502 50.3422C31.1502 50.0743 30.9329 49.8569 30.6649 49.8569C30.3969 49.8569 30.1796 50.0743 30.1796 50.3422C30.1796 50.6104 30.3969 50.8275 30.6649 50.8275Z" fill="white"/>
<path d="M39.1244 119.494H94.6237" stroke="black" stroke-miterlimit="10"/>
</svg>
