<svg width="102" height="130" viewBox="0 0 102 130" fill="none" xmlns="http://www.w3.org/2000/svg">
<path d="M54.6851 29.0388C66.9768 28.3802 81.9486 31.9208 91.7595 39.6008C97.4637 44.0603 99.8222 51.591 99.6159 58.6238C99.3641 66.9795 95.5675 72.375 89.7353 78.0394C82.2857 85.2685 89.3925 94.5602 89.1905 102.953C89.071 107.829 87.5862 112.574 84.9045 116.649C83.354 119.011 78.361 123.727 76.2401 125.589" stroke="#CCDDE2" stroke-miterlimit="10"/>
<path d="M16.0346 121.411C14.9421 121.007 13.8714 120.575 12.8226 120.114C12.1882 119.829 11.5633 119.536 10.9478 119.235C4.2777 115.925 -1.96704 106.964 2.51808 99.6043C4.77273 95.9058 9.154 93.9243 10.8937 89.9129C13.1697 84.661 8.96054 79.4718 7.82255 74.4803C6.93648 70.6028 6.88356 66.5816 7.6675 62.6821C8.4328 58.9097 9.92784 54.8158 12.7814 52.113C13.6704 51.2709 14.7529 50.6023 15.9521 50.3577" stroke="#CCDDE2" stroke-miterlimit="10"/>
<path d="M95.6386 64.3892H90.6969V128.935H95.6386V64.3892Z" stroke="#CCDDE2" stroke-miterlimit="10"/>
<path d="M51.4233 64.3976H90.6969V128.935H84.0795V109.109C84.0792 108.715 84.0015 108.325 83.8506 107.961C83.6995 107.597 83.4785 107.267 83.1998 106.988C82.921 106.71 82.5903 106.489 82.2261 106.338C81.8621 106.188 81.4719 106.11 81.078 106.111H61.3239C60.9299 106.11 60.5398 106.188 60.1756 106.338C59.8116 106.489 59.4808 106.71 59.2021 106.988C58.9234 107.267 58.7022 107.597 58.5513 107.961C58.4004 108.325 58.3226 108.715 58.3224 109.109V128.935H51.8814M56.1332 97.9883C56.0915 97.988 56.0504 97.9796 56.0122 97.9635C55.9737 97.9475 55.939 97.9239 55.9097 97.8943C55.8806 97.8647 55.8575 97.8295 55.8419 97.791C55.8262 97.7524 55.8184 97.7112 55.8188 97.6697V95.1305C55.8188 95.0891 55.8269 95.0483 55.8427 95.0102C55.8585 94.972 55.8817 94.9373 55.9109 94.9082C55.94 94.879 55.9747 94.8558 56.0129 94.84C56.051 94.8242 56.092 94.8161 56.1332 94.8161H61.2542C61.2956 94.8159 61.3367 94.824 61.3751 94.8396C61.4135 94.8553 61.4483 94.8784 61.4778 94.9076C61.5074 94.9368 61.5307 94.9715 61.5468 95.0097C61.5629 95.048 61.5711 95.089 61.5714 95.1305V97.6697C61.5717 97.7115 61.5639 97.7529 61.5481 97.7917C61.5323 97.8304 61.5089 97.8657 61.4794 97.8953C61.4499 97.9249 61.4148 97.9485 61.3761 97.9644C61.3374 97.9803 61.296 97.9884 61.2542 97.9883H56.1332ZM65.1376 102.114C65.1354 102.195 65.1019 102.273 65.0438 102.331C64.9858 102.389 64.9078 102.422 64.8261 102.424H59.7051C59.6214 102.424 59.5412 102.391 59.4818 102.332C59.4223 102.273 59.3886 102.193 59.3879 102.109V99.5687C59.3886 99.485 59.4223 99.4051 59.4818 99.3462C59.5412 99.2873 59.6214 99.2543 59.7051 99.2543H64.8261C64.9098 99.2543 64.9902 99.2872 65.0498 99.3461C65.1094 99.405 65.1436 99.4849 65.1447 99.5687L65.1376 102.114ZM62.5771 97.6725V95.1305C62.5772 95.089 62.5856 95.048 62.6017 95.0097C62.6176 94.9715 62.6411 94.9368 62.6706 94.9076C62.7 94.8784 62.735 94.8553 62.7733 94.8396C62.8117 94.824 62.8528 94.8159 62.8943 94.8161H68.0153C68.0989 94.8161 68.1791 94.8491 68.2386 94.908C68.2979 94.9669 68.3318 95.0469 68.3325 95.1305V97.6697C68.3326 97.7113 68.3245 97.7527 68.3087 97.7914C68.2928 97.8301 68.2695 97.8653 68.24 97.8948C68.2106 97.9244 68.1756 97.9479 68.1369 97.964C68.0984 97.98 68.057 97.9883 68.0153 97.9883H62.8943C62.8522 97.9889 62.8105 97.981 62.7714 97.9653C62.7324 97.9495 62.697 97.926 62.6671 97.8963C62.6374 97.8665 62.6138 97.8313 62.5979 97.7923C62.5819 97.7534 62.5738 97.7116 62.5742 97.6697L62.5771 97.6725ZM71.8717 102.114C71.8705 102.197 71.8365 102.276 71.7771 102.334C71.7176 102.392 71.6375 102.424 71.5544 102.424H66.4335C66.3501 102.424 66.2702 102.39 66.2111 102.331C66.1522 102.273 66.1191 102.193 66.1191 102.109V99.5687C66.1191 99.4853 66.1522 99.4052 66.2111 99.3463C66.2702 99.2875 66.3501 99.2543 66.4335 99.2543H71.5544C71.5957 99.2543 71.6365 99.2624 71.6748 99.2782C71.7129 99.294 71.7475 99.3172 71.7768 99.3463C71.8059 99.3755 71.8291 99.4102 71.8449 99.4483C71.8607 99.4865 71.8688 99.5273 71.8688 99.5687L71.8717 102.114ZM75.0893 97.6725C75.0896 97.7143 75.0818 97.7557 75.066 97.7946C75.0502 97.8332 75.0269 97.8685 74.9973 97.8981C74.9678 97.9277 74.9327 97.9512 74.894 97.9672C74.8553 97.9832 74.8139 97.9913 74.7721 97.9911H69.6511C69.6095 97.9909 69.5684 97.9825 69.5301 97.9664C69.4917 97.9503 69.457 97.9267 69.4277 97.8971C69.3985 97.8675 69.3755 97.8324 69.3598 97.7938C69.3442 97.7553 69.3364 97.714 69.3368 97.6725V95.1305C69.3368 95.0471 69.3699 94.9671 69.4288 94.9082C69.4878 94.8493 69.5678 94.8161 69.6511 94.8161H74.7721C74.8135 94.8159 74.8546 94.824 74.893 94.8396C74.9314 94.8553 74.9663 94.8784 74.9959 94.9076C75.0253 94.9368 75.0486 94.9715 75.0647 95.0097C75.0808 95.048 75.0892 95.089 75.0893 95.1305V97.6725ZM81.8433 97.6725C81.8436 97.714 81.8358 97.7553 81.8201 97.7938C81.8046 97.8324 81.7816 97.8675 81.7523 97.8971C81.7231 97.9267 81.6883 97.9503 81.65 97.9664C81.6116 97.9825 81.5705 97.9909 81.5289 97.9911H76.408C76.3662 97.9913 76.3246 97.9832 76.2861 97.9672C76.2474 97.9512 76.2122 97.9277 76.1827 97.8981C76.1532 97.8685 76.1299 97.8332 76.1141 97.7946C76.0983 97.7557 76.0903 97.7143 76.0908 97.6725V95.1305C76.0909 95.089 76.0993 95.048 76.1154 95.0097C76.1313 94.9715 76.1548 94.9368 76.1842 94.9076C76.2137 94.8784 76.2487 94.8553 76.2869 94.8396C76.3253 94.824 76.3664 94.8159 76.408 94.8161H81.5289C81.6123 94.8161 81.6922 94.8493 81.7513 94.9082C81.8102 94.9671 81.8433 95.0471 81.8433 95.1305V97.6725ZM86.5859 88.1418C86.5862 88.9371 86.2707 89.7002 85.7087 90.263C85.1466 90.8259 84.384 91.1424 83.5887 91.1433H58.5842C58.1891 91.1434 57.7978 91.0656 57.4329 90.9144C57.0679 90.763 56.7365 90.5413 56.4574 90.2617C56.1783 89.9821 55.9571 89.6501 55.8065 89.2849C55.656 88.9196 55.5789 88.5283 55.5799 88.1333V77.5528C55.5796 77.1586 55.6571 76.7684 55.8077 76.4043C55.9585 76.0401 56.1794 75.7092 56.458 75.4304C56.7366 75.1518 57.0674 74.9307 57.4315 74.7798C57.7955 74.629 58.1857 74.5513 58.5799 74.5513H83.5859C83.9803 74.5503 84.3712 74.6273 84.736 74.7778C85.1007 74.9283 85.4321 75.1492 85.7114 75.4282C85.9905 75.707 86.2118 76.0383 86.3626 76.4028C86.5134 76.7674 86.5907 77.1582 86.5902 77.5528L86.5859 88.1418ZM86.1478 71.0548C86.0099 71.1941 85.8458 71.3046 85.6647 71.3799C85.4838 71.4551 85.2896 71.4935 85.0937 71.493H57.3125C57.1156 71.493 56.9207 71.454 56.7389 71.3785C56.5571 71.3028 56.3921 71.1921 56.2533 71.0524C56.1144 70.9129 56.0046 70.7472 55.9301 70.5649C55.8555 70.3827 55.8177 70.1877 55.8188 69.9908C55.8203 69.5952 55.9782 69.2164 56.258 68.9368C56.5379 68.6572 56.9169 68.4998 57.3125 68.4986H85.0909C85.2875 68.4976 85.4822 68.5356 85.664 68.6102C85.8459 68.6847 86.0112 68.7945 86.1506 68.9331C86.2899 69.0718 86.4004 69.2366 86.4759 69.4181C86.5513 69.5996 86.5902 69.7942 86.5902 69.9908C86.59 70.1876 86.5505 70.3821 86.4741 70.5635C86.3976 70.7447 86.2856 70.9089 86.1449 71.0463L86.1478 71.0548Z" stroke="#CCDDE2" stroke-miterlimit="10"/>
<path d="M55.8188 69.9911C55.8202 69.5955 55.9781 69.2167 56.2579 68.937C56.5377 68.6575 56.9168 68.5001 57.3124 68.4989H85.0908C85.2873 68.4979 85.4822 68.5359 85.664 68.6104C85.8459 68.685 86.0112 68.7948 86.1506 68.9335C86.2899 69.072 86.4004 69.2369 86.4758 69.4184C86.5513 69.5999 86.5902 69.7945 86.5902 69.9911C86.589 70.3866 86.4314 70.7654 86.1519 71.045C85.8722 71.3246 85.4933 71.4822 85.098 71.4833H57.3124C56.9166 71.4833 56.5367 71.3261 56.2568 71.0463C55.9767 70.7665 55.8191 70.387 55.8188 69.9911Z" stroke="#CCDDE2" stroke-miterlimit="10"/>
<path d="M83.5858 74.5512H58.5841C58.1897 74.5506 57.7991 74.6278 57.4345 74.7783C57.0699 74.929 56.7386 75.15 56.4595 75.4288C56.1806 75.7076 55.9592 76.0387 55.8081 76.4031C55.6572 76.7675 55.5797 77.1582 55.5798 77.5526V88.1331C55.5803 88.9287 55.8963 89.6917 56.4588 90.2545C57.0214 90.8172 57.7843 91.1337 58.5799 91.1346H83.5858C83.9803 91.1351 84.3709 91.0579 84.7355 90.9072C85.1001 90.7566 85.4314 90.5355 85.7105 90.2569C85.9894 89.9781 86.2108 89.6469 86.3618 89.2825C86.5128 88.9182 86.5903 88.5276 86.5901 88.1331V77.5526C86.5907 77.158 86.5133 76.7673 86.3626 76.4027C86.2118 76.0381 85.9904 75.7068 85.7113 75.428C85.4321 75.149 85.1008 74.9281 84.7359 74.7776C84.3712 74.6271 83.9804 74.5502 83.5858 74.5512ZM69.5871 86.6665C69.5875 86.944 69.5332 87.2189 69.4272 87.4753C69.3214 87.732 69.1659 87.9651 68.9699 88.1616C68.7739 88.358 68.541 88.5138 68.2847 88.6203C68.0285 88.7267 67.7537 88.7815 67.4761 88.7818H60.0792C59.8016 88.7815 59.5268 88.7267 59.2706 88.6203C59.0143 88.5138 58.7814 88.358 58.5854 88.1616C58.3894 87.9651 58.2339 87.732 58.1281 87.4753C58.0221 87.2189 57.9678 86.944 57.9682 86.6665V79.032C57.9681 78.7546 58.0224 78.4798 58.1285 78.2235C58.2345 77.9671 58.3898 77.7341 58.5858 77.5378C58.7819 77.3415 59.0147 77.1858 59.2709 77.0795C59.5271 76.9731 59.8018 76.9183 60.0792 76.9182H67.4761C67.7537 76.9182 68.0283 76.9728 68.2847 77.0791C68.5409 77.1853 68.7737 77.3411 68.9699 77.5374C69.1659 77.7337 69.3214 77.9668 69.4272 78.2232C69.5332 78.4796 69.5875 78.7545 69.5871 79.032V86.6665ZM84.125 86.6765C84.1254 86.954 84.0711 87.2288 83.9651 87.4853C83.8592 87.7419 83.7038 87.9751 83.5077 88.1715C83.3117 88.368 83.0789 88.5237 82.8225 88.6303C82.5663 88.7367 82.2915 88.7914 82.014 88.7917H74.5914C74.3139 88.7914 74.0391 88.7367 73.7829 88.6303C73.5266 88.5237 73.2937 88.368 73.0977 88.1715C72.9017 87.9751 72.7462 87.7419 72.6403 87.4853C72.5344 87.2288 72.48 86.954 72.4805 86.6765V79.022C72.4803 78.7447 72.5348 78.4698 72.6408 78.2135C72.7467 77.9572 72.9021 77.7242 73.0981 77.5279C73.2941 77.3316 73.527 77.1758 73.7832 77.0695C74.0394 76.9631 74.314 76.9084 74.5914 76.9082H82.014C82.2914 76.9084 82.5661 76.9631 82.8223 77.0695C83.0784 77.1758 83.3113 77.3316 83.5073 77.5279C83.7033 77.7242 83.8587 77.9572 83.9647 78.2135C84.0708 78.4698 84.1251 78.7447 84.125 79.022V86.6765Z" stroke="#CCDDE2" stroke-miterlimit="10"/>
<path d="M86.5902 69.9911C86.589 70.3866 86.4314 70.7654 86.1519 71.045C85.8722 71.3246 85.4933 71.4822 85.098 71.4833H57.3124C56.9166 71.4833 56.5367 71.3261 56.2568 71.0463C55.9767 70.7665 55.8191 70.387 55.8188 69.9911C55.8202 69.5955 55.9781 69.2167 56.2579 68.937C56.5377 68.6575 56.9168 68.5001 57.3124 68.4989H85.0908C85.2873 68.4979 85.4822 68.5359 85.664 68.6104C85.8459 68.685 86.0112 68.7948 86.1506 68.9335C86.2899 69.072 86.4004 69.2369 86.4758 69.4184C86.5513 69.5999 86.5902 69.7945 86.5902 69.9911Z" stroke="#CCDDE2" stroke-miterlimit="10"/>
<path d="M80.9813 108.411H61.3438C60.8684 108.411 60.4832 108.796 60.4832 109.271C60.4832 109.747 60.8684 110.132 61.3438 110.132H80.9813C81.4565 110.132 81.8419 109.747 81.8419 109.271C81.8419 108.796 81.4565 108.411 80.9813 108.411Z" stroke="#CCDDE2" stroke-miterlimit="10"/>
<path d="M80.9813 111.964H61.3438C60.8684 111.964 60.4832 112.35 60.4832 112.825C60.4832 113.3 60.8684 113.685 61.3438 113.685H80.9813C81.4565 113.685 81.8419 113.3 81.8419 112.825C81.8419 112.35 81.4565 111.964 80.9813 111.964Z" stroke="#CCDDE2" stroke-miterlimit="10"/>
<path d="M80.9813 115.518H61.3438C60.8684 115.518 60.4832 115.903 60.4832 116.378C60.4832 116.854 60.8684 117.239 61.3438 117.239H80.9813C81.4565 117.239 81.8419 116.854 81.8419 116.378C81.8419 115.903 81.4565 115.518 80.9813 115.518Z" stroke="#CCDDE2" stroke-miterlimit="10"/>
<path d="M80.9813 119.071H61.3438C60.8684 119.071 60.4832 119.457 60.4832 119.932C60.4832 120.407 60.8684 120.792 61.3438 120.792H80.9813C81.4565 120.792 81.8419 120.407 81.8419 119.932C81.8419 119.457 81.4565 119.071 80.9813 119.071Z" stroke="#CCDDE2" stroke-miterlimit="10"/>
<path d="M80.9813 122.623H61.3438C60.8684 122.623 60.4832 123.008 60.4832 123.484C60.4832 123.959 60.8684 124.344 61.3438 124.344H80.9813C81.4565 124.344 81.8419 123.959 81.8419 123.484C81.8419 123.008 81.4565 122.623 80.9813 122.623Z" stroke="#CCDDE2" stroke-miterlimit="10"/>
<path d="M48.6324 58.5098H97.1863C98.1977 58.5098 99.1679 58.9116 99.8829 59.6268C100.598 60.3419 101 61.3121 101 62.3235V64.3391H45.6438" stroke="#CCDDE2" stroke-miterlimit="10"/>
<path d="M94.0341 36.595H64.5273C62.8956 36.595 61.5728 37.9179 61.5728 39.5495V48.2053C61.5728 49.8371 62.8956 51.1599 64.5273 51.1599H94.0341C95.6658 51.1599 96.9886 49.8371 96.9886 48.2053V39.5495C96.9886 37.9179 95.6658 36.595 94.0341 36.595Z" stroke="#CCDDE2" stroke-miterlimit="10"/>
<path d="M78.4208 43.6208C78.4208 45.7289 76.9258 46.6934 75.3824 46.6934C73.6996 46.6934 72.4051 45.5867 72.4051 43.7275C72.4051 41.8683 73.6299 40.6791 75.4777 40.6791C77.243 40.6791 78.4208 41.891 78.4208 43.6208ZM74.2529 43.6805C74.2529 44.6692 74.6654 45.4103 75.4307 45.4103C76.1249 45.4103 76.5687 44.7161 76.5687 43.6805C76.5687 42.827 76.2387 41.9494 75.4307 41.9494C74.5715 41.9494 74.2529 42.8327 74.2529 43.6748V43.6805Z" fill="#D7E8F0"/>
<path d="M80.3554 42.7388C80.3554 42.3733 80.3554 42.0276 80.3412 41.7203C80.3385 41.6014 80.3597 41.4831 80.4035 41.3723C80.4473 41.2616 80.5129 41.1607 80.5962 41.0758C80.6796 40.9907 80.7792 40.9235 80.8891 40.8775C80.9989 40.8316 81.1169 40.8082 81.2359 40.8085H81.8618L81.9443 41.608H81.9685C82.3952 40.9963 83.051 40.6791 83.8874 40.6791C85.1463 40.6791 86.2772 41.773 86.2772 43.6094C86.2772 45.7047 84.9458 46.6934 83.6627 46.6934C82.9685 46.6934 82.4265 46.4089 82.1676 46.0348H82.1449V48.0006C82.1449 48.2381 82.0506 48.4655 81.8829 48.6334C81.715 48.8012 81.4874 48.8954 81.2501 48.8954C81.0129 48.8954 80.7853 48.8012 80.6174 48.6334C80.4497 48.4655 80.3554 48.2381 80.3554 48.0006V42.7388ZM82.1449 44.0916C82.1429 44.2182 82.1548 44.3447 82.1805 44.4686C82.2324 44.7086 82.3642 44.9236 82.5544 45.0787C82.7448 45.2337 82.982 45.3197 83.2274 45.3221C84.0041 45.3221 84.4635 44.6749 84.4635 43.6976C84.4635 42.7801 84.051 42.0845 83.2502 42.0845C82.9954 42.092 82.7507 42.1861 82.5563 42.3509C82.362 42.5158 82.2294 42.742 82.1805 42.992C82.156 43.096 82.144 43.2026 82.1449 43.3093V44.0916Z" fill="#D7E8F0"/>
<path d="M80.3412 51.16V58.51" stroke="#CCDDE2" stroke-miterlimit="10"/>
<path d="M1.35588 120.114H16.0346V121.678C16.0481 122.651 15.8683 123.617 15.5053 124.52C15.1424 125.422 14.6037 126.244 13.9206 126.937C13.2375 127.629 12.4236 128.179 11.526 128.555C10.6285 128.93 9.66523 129.123 8.69238 129.123C7.71954 129.123 6.75637 128.93 5.85878 128.555C4.96133 128.179 4.14724 127.629 3.46416 126.937C2.78108 126.244 2.24238 125.422 1.8795 124.52C1.51663 123.617 1.33668 122.651 1.3502 121.678V120.114H1.35588Z" fill="#D7E8F0"/>
<path d="M64.8332 35.3748L64.809 40.2725V125.088C64.809 129.825 60.9683 128.929 56.2314 128.922L44.153 128.914H9.96056C11.6143 128.628 13.1201 127.783 14.2256 126.52C15.3313 125.257 15.9699 123.653 16.0346 121.976C16.0431 121.878 16.0431 121.778 16.0431 121.68C16.0453 121.643 16.0453 121.606 16.0431 121.569L15.9364 34.6721C15.8261 33.5148 15.4454 32.3995 14.8253 31.4162C14.2051 30.4328 13.3627 29.6089 12.366 29.0106C11.2513 28.3651 9.98545 28.0264 8.69739 28.0291H57.4888C59.4367 28.0298 61.3045 28.804 62.6818 30.1814C64.0589 31.559 64.8327 33.427 64.8332 35.3748Z" fill="#3D2FE8"/>
<path d="M16.0346 47.0234H1.3559V35.3746C1.34239 34.4018 1.52234 33.4361 1.88521 32.5333C2.24809 31.6308 2.78679 30.8091 3.46987 30.1165C4.15309 29.4238 4.96704 28.8737 5.86449 28.4983C6.76208 28.1229 7.72525 27.9294 8.69809 27.9294C9.67093 27.9294 10.6342 28.1229 11.5317 28.4983C12.4293 28.8737 13.2432 29.4238 13.9263 30.1165C14.6094 30.8091 15.1481 31.6308 15.511 32.5333C15.874 33.4361 16.0538 34.4018 16.0403 35.3746V48.7261" fill="#D7E8F0"/>
<path d="M21.965 111.35H39.8514C41.4069 111.35 42.6679 110.089 42.6679 108.533V57.1045C42.6679 55.549 41.4069 54.288 39.8514 54.288H21.965C20.4095 54.288 19.1484 55.549 19.1484 57.1045V108.533C19.1484 110.089 20.4095 111.35 21.965 111.35Z" fill="#3D2FE8"/>
<path d="M36.1216 49.7031H44.5385" stroke="white" stroke-miterlimit="10"/>
<path d="M24.2594 60.3196H37.3592" stroke="white" stroke-miterlimit="10"/>
<path d="M24.2594 64.9199H37.3592" stroke="white" stroke-miterlimit="10"/>
<path d="M24.2594 69.5201H37.3592" stroke="white" stroke-miterlimit="10"/>
<path d="M24.2594 74.1204H37.3592" stroke="white" stroke-miterlimit="10"/>
<path d="M24.2594 78.7191H37.3592" stroke="white" stroke-miterlimit="10"/>
<path d="M24.2594 83.3195H37.3592" stroke="white" stroke-miterlimit="10"/>
<path d="M24.2594 98.6879H37.3592" stroke="white" stroke-miterlimit="10"/>
<path d="M24.2594 100.833H37.3592" stroke="white" stroke-miterlimit="10"/>
<path d="M24.2594 102.977H37.3592" stroke="white" stroke-miterlimit="10"/>
<path d="M36.1216 44.2993H43.18" stroke="white" stroke-miterlimit="10"/>
<path d="M36.1216 47.0021H44.1658" stroke="white" stroke-miterlimit="10"/>
<path d="M36.1216 41.5977H45.6437" stroke="white" stroke-miterlimit="10"/>
<path d="M23.8953 50.5983H31.2425C31.9456 50.5983 32.5156 50.0283 32.5156 49.3251V41.978C32.5156 41.2748 31.9456 40.7048 31.2425 40.7048H23.8953C23.1922 40.7048 22.6222 41.2748 22.6222 41.978V49.3251C22.6222 50.0283 23.1922 50.5983 23.8953 50.5983Z" fill="#3D2FE8"/>
<path d="M27.5696 44.8697C28.3724 44.8697 29.0234 44.2188 29.0234 43.4159C29.0234 42.6131 28.3724 41.9622 27.5696 41.9622C26.7667 41.9622 26.1158 42.6131 26.1158 43.4159C26.1158 44.2188 26.7667 44.8697 27.5696 44.8697Z" fill="#D7E8F0"/>
<path d="M31.2552 49.3392C31.2552 48.363 30.8675 47.4266 30.177 46.7361C29.4867 46.0457 28.5502 45.6578 27.5738 45.6578C26.5974 45.6578 25.6612 46.0457 24.9707 46.7361C24.2803 47.4266 23.8924 48.363 23.8924 49.3392H31.2552Z" fill="#D7E8F0"/>
<path d="M27.2097 115.349L26.1343 117.528C26.1057 117.586 26.0633 117.637 26.0107 117.675C25.9582 117.713 25.897 117.738 25.8327 117.747L23.4315 118.097C23.3567 118.107 23.2862 118.137 23.228 118.185C23.1698 118.233 23.1264 118.297 23.1027 118.368C23.0788 118.44 23.0758 118.517 23.0937 118.59C23.1116 118.663 23.1498 118.73 23.2039 118.783L24.9451 120.48C24.9919 120.525 25.0269 120.58 25.0469 120.642C25.0671 120.704 25.0717 120.77 25.0603 120.834L24.6492 123.231C24.6357 123.305 24.6432 123.381 24.6711 123.451C24.699 123.521 24.7459 123.582 24.8065 123.626C24.8673 123.67 24.9392 123.697 25.0142 123.703C25.0893 123.708 25.1644 123.693 25.231 123.657L27.3832 122.519C27.4407 122.489 27.5047 122.473 27.5696 122.473C27.6344 122.473 27.6985 122.489 27.7559 122.519L29.9082 123.657C29.9746 123.693 30.0497 123.708 30.1248 123.703C30.1998 123.697 30.2717 123.671 30.3325 123.626C30.3931 123.582 30.4399 123.521 30.4675 123.451C30.4951 123.381 30.5023 123.305 30.4885 123.231L30.0789 120.834C30.0675 120.77 30.072 120.704 30.0921 120.642C30.1123 120.58 30.1473 120.525 30.1941 120.48L31.9352 118.783C31.9888 118.73 32.0267 118.664 32.0446 118.591C32.0625 118.518 32.0597 118.442 32.0363 118.371C32.0132 118.3 31.9705 118.236 31.913 118.188C31.8557 118.14 31.786 118.109 31.7119 118.098L29.3064 117.748C29.2421 117.739 29.181 117.715 29.1285 117.676C29.0759 117.638 29.0335 117.588 29.0049 117.529L27.928 115.35C27.8953 115.283 27.8444 115.226 27.781 115.186C27.7175 115.146 27.6441 115.125 27.5693 115.125C27.4945 115.125 27.4211 115.146 27.3575 115.185C27.2939 115.225 27.2427 115.281 27.2097 115.349Z" fill="#D7E8F0"/>
<path d="M43.4901 120.828H35.3165" stroke="#CCDDE2" stroke-miterlimit="10"/>
<path d="M76.4364 125.627H73.031C72.483 125.627 71.9425 125.501 71.4504 125.26C70.9585 125.019 70.5282 124.668 70.1925 124.235C69.8568 123.802 69.6245 123.298 69.5134 122.762C69.4023 122.225 69.4154 121.67 69.5516 121.139L70.7635 116.445H83.0225L75.7067 93.7891H77.3753C78.0757 93.7908 78.7626 93.596 79.3582 93.2272C79.5667 93.1007 79.7618 92.9529 79.94 92.7862C79.9855 92.745 80.031 92.7009 80.0723 92.6596C80.1576 92.5728 80.2359 92.4818 80.3141 92.3908C80.3881 92.2969 80.4564 92.2016 80.5289 92.1063C81.0571 91.3168 81.2702 90.3582 81.1264 89.4192C80.8874 87.8451 80.6456 86.3102 80.4009 84.8146C72.8532 38.3788 64.1276 28.5067 59.7748 26.4085L60.1588 21.4824C60.8186 21.2463 61.3731 20.7836 61.7236 20.1766C61.8232 20.205 61.9256 20.242 62.0337 20.2833C62.9526 20.6175 64.065 20.8267 65.0095 20.4682C66.1717 20.0272 65.4875 18.811 65.4093 17.9333C65.3837 17.727 65.1902 16.4326 65.5899 16.4297H66.4719C66.5246 16.4327 66.5771 16.4208 66.6235 16.3955C66.6699 16.3701 66.7083 16.3324 66.7345 16.2865C66.7606 16.2405 66.7734 16.1882 66.7716 16.1354C66.7696 16.0825 66.7531 16.0313 66.7236 15.9873C65.9346 14.6326 65.546 13.0819 65.6027 11.515C65.5542 11.585 65.5004 11.651 65.442 11.7128C65.496 11.6473 65.5487 11.5819 65.5984 11.515C65.6269 11.4738 65.6568 11.4354 65.6852 11.3941C65.7137 11.3529 65.7393 11.3088 65.7677 11.2632C65.8212 11.1716 65.8687 11.0766 65.91 10.9787C65.9993 10.7863 66.067 10.5844 66.112 10.377C66.2427 9.81358 66.2101 9.22439 66.0181 8.67858C66.0181 8.67858 66.0181 8.67004 66.0181 8.66577C66.0081 8.62893 65.9943 8.59309 65.9768 8.55909C65.9381 8.44557 65.8905 8.33519 65.8346 8.22907C65.8019 8.1679 65.7691 8.10537 65.7322 8.0442C65.7043 7.99527 65.6738 7.9478 65.6411 7.90195C65.5757 7.80665 65.5103 7.71703 65.4391 7.62599C65.3332 7.48765 65.2177 7.35694 65.0935 7.23481C64.24 6.38131 63.0437 5.76253 61.9768 5.38557C61.8701 5.34858 61.7577 5.3116 61.651 5.27888C61.5443 5.24616 61.4775 5.22483 61.3921 5.20064C61.1859 5.13948 60.9796 5.08542 60.7691 5.0399C60.6581 5.01572 60.5472 4.99011 60.4348 4.97447C60.2926 4.94459 60.1503 4.92041 59.9938 4.9005C59.8829 4.88343 59.7719 4.87062 59.6595 4.85924C59.5472 4.84786 59.4334 4.83791 59.3224 4.82937H59.294C57.3523 4.70135 55.4063 5.18357 53.9098 6.55201C53.8316 6.6274 53.7534 6.69426 53.6751 6.78388C53.7121 6.72982 53.7534 6.6715 53.7861 6.6146C53.896 6.44034 53.9912 6.25716 54.0706 6.06694C54.1074 5.98213 54.1393 5.8952 54.1659 5.80662C54.1943 5.71985 54.2185 5.62881 54.2441 5.5392C54.3135 5.26006 54.348 4.97336 54.3465 4.6857C54.3467 4.28436 54.2798 3.88579 54.1488 3.50646C54.1289 3.4524 54.1118 3.39977 54.0919 3.34998C54.0379 3.21311 53.9757 3.07962 53.9056 2.95026C53.8198 2.79764 53.7248 2.65037 53.6211 2.50929C53.2842 2.05398 52.8451 1.68426 52.339 1.42999C51.8329 1.17572 51.2741 1.04402 50.7078 1.04555C50.6168 1.04555 50.53 1.04555 50.439 1.05835C50.3382 1.06269 50.238 1.07361 50.1388 1.09106C49.2351 1.23533 48.4189 1.71474 47.8526 2.43378C47.2864 3.15282 47.0119 4.05874 47.0837 4.97111C47.1554 5.88348 47.5682 6.73534 48.2398 7.35704C48.9115 7.97874 49.7926 8.32466 50.7078 8.3258C51.3193 8.32025 51.9192 8.15823 52.4504 7.85501H52.4589C52.5778 7.78948 52.6932 7.71778 52.8046 7.64021C52.8306 7.62413 52.8558 7.60654 52.88 7.58758C52.9653 7.52073 53.0435 7.45529 53.1232 7.38559C51.5585 9.35568 51.008 12.0798 51.5186 14.5279C51.704 15.4018 51.9634 16.2585 52.2939 17.0883C52.6438 17.9746 53.2754 18.6175 53.3906 19.5948C53.4774 20.3487 51.9681 24.6276 51.4859 26.5081C50.53 27.353 49.7135 28.5437 49.0677 29.979C49.0976 29.8965 49.1303 29.8182 49.1587 29.7357C49.0805 29.8993 49.0065 30.0686 48.9311 30.2421C48.7744 30.6044 48.6372 30.9748 48.52 31.3517C48.222 32.2881 48.0082 33.2493 47.8813 34.2237C47.8358 34.5494 47.7946 34.8752 47.7618 35.2052L47.749 35.3474C47.7482 35.3723 47.7453 35.3971 47.7405 35.4214C47.7248 35.5935 47.712 35.7671 47.6992 35.9406C47.6822 36.1583 47.6665 36.3773 47.658 36.5964C47.6495 36.8155 47.6381 37.0075 47.6253 37.218V37.2593C47.6125 37.4982 47.6039 37.7372 47.6011 37.9805V38.0672C47.5798 38.9293 47.584 39.7984 47.6011 40.6647C47.621 42.0374 47.6623 43.4059 47.6623 44.7245C47.6623 44.9265 47.6623 45.1285 47.6623 45.3262C47.6623 45.5239 47.6623 45.7259 47.6537 45.9194C47.6452 46.1129 47.6452 46.2949 47.6381 46.477C47.6381 46.6833 47.621 46.8853 47.6125 47.0873C47.6125 47.1072 47.6125 47.1243 47.6125 47.1442C47.6139 47.1651 47.6139 47.186 47.6125 47.2068V47.2352C47.6039 47.3959 47.5911 47.5567 47.5783 47.7174C47.1301 53.9006 46.1439 60.0329 44.6309 66.0448C42.5498 74.2056 39.2155 82.0251 37.5455 90.2826C37.15 92.2243 36.9239 94.4164 37.5085 96.2386C37.571 96.4365 37.6441 96.6306 37.7276 96.8204C37.7688 96.9143 37.8129 97.0096 37.8584 97.1049C37.9324 97.2472 38.0121 97.3766 38.0903 97.5089C38.1685 97.6412 38.2624 97.7678 38.3577 97.8915C38.4189 97.9741 38.49 98.0523 38.5597 98.1348C38.6294 98.2173 38.702 98.2913 38.7788 98.3652C39.8144 99.388 41.2369 99.8503 42.6878 100.118L36.4801 108.638L40.3051 110.476L40.5811 110.609L40.527 110.691L40.3663 110.613L32.6848 120.626L45.5427 126.962C45.8024 127.093 46.0934 127.15 46.3834 127.127C46.7115 127.151 47.0391 127.076 47.3241 126.912C47.6091 126.748 47.8384 126.502 47.9823 126.206C48.0974 125.979 48.1569 125.727 48.1559 125.472C48.1553 125.162 48.0682 124.859 47.9044 124.596C47.7405 124.333 47.5064 124.121 47.2284 123.984L44.3763 122.579C43.8848 122.337 43.4552 121.986 43.1204 121.552C42.7855 121.119 42.5544 120.614 42.4446 120.078C42.3347 119.541 42.3491 118.986 42.4867 118.456C42.6242 117.926 42.8814 117.434 43.2383 117.018L45.9339 113.63L46.6011 113.502L54.6026 117.343L59.9327 110.92V116.456H64.3765L61.8815 128.942H76.4364C76.876 128.942 77.2974 128.767 77.6083 128.456C77.9189 128.146 78.0936 127.724 78.0936 127.284C78.0936 126.845 77.9189 126.423 77.6083 126.113C77.2974 125.802 76.876 125.627 76.4364 125.627Z" fill="white"/>
<path d="M61.624 33.1202C63.7179 42.291 64.7023 55.9156 65.1561 68.2557C64.698 55.9256 63.7094 42.3308 61.624 33.1757C60.5728 28.6009 59.0835 26.4288 57.3324 25.5625C57.4931 25.6279 57.6581 25.7048 57.8231 25.7858C57.8318 25.7924 57.8413 25.7976 57.8516 25.8015C59.3807 26.8299 60.6795 28.9978 61.624 33.1202Z" fill="#189DC7"/>
<path d="M65.4861 82.8446C65.4121 82.7465 65.3438 82.6753 65.3438 82.6753C65.3997 82.5069 65.444 82.3348 65.4761 82.1604C65.4861 82.3908 65.4861 82.6184 65.4861 82.8446Z" fill="#189DC7"/>
<path d="M62.1631 18.639C62.1633 19.2322 61.9808 19.811 61.6405 20.2968C61.3002 20.7826 60.8187 21.1518 60.2613 21.3545C59.9463 21.4718 59.6129 21.5309 59.2769 21.5295C59.1025 21.5305 58.9285 21.5134 58.7577 21.4783C58.2894 21.2789 57.8823 20.9592 57.5774 20.5517C57.2725 20.1443 57.0809 19.6633 57.0218 19.1578C56.9626 18.6524 57.0383 18.1401 57.241 17.6734C57.4437 17.2066 57.7662 16.8016 58.1759 16.4996C58.6715 16.1279 59.2748 15.9282 59.8943 15.9306C60.0687 15.9296 60.2426 15.9468 60.4135 15.9818C60.9334 16.2046 61.3765 16.5751 61.6874 17.0475C61.9985 17.5199 62.164 18.0734 62.1631 18.639Z" fill="black"/>
<path d="M65.5145 86.6783C65.5145 86.4891 65.5145 86.2956 65.506 86.1007C66.368 85.9855 65.5145 86.4919 65.5145 86.6783Z" fill="#3D2FE8"/>
<path d="M72.6995 89.675C72.3781 87.0946 72.1305 84.4972 71.9001 81.8997C71.7024 79.665 71.5047 77.4302 71.2614 75.2012C70.0494 64.0005 68.6924 52.7927 66.8915 41.6716C66.038 36.4084 64.4633 30.9461 60.2172 27.3756C59.4901 26.7665 58.6965 26.2416 57.8516 25.8109C59.3808 26.8379 60.6795 29.0058 61.624 33.1282C62.9967 39.1467 63.9 47.0814 64.469 55.319C63.8801 47.1027 62.9853 39.1922 61.624 33.1865C60.5728 28.6118 59.0835 26.4396 57.3324 25.5733C57.4931 25.6387 57.6581 25.7156 57.8231 25.7966C57.6674 25.6914 57.5048 25.5964 57.3366 25.5121L57.311 25.5008C57.3086 25.4998 57.3059 25.4992 57.3032 25.4992C57.3005 25.4992 57.2978 25.4998 57.2954 25.5008C56.7952 25.2871 56.2692 25.1402 55.7306 25.0641H55.7221C55.2626 24.9972 54.7961 24.9972 54.3366 25.0641C54.4646 25.0641 54.5969 25.0641 54.7292 25.0641C61.1176 25.3969 61.0195 31.1936 61.2954 43.3032C61.4889 51.8453 63.9697 68.3747 65.4207 77.3648C65.4121 77.0888 65.4079 76.8129 65.3993 76.5326C65.5273 77.3648 65.6056 78.1073 65.6426 78.7617C66.1248 81.7091 66.442 83.5569 66.442 83.5569L62.1745 83.4986L62.6937 85.8599H64.6852C64.7003 85.8584 64.7157 85.8584 64.7307 85.8599C64.9434 85.8589 65.1478 85.9417 65.2997 86.0904C65.3865 86.0733 65.4648 86.0619 65.5302 86.0534C65.5302 86.2668 65.5302 86.4801 65.5302 86.6921V87.1942C65.5387 91.7049 65.4975 95.493 65.4761 96.7918C65.4736 96.9581 65.4054 97.1165 65.2867 97.2329C65.1679 97.3494 65.008 97.4141 64.8417 97.4134H48.2597C48.1766 97.4132 48.0943 97.3966 48.0176 97.3646C47.9408 97.3327 47.8712 97.2859 47.8125 97.227C47.7539 97.168 47.7074 97.0982 47.6758 97.0214C47.6442 96.9444 47.628 96.862 47.6281 96.779V95.7377H47.2697V86.7476C47.2717 86.6136 47.3051 86.482 47.3674 86.3633C47.4297 86.2447 47.519 86.1424 47.6281 86.0648V47.1013C47.6168 47.2948 47.6039 47.4896 47.5911 47.6788C47.1431 53.8624 46.1568 59.9953 44.6437 66.0076C42.5626 74.1642 39.2283 81.9879 37.5583 90.2412C36.9893 93.0279 36.7674 96.3209 38.7945 98.3209C40.1302 99.6439 42.1131 100.028 43.9766 100.274C52.3831 101.407 60.9162 101.198 69.2571 99.6552C69.9826 99.5201 70.7379 99.3707 71.3311 98.9184C74.0722 96.8671 73.0537 92.5186 72.6995 89.675ZM58.8118 85.8528L54.6979 85.6963L54.2996 83.1984H54.412C49.0065 66.2708 47.8685 38.8366 47.8685 38.8366C47.7832 37.242 47.9269 33.0457 49.1843 29.6985C49.1061 29.8621 49.0321 30.0314 48.9582 30.2049C48.8004 30.567 48.6627 30.9374 48.5456 31.3145C48.1479 32.5933 47.8909 33.9117 47.7789 35.2463C47.6964 36.1125 47.6509 36.9902 47.6367 37.8807V40.7982C47.6708 42.9505 47.7405 45.0814 47.6367 47.0444V86.0064C47.7778 85.9069 47.9462 85.8532 48.1189 85.8528H58.8118Z" fill="#189DC7"/>
<path d="M61.624 33.1202C63.7179 42.291 64.7023 55.9156 65.1561 68.2557C64.698 55.9256 63.7094 42.3308 61.624 33.1757C60.5728 28.6009 59.0835 26.4288 57.3324 25.5625C57.4931 25.6279 57.6581 25.7048 57.8231 25.7858C57.8318 25.7924 57.8413 25.7976 57.8516 25.8015C59.3807 26.8299 60.6795 28.9978 61.624 33.1202Z" fill="#189DC7"/>
<path d="M65.4861 82.8446C65.4121 82.7465 65.3438 82.6753 65.3438 82.6753C65.3997 82.5069 65.444 82.3348 65.4761 82.1604C65.4861 82.3908 65.4861 82.6184 65.4861 82.8446Z" fill="#189DC7"/>
<path d="M77.4023 93.7564H75.7323L71.8987 81.8999C71.7009 79.6652 71.5032 77.4305 71.26 75.2014C70.048 64.0007 68.6924 52.7929 66.8901 41.6719C66.0366 36.4087 64.4633 30.9463 60.2172 27.3758C59.4899 26.7665 58.6958 26.2416 57.8502 25.8111C57.8502 25.8111 58.5771 25.7784 59.8132 26.3801C64.3026 28.5451 73.4577 38.9976 81.1619 89.3965C81.2416 89.9369 81.2039 90.4879 81.0516 91.0126C80.8994 91.537 80.6358 92.0225 80.2791 92.4362C79.9225 92.8499 79.481 93.1819 78.9845 93.4096C78.4881 93.6375 77.9485 93.7557 77.4023 93.7564Z" fill="#3D2FE8"/>
<path d="M77.9016 127.252C77.9014 127.47 77.8582 127.685 77.7747 127.887C77.691 128.088 77.5686 128.271 77.4142 128.425C77.26 128.578 77.0768 128.7 76.8754 128.783C76.674 128.867 76.458 128.909 76.2401 128.909H61.9071L64.3993 116.411H70.8005L69.5885 121.105C69.4524 121.636 69.4393 122.191 69.5504 122.727C69.6615 123.264 69.8938 123.768 70.2295 124.201C70.5652 124.634 70.9955 124.984 71.4874 125.226C71.9795 125.467 72.52 125.593 73.0679 125.593H76.2501C76.69 125.593 77.1119 125.767 77.4233 126.078C77.7349 126.389 77.9104 126.81 77.9115 127.25L77.9016 127.252Z" fill="#3D2FE8"/>
<path d="M47.9496 125.425C47.9506 125.68 47.8911 125.932 47.776 126.159C47.6807 126.355 47.5475 126.53 47.3841 126.674C47.2208 126.818 47.0307 126.928 46.8245 126.999C46.6183 127.069 46.4004 127.098 46.183 127.083C45.9658 127.069 45.7534 127.011 45.5584 126.914L32.7019 120.579L40.3834 110.566L46.1572 113.34L43.0278 116.971C42.6709 117.387 42.4137 117.879 42.2761 118.409C42.1386 118.939 42.1242 119.494 42.234 120.03C42.3438 120.567 42.575 121.071 42.9098 121.505C43.2447 121.939 43.6743 122.29 44.1658 122.532L47.0107 123.941C47.2904 124.076 47.5265 124.287 47.6925 124.549C47.8585 124.811 47.9476 125.115 47.9496 125.425Z" fill="#3D2FE8"/>
<path d="M47.3507 95.5219C47.3507 95.5219 47.6253 95.9487 47.6253 96.7694C47.6253 97.5902 50.1744 97.4451 50.5115 97.4451L63.634 97.411C63.634 97.411 65.4832 97.8875 65.4832 96.0369C65.4832 94.1862 66.0522 86.5147 65.2741 86.1406C64.496 85.7665 59.6809 86.0652 59.6809 86.0652L48.7917 85.9087C48.7917 85.9087 47.1857 84.913 47.2668 87.9984C47.3479 91.0837 47.3507 95.5219 47.3507 95.5219Z" fill="#D7E8F0"/>
<path d="M66.149 10.3287C66.0591 10.7399 65.8835 11.1275 65.634 11.4667C65.2134 12.017 64.6585 12.45 64.0224 12.7241C62.5543 13.4041 60.6582 13.5079 59.3281 13.1936C58.9729 13.1048 58.6099 13.0515 58.2442 13.0342C57.8174 13.0342 57.412 13.1125 57.0991 13.3998C56.1588 14.2661 56.6581 15.3828 57.3992 16.232C57.022 16.5095 56.7156 16.8721 56.5046 17.2902C56.2938 17.7084 56.1846 18.1704 56.1859 18.6389C56.0887 18.9292 55.9233 19.1922 55.7036 19.4056C55.5799 19.4056 55.2769 19.8423 55.1716 19.8323C54.3067 19.6801 53.9568 20.1083 53.6723 19.4056C53.082 17.8953 52.7116 16.3082 52.5727 14.6929C52.3892 12.828 52.3167 10.7298 53.1417 9.0029C53.7241 7.84516 54.6177 6.87276 55.7221 6.19483C56.8223 5.47764 58.0577 4.99352 59.3523 4.77234C60.257 4.83629 61.1486 5.02391 62.0024 5.32996C64.0963 6.07392 66.7094 7.73112 66.149 10.3287Z" fill="#3D2FE8"/>
<path d="M54.3679 4.64016C54.3693 5.39194 54.136 6.12542 53.7008 6.73833C53.5059 6.9319 53.3231 7.13711 53.1531 7.35285C52.951 7.53504 52.7281 7.69261 52.4888 7.82227C51.644 7.95516 50.7793 7.78611 50.0467 7.34481C49.3141 6.90351 48.7604 6.21818 48.4831 5.40921C48.2055 4.60024 48.222 3.71938 48.5296 2.92135C48.837 2.1233 49.4159 1.45914 50.1644 1.04552C50.3526 1.01585 50.5428 1.00063 50.7334 1C51.6979 1.00151 52.6224 1.38569 53.3038 2.06819C53.9851 2.75069 54.3679 3.67571 54.3679 4.64016Z" fill="#3D2FE8"/>
<path d="M48.5371 31.3699C46.9425 36.3316 47.9681 42.6218 47.5911 47.6774C47.143 53.8617 46.1564 59.9949 44.6423 66.0076C42.5612 74.1627 39.2212 81.985 37.5569 90.2383C36.9879 93.0278 36.766 96.3209 38.7916 98.3209C40.1302 99.6424 42.1117 100.028 43.9752 100.274C52.3831 101.407 60.9177 101.198 69.2599 99.6524C69.9883 99.5172 70.7422 99.3593 71.3354 98.9155C74.0708 96.8685 73.0537 92.5143 72.6967 89.6693C72.095 84.8641 71.7806 80.0092 71.26 75.1926C70.048 63.9933 68.6924 52.7827 66.8901 41.6617C66.0366 36.3984 64.4619 30.9375 60.2157 27.3685C59.4886 26.7589 58.6944 26.234 57.8487 25.8037C53.9084 23.7909 50.7363 26.0555 48.9496 30.2632C48.796 30.6231 48.6594 30.993 48.5371 31.3699Z" stroke="black" stroke-miterlimit="10"/>
<path d="M47.7718 35.3031C47.7078 36.067 49.217 61.1427 52.2982 74.7673C53.0236 77.9841 53.6585 80.8604 54.2029 83.3961C58.6126 83.3506 66.5131 83.5497 66.5131 83.5497C66.5131 83.5497 61.1475 51.5721 61.2997 40.0656" stroke="black" stroke-miterlimit="10"/>
<path d="M47.6253 37.9381V40.7987V47.1957V86.0653" stroke="black" stroke-miterlimit="10"/>
<path d="M65.5117 86.6807C65.5259 91.4104 65.479 95.4333 65.4577 96.7804C65.4558 96.9464 65.3884 97.105 65.27 97.2213C65.1517 97.3378 64.9921 97.4027 64.8261 97.402H48.2583C48.0906 97.4016 47.9297 97.3348 47.8111 97.2162C47.6924 97.0976 47.6257 96.9368 47.6253 96.769V95.7377" stroke="black" stroke-miterlimit="10"/>
<path d="M55.7136 25.1084C56.2626 25.1582 56.7985 25.3061 57.2954 25.5451C57.2954 25.5451 57.3025 25.5451 57.3053 25.5451C59.0678 26.3986 60.5685 28.5736 61.6197 33.1711C64.8716 47.4259 65.4605 72.432 65.5117 86.674" stroke="black" stroke-miterlimit="10"/>
<path d="M64.6909 85.9099H48.1103C47.8874 85.9103 47.6739 85.999 47.5163 86.1566C47.3587 86.3142 47.2701 86.5278 47.2697 86.7506V95.7379H63.9128V87.3566" stroke="black" stroke-miterlimit="10"/>
<path d="M63.9057 87.3621V86.695C63.9084 86.4845 63.9942 86.2835 64.1445 86.1361C64.2949 85.9887 64.4975 85.9068 64.708 85.9083C64.9208 85.9079 65.1251 85.9913 65.277 86.1402C65.4235 86.2823 65.5078 86.4766 65.5117 86.6808" stroke="black" stroke-miterlimit="10"/>
<path d="M65.5145 87.1829H63.9057" stroke="black" stroke-miterlimit="10"/>
<path d="M54.2029 83.3961L54.7264 85.9082H62.4989L62.001 83.4744" stroke="black" stroke-miterlimit="10"/>
<path d="M42.7006 100.074L36.4957 108.593L54.6197 117.3L59.9497 110.875" stroke="black" stroke-miterlimit="10"/>
<path d="M69.2599 99.6511L59.9497 110.875V116.411H83.0496L75.7323 93.7563L71.8972 81.897" stroke="black" stroke-miterlimit="10"/>
<path d="M64.6155 116.41L62.1233 128.91H76.4634C76.9031 128.91 77.3246 128.735 77.6353 128.424C77.9461 128.113 78.1206 127.691 78.1206 127.252C78.1206 126.812 77.9461 126.39 77.6353 126.08C77.3246 125.769 76.9031 125.594 76.4634 125.593H73.2785C72.7309 125.593 72.1907 125.467 71.6992 125.226C71.2076 124.984 70.7777 124.634 70.4426 124.201C70.1073 123.768 69.8756 123.264 69.7651 122.728C69.6545 122.191 69.668 121.637 69.8047 121.107L71.0153 116.412" stroke="black" stroke-miterlimit="10"/>
<path d="M40.6807 110.464L32.9224 120.578L45.7789 126.916C46.1738 127.11 46.6295 127.14 47.0462 126.998C47.4628 126.857 47.8062 126.555 48.0008 126.161C48.1951 125.766 48.2247 125.31 48.083 124.894C47.9413 124.478 47.6401 124.135 47.2455 123.94L44.3905 122.532C43.8988 122.29 43.469 121.939 43.134 121.505C42.799 121.071 42.5677 120.567 42.4579 120.03C42.3481 119.493 42.3626 118.938 42.5003 118.408C42.638 117.878 42.8953 117.386 43.2525 116.97L46.4161 113.293" stroke="black" stroke-miterlimit="10"/>
<path d="M57.8558 25.8028C57.8558 25.8028 71.3425 25.0916 81.1676 89.3811C81.25 89.9223 81.2144 90.4751 81.0634 91.0013C80.9124 91.5276 80.6494 92.0151 80.2925 92.4303C79.9356 92.8456 79.4932 93.1788 78.9956 93.4072C78.498 93.6356 77.9569 93.7538 77.4094 93.7538H75.7309" stroke="black" stroke-miterlimit="10"/>
<path d="M51.513 26.4728C51.9966 24.5937 53.5044 20.3106 53.4177 19.5581C53.3039 18.5808 52.6751 17.9364 52.3238 17.0516C51.9926 16.2219 51.7332 15.3651 51.5485 14.4912C50.9582 11.6661 51.7761 8.47828 53.9397 6.50237C56.1403 4.49097 59.3025 4.37717 62.0038 5.33024C64.1006 6.06851 66.7123 7.72429 66.1504 10.3233C65.5615 13.0487 61.6126 13.7273 59.3224 13.1981C58.6112 13.0345 57.6837 12.8596 57.0934 13.4044C56.156 14.2678 56.6538 15.3831 57.3921 16.2323" stroke="black" stroke-miterlimit="10"/>
<path d="M61.7592 20.1351C61.8587 20.1635 61.9611 20.2005 62.0678 20.2418C62.9882 20.5761 64.1006 20.7852 65.0451 20.4267C66.2073 19.9857 65.5231 18.7695 65.4448 17.8918C65.4192 17.6856 65.2258 16.3911 65.6255 16.3883H66.5074C66.5602 16.3911 66.6127 16.3793 66.6591 16.354C66.7054 16.3286 66.744 16.2908 66.77 16.2449C66.7962 16.1989 66.809 16.1467 66.8072 16.0938C66.8052 16.041 66.7887 15.9898 66.7592 15.9459C65.9686 14.5891 65.5798 13.0356 65.6383 11.4664" stroke="black" stroke-miterlimit="10"/>
<path d="M59.1759 21.6262C60.8257 21.6262 62.1632 20.2888 62.1632 18.639C62.1632 16.9892 60.8257 15.6517 59.1759 15.6517C57.5261 15.6517 56.1887 16.9892 56.1887 18.639C56.1887 20.2888 57.5261 21.6262 59.1759 21.6262Z" stroke="black" stroke-miterlimit="10"/>
<path d="M50.7334 8.2791C52.7431 8.2791 54.3722 6.64994 54.3722 4.64032C54.3722 2.63071 52.7431 1.00159 50.7334 1.00159C48.7239 1.00159 47.0947 2.63071 47.0947 4.64032C47.0947 6.64994 48.7239 8.2791 50.7334 8.2791Z" stroke="black" stroke-miterlimit="10"/>
<path d="M60.1944 21.444L59.8146 26.3672" stroke="black" stroke-miterlimit="10"/>
<path d="M53.4177 19.5578C53.4177 19.5578 55.4774 20.5721 56.1887 18.6389" stroke="black" stroke-miterlimit="10"/>
<path d="M52.5059 11.9688C52.5059 12.2291 52.4931 12.468 52.4803 12.6942C52.4845 12.451 52.4888 12.212 52.5059 11.9688Z" fill="#3D2FE8"/>
<path d="M8.69879 128.909H92.9345" stroke="black" stroke-miterlimit="10"/>
</svg>
