<svg width="122" height="91" viewBox="0 0 122 91" fill="none" xmlns="http://www.w3.org/2000/svg">
<path d="M28.372 58.8641C32.832 57.6215 37.0467 53.6415 37.0933 48.8428C37.176 40.2375 32.5187 32.4428 33.7693 23.8188C34.6533 17.6855 37.4307 10.6081 42.1027 5.9868C44.7533 3.36413 48.0133 1.5308 51.888 1.1148C60.516 0.181468 69.7973 5.0308 74.376 12.3228C76.1093 15.0921 77.1053 18.2455 77.1053 21.4508V21.4948C77.1016 22.8665 76.9137 24.2316 76.5467 25.5535C76.432 25.9655 76.3027 26.3828 76.1733 26.8041C76.1647 26.8243 76.158 26.8452 76.1533 26.8668C76.1133 26.9881 76.0747 27.1148 76.0347 27.2361C75.368 29.3801 74.7013 31.5588 75.368 33.6468C75.404 33.7615 75.4467 33.8748 75.4893 33.9855C76.108 35.5428 77.4293 36.7695 78.908 37.5761C81.2787 38.8695 83.8987 39.5188 86.5253 40.1441C89.8493 40.9348 93.18 41.6975 96.0267 43.6881C100.719 46.9681 103.36 52.4455 104.011 58.0428C104.661 63.6401 103.704 69.4681 101.808 74.8201" stroke="#CCDDE2" stroke-miterlimit="10"/>
<path d="M7.26667 89.664C1.27601 82.5107 0.964006 70.8254 9.01867 65.1427" stroke="#CCDDE2" stroke-miterlimit="10"/>
<path d="M63.404 3.052V13.2707" stroke="#CCDDE2" stroke-miterlimit="10"/>
<path d="M63.404 17.176V19.1454" stroke="#CCDDE2" stroke-miterlimit="10"/>
<path d="M76.5467 25.5587C75.8027 28.2253 74.5253 31.0133 75.3707 33.652C75.4053 33.7666 75.4493 33.88 75.492 33.9907H45.476C44.5813 33.9907 43.7233 33.6352 43.0907 33.0025C42.4581 32.37 42.1027 31.512 42.1027 30.6173V5.99199C44.7533 3.36932 48.0133 1.53599 51.888 1.11999C60.516 0.186656 69.7973 5.03599 74.376 12.328C76.8573 16.2773 77.8133 21.02 76.5467 25.5587Z" stroke="#CCDDE2" stroke-miterlimit="10"/>
<g opacity="0.67">
<path opacity="0.67" d="M32.164 44.14C32.164 44.148 32.164 44.156 32.156 44.164C32.1013 44.376 32.0467 44.5894 31.9987 44.8014C31.9827 44.8681 31.968 44.9347 31.956 44.9934C31.904 45.2147 31.8573 45.4347 31.8227 45.66C31.8219 45.662 31.8213 45.664 31.8213 45.666C31.8213 45.6682 31.8219 45.6702 31.8227 45.672C31.7827 45.884 31.748 46.092 31.716 46.3054C31.7 46.388 31.688 46.4707 31.68 46.552C31.6453 46.7654 31.6213 46.9734 31.5973 47.1854C31.464 48.3934 31.7827 49.7427 31.4333 50.9187C31.2013 51.6854 30.568 52.3267 29.868 52.952C29.7613 53.0454 29.6507 53.14 29.5453 53.2387L29.2147 53.5254C29.0533 53.6707 28.892 53.816 28.7387 53.9627C28.688 54.0094 28.636 54.056 28.5893 54.108C28.5427 54.16 28.4907 54.2067 28.44 54.2574C27.964 54.7534 27.5867 55.28 27.472 55.8854C27.4301 56.1084 27.4247 56.3367 27.456 56.5614C27.4601 56.6095 27.4681 56.6572 27.48 56.704C27.4856 56.7519 27.4949 56.7991 27.508 56.8454C27.516 56.876 27.524 56.908 27.5307 56.9387C27.5627 57.0574 27.5987 57.1747 27.6413 57.2934C27.7716 57.6246 27.9185 57.949 28.0813 58.2654C28.1133 58.328 28.1453 58.3867 28.172 58.4494C28.3293 58.756 28.4827 59.0667 28.6053 59.3827C28.632 59.4534 28.656 59.524 28.684 59.596C28.712 59.668 28.7187 59.7134 28.7387 59.772L28.7627 59.8667C28.7813 59.9414 28.7973 60.016 28.8133 60.0907C28.8293 60.1654 28.8333 60.2134 28.8413 60.272C28.8413 60.288 28.8413 60.3067 28.8413 60.3267C28.864 60.5327 28.8545 60.741 28.8133 60.944C28.7027 61.5267 28.3493 62.0214 27.88 62.4894C27.4773 62.8723 27.0503 63.2286 26.6013 63.556C26.3733 63.7294 26.1453 63.9014 25.9253 64.0787C25.7053 64.256 25.4933 64.4334 25.292 64.612C25.2453 64.66 25.1933 64.7067 25.1467 64.7534C24.9164 64.975 24.712 65.2218 24.5373 65.4894C23.672 66.8307 24.0773 68.368 23.628 69.8001C23.5639 70.0075 23.4813 70.2087 23.3813 70.4015C23.3481 70.4722 23.3097 70.5403 23.2667 70.6054C23.2355 70.6704 23.1984 70.7324 23.156 70.7907C23.1037 70.8794 23.0464 70.965 22.984 71.0467C22.924 71.1294 22.8613 71.212 22.7947 71.2907C22.7532 71.3456 22.7087 71.3982 22.6613 71.448C22.6173 71.5027 22.5707 71.5534 22.52 71.6054C22.5055 71.6212 22.4895 71.6355 22.472 71.648C22.4053 71.7227 22.3347 71.7935 22.26 71.86C22.1347 71.9787 21.9933 72.096 21.86 72.2067C21.7933 72.2614 21.7267 72.3135 21.652 72.3682C21.632 72.3842 21.612 72.396 21.5893 72.4147C21.5667 72.4334 21.5493 72.4427 21.5253 72.4587C21.4707 72.4974 21.416 72.5374 21.3573 72.572C21.3333 72.592 21.3053 72.608 21.2827 72.6241L21.172 72.6947C21.132 72.7214 21.0893 72.7454 21.0467 72.7694C20.96 72.824 20.8693 72.8787 20.78 72.9307C20.7133 72.9654 20.6467 73.0054 20.572 73.04C20.5081 73.078 20.4423 73.1123 20.3747 73.1427C20.316 73.1747 20.2573 73.2014 20.1947 73.2294C20.104 73.272 20.0173 73.3121 19.928 73.3507C19.8387 73.3894 19.7427 73.4294 19.6533 73.4654L19.428 73.548C19.3573 73.5787 19.2867 73.6027 19.216 73.6267L19.1773 73.6387C19.044 73.6854 18.9013 73.728 18.764 73.772C18.7251 73.7848 18.6855 73.7951 18.6453 73.8027C18.6067 73.8187 18.5627 73.8267 18.524 73.8387C18.4413 73.772 18.3547 73.7054 18.268 73.6267C18.2583 73.6198 18.2493 73.6118 18.2413 73.6027C18.2413 73.6027 18.2333 73.6027 18.2333 73.5947C18.2333 73.5867 18.2253 73.5947 18.2213 73.5867C18.1773 73.548 18.1387 73.508 18.088 73.4694C17.928 73.32 17.7627 73.1507 17.5973 72.9654L17.4987 72.856C17.4867 72.844 17.4747 72.8281 17.4627 72.816C17.4473 72.7952 17.4304 72.7757 17.412 72.7574C17.2707 72.5961 17.1333 72.4227 16.9987 72.2454C16.94 72.1787 16.8893 72.112 16.8413 72.0414C16.8136 72.0094 16.7887 71.975 16.7667 71.9387C16.708 71.86 16.6533 71.7814 16.5987 71.7027C16.5747 71.672 16.5547 71.644 16.5347 71.6134L16.4413 71.48C16.4333 71.472 16.4293 71.46 16.4213 71.4534L16.2 71.144C16.8085 70.1304 17.3036 69.0528 17.676 67.9307C17.7027 67.848 17.7227 67.7654 17.7427 67.6827C17.7796 67.522 17.8059 67.359 17.8213 67.1947V67.1747C17.8479 66.8138 17.8331 66.451 17.7773 66.0934C17.7261 65.7574 17.658 65.424 17.5733 65.0947C17.5293 64.9254 17.4867 64.76 17.44 64.5921L17.3067 64.088C17.1959 63.6742 17.1103 63.2538 17.0507 62.8294C17.044 62.7787 17.04 62.7267 17.036 62.6761L17.024 62.5627C17.024 62.5067 17.016 62.452 17.012 62.3934C17.008 62.3347 17.012 62.2947 17.012 62.248V62.228C17.012 62.1094 17.004 61.992 17.004 61.8774C17.004 61.7627 17.004 61.6494 17.012 61.536C17.012 61.484 17.012 61.4294 17.02 61.3787C17.02 61.288 17.028 61.1974 17.036 61.112C17.044 61.0267 17.048 60.9307 17.0547 60.8454C17.0613 60.76 17.0707 60.664 17.0827 60.5787C17.0947 60.4934 17.1027 60.3974 17.1107 60.312C17.1413 60.0454 17.1733 59.7694 17.2053 59.4974C17.2053 59.4814 17.2053 59.4614 17.2053 59.4467C17.224 59.2854 17.244 59.12 17.26 58.9587V58.9507C17.276 58.7854 17.2907 58.6241 17.3027 58.4587C17.3009 58.4459 17.3009 58.433 17.3027 58.42C17.3151 58.2707 17.3231 58.1214 17.3267 57.972C17.3267 57.944 17.3267 57.916 17.3267 57.8894V57.8694C17.3267 57.7667 17.3267 57.668 17.3267 57.5667C17.5187 57.4054 17.716 57.256 17.92 57.1067C18.4568 56.7218 18.9693 56.3042 19.4547 55.856C19.548 55.7694 19.6307 55.6787 19.7133 55.5894C20.4413 54.772 20.772 53.8707 20.976 52.9347C21.2947 51.4987 21.3187 49.9934 22.0347 48.62C22.0933 48.5067 22.156 48.396 22.2267 48.2867C22.306 48.1556 22.3928 48.0292 22.4867 47.908C22.6653 47.6731 22.8595 47.4504 23.068 47.2414C23.4439 46.8722 23.8537 46.5391 24.292 46.2467C24.5667 46.0614 24.8613 45.888 25.164 45.7227C25.4667 45.5574 25.7853 45.408 26.112 45.2707C26.4387 45.1334 26.7853 45.004 27.1347 44.8854C27.2533 44.8467 27.3707 44.8067 27.4893 44.772C27.4893 44.772 27.4893 44.772 27.4973 44.772C27.8507 44.6694 28.216 44.5747 28.5867 44.492C28.708 44.4694 28.8333 44.4414 28.96 44.4174C30.0145 44.2074 31.0891 44.1143 32.164 44.14Z" fill="#3D2FE8"/>
<path opacity="0.67" d="M32.164 44.14C32.164 44.148 32.164 44.156 32.156 44.164C32.1013 44.376 32.0467 44.5894 31.9987 44.8014C31.9827 44.8681 31.968 44.9347 31.956 44.9934C31.904 45.2147 31.8573 45.4347 31.8227 45.66C31.8219 45.662 31.8213 45.664 31.8213 45.666C31.8213 45.6682 31.8219 45.6702 31.8227 45.672C31.7827 45.884 31.748 46.092 31.716 46.3054C31.7 46.388 31.688 46.4707 31.68 46.552C31.6493 46.7654 31.6213 46.9734 31.5973 47.1854C31.464 48.3934 31.7827 49.7427 31.4333 50.9187C31.2013 51.6854 30.568 52.3267 29.868 52.952C29.7613 53.0454 29.6507 53.14 29.5453 53.2387L29.2147 53.5254C29.0533 53.6707 28.892 53.816 28.7387 53.9627C28.688 54.0094 28.636 54.056 28.5893 54.108C28.5427 54.16 28.4907 54.2067 28.44 54.2574C27.964 54.7534 27.5867 55.28 27.472 55.8854C27.4301 56.1084 27.4247 56.3367 27.456 56.5614C27.4601 56.6095 27.4681 56.6572 27.48 56.704C27.4856 56.7519 27.4949 56.7991 27.508 56.8454C27.516 56.876 27.524 56.908 27.5307 56.9387C27.5627 57.0574 27.5987 57.1747 27.6413 57.2934C27.7716 57.6246 27.9185 57.949 28.0813 58.2654C28.1133 58.328 28.1453 58.3867 28.172 58.4494C28.3293 58.756 28.4827 59.0667 28.6053 59.3827C28.632 59.4534 28.656 59.524 28.684 59.596C28.712 59.668 28.7187 59.7134 28.7387 59.772L28.7627 59.8667C28.7813 59.9414 28.7973 60.016 28.8133 60.0907C28.8293 60.1654 28.8333 60.2134 28.8413 60.272C28.8413 60.288 28.8413 60.3067 28.8413 60.3267C28.864 60.5327 28.8545 60.741 28.8133 60.944C28.7027 61.5267 28.3493 62.0214 27.88 62.4894C27.4773 62.8723 27.0503 63.2286 26.6013 63.556C26.3733 63.7294 26.1453 63.9014 25.9253 64.0787C25.7053 64.256 25.4933 64.4334 25.292 64.612C25.2453 64.66 25.1933 64.7067 25.1467 64.7534C24.9164 64.975 24.712 65.2218 24.5373 65.4894C23.672 66.8307 24.0773 68.368 23.628 69.8001C23.5639 70.0075 23.4813 70.2087 23.3813 70.4015C23.3481 70.4722 23.3097 70.5403 23.2667 70.6054C23.2355 70.6704 23.1984 70.7324 23.156 70.7907C23.1037 70.8794 23.0464 70.965 22.984 71.0467C22.924 71.1294 22.8613 71.212 22.7947 71.2907C22.7532 71.3456 22.7087 71.3982 22.6613 71.448C22.6173 71.5027 22.5707 71.5534 22.52 71.6054C22.5055 71.6212 22.4895 71.6355 22.472 71.648C22.4053 71.7227 22.3347 71.7935 22.26 71.86C22.1347 71.9787 21.9933 72.096 21.86 72.2067C21.7933 72.2614 21.7267 72.3135 21.652 72.3682C21.632 72.3842 21.612 72.396 21.5893 72.4147C21.5667 72.4334 21.5493 72.4427 21.5253 72.4587C21.4707 72.4974 21.416 72.5374 21.3573 72.572C21.3333 72.592 21.3053 72.608 21.2827 72.6241L21.172 72.6947C21.132 72.7214 21.0893 72.7454 21.0467 72.7694C20.96 72.824 20.8693 72.8787 20.78 72.9307C20.7133 72.9654 20.6467 73.0054 20.572 73.04C20.5364 73.0611 20.4993 73.0799 20.4613 73.096L20.3747 73.1427C20.316 73.1747 20.2573 73.2014 20.1947 73.2294C20.104 73.272 20.0173 73.3121 19.928 73.3507C19.8387 73.3894 19.7427 73.4254 19.6533 73.4614L19.428 73.544C19.3573 73.5707 19.2867 73.5947 19.216 73.6187L19.1773 73.6307C19.044 73.6774 18.9013 73.72 18.764 73.764C18.7251 73.7768 18.6855 73.7871 18.6453 73.7947C18.6067 73.8107 18.5627 73.8187 18.524 73.8307C18.4413 73.764 18.3547 73.6974 18.268 73.6187C18.2583 73.6118 18.2493 73.6038 18.2413 73.5947C18.2413 73.5947 18.2413 73.5947 18.2333 73.5947C18.2253 73.5947 18.2253 73.5947 18.2213 73.5867C18.1773 73.548 18.1387 73.508 18.088 73.4694C17.928 73.32 17.7627 73.1507 17.5973 72.9654L17.4987 72.856C17.4867 72.844 17.4747 72.8281 17.4627 72.816C17.4473 72.7952 17.4304 72.7757 17.412 72.7574C17.2707 72.5961 17.1333 72.4227 16.9987 72.2454C16.94 72.1787 16.8893 72.112 16.8413 72.0414C16.8136 72.0094 16.7887 71.975 16.7667 71.9387C16.708 71.86 16.6533 71.7814 16.5987 71.7027C16.5747 71.672 16.5547 71.644 16.5347 71.6134L16.4413 71.48C16.4333 71.472 16.4293 71.46 16.4213 71.4534L16.2 71.144C16.8085 70.1304 17.3036 69.0528 17.676 67.9307C17.7027 67.848 17.7227 67.7654 17.7427 67.6827C17.7796 67.522 17.8059 67.359 17.8213 67.1947V67.1747C17.8479 66.8138 17.8331 66.451 17.7773 66.0934C17.7267 65.764 17.656 65.4267 17.5733 65.0947C17.5293 64.9254 17.4867 64.76 17.44 64.5921L17.3067 64.088C17.1959 63.6742 17.1103 63.2538 17.0507 62.8294C17.044 62.7787 17.04 62.7267 17.036 62.6761L17.024 62.5627C17.024 62.5067 17.016 62.452 17.012 62.3934C17.008 62.3347 17.012 62.2947 17.012 62.248V62.228C17.012 62.1094 17.004 61.992 17.004 61.8774C17.004 61.7627 17.004 61.6494 17.012 61.536C17.012 61.484 17.012 61.4294 17.02 61.3787C17.02 61.288 17.028 61.1974 17.036 61.112C17.044 61.0267 17.048 60.9307 17.0547 60.8454C17.0613 60.76 17.0707 60.664 17.0827 60.5787C17.0947 60.4934 17.1027 60.3974 17.1107 60.312C17.1373 60.0454 17.1733 59.7694 17.2053 59.4974C17.2053 59.4814 17.2053 59.4614 17.2053 59.4467C17.224 59.2854 17.24 59.12 17.26 58.9587V58.9507C17.276 58.7854 17.2907 58.6241 17.3027 58.4587C17.3009 58.4459 17.3009 58.433 17.3027 58.42C17.3107 58.2707 17.3227 58.1214 17.3267 57.972C17.3267 57.944 17.3267 57.916 17.3267 57.8894V57.8694C17.3267 57.7667 17.3267 57.668 17.3267 57.5667C17.5187 57.4054 17.716 57.256 17.92 57.1067C18.4568 56.7218 18.9693 56.3042 19.4547 55.856C19.548 55.7694 19.6307 55.6787 19.7133 55.5894C20.4413 54.772 20.772 53.8707 20.976 52.9347C21.2947 51.4987 21.3187 49.9934 22.0347 48.62C22.0933 48.5067 22.156 48.396 22.2267 48.2867C22.306 48.1556 22.3928 48.0292 22.4867 47.908C22.6653 47.6731 22.8595 47.4504 23.068 47.2414C23.4439 46.8722 23.8537 46.5391 24.292 46.2467C24.5667 46.0614 24.8613 45.888 25.164 45.7227C25.4667 45.5574 25.7853 45.408 26.112 45.2707C26.4387 45.1334 26.7853 45.004 27.1347 44.8854C27.2533 44.8467 27.3707 44.8067 27.4893 44.772C27.4893 44.772 27.4893 44.772 27.4973 44.772C27.8507 44.6694 28.216 44.5747 28.5867 44.492C28.708 44.4694 28.8333 44.4414 28.96 44.4174C30.0145 44.2074 31.0891 44.1143 32.164 44.14Z" fill="#3D2FE8"/>
<path opacity="0.67" d="M20.9627 51.931C20.7587 52.8643 20.4293 53.767 19.7013 54.5856C19.6187 54.6763 19.536 54.7656 19.4413 54.8523C18.9571 55.301 18.4449 55.7187 17.908 56.103C17.6947 56.2603 17.4867 56.4176 17.2867 56.583C17.168 56.391 17.212 56.0816 17.0547 55.827C16.9323 55.6111 16.8223 55.3886 16.7253 55.1603C16.7253 55.1483 16.6613 54.8496 16.6493 54.8416C16.2663 54.3055 15.8489 53.7946 15.4 53.3123C14.6573 52.5456 13.5653 51.695 13.4747 51.6003L13.4667 51.5923C13.4667 51.5923 13.6893 45.059 17.3693 42.9923C20.5347 41.207 20.92 49.5443 20.9627 51.931Z" fill="#3D2FE8"/>
<path opacity="0.67" d="M31.4253 50.9109C30.8587 52.7949 27.8333 53.9429 27.464 55.8789C27.1373 57.5936 29.144 59.1936 28.8093 60.9362C28.46 62.8029 25.584 63.8389 24.5307 65.4949C23.6653 66.8282 24.0707 68.3736 23.6213 69.8042C23.088 71.5376 21.2027 73.0576 18.7413 73.7776C18.6627 73.8002 18.58 73.8242 18.5013 73.8442C17.7547 73.2656 16.9013 72.2442 16.2 71.1416C16.8081 70.1288 17.3032 69.052 17.676 67.9309C18.2093 66.2602 17.276 64.5416 17.0573 62.8309C16.8027 60.7696 17.5733 58.5909 17.2747 56.5896C18.092 55.9322 19.04 55.3189 19.7013 54.5896C21.5453 52.5256 20.8373 49.8869 22.0213 47.6216C23.4613 44.8562 27.9947 42.9256 32.4507 43.1802C32.0288 44.485 31.7403 45.8293 31.5893 47.1922C31.456 48.3869 31.7747 49.7349 31.4253 50.9109Z" stroke="black" stroke-linecap="round" stroke-linejoin="round"/>
<path opacity="0.67" d="M29.7306 45.3375C23.0866 52.1149 19.9613 66.4042 18.7453 73.7762C18.6466 74.3989 18.556 74.9682 18.4786 75.4815" stroke="black" stroke-linecap="round" stroke-linejoin="round"/>
<path opacity="0.67" d="M17.2667 56.5884C18.088 55.9218 19.04 55.3111 19.6973 54.5764C21.544 52.5111 20.8347 49.8738 22.0173 47.6084C23.46 44.8418 27.9947 42.9138 32.4507 43.1671C32.0275 44.4711 31.7384 45.815 31.588 47.1778C31.4547 48.3884 31.772 49.7364 31.424 50.9111C30.856 52.7991 27.8307 53.9431 27.4627 55.8804C27.1373 57.5924 29.1413 59.1938 28.8093 60.9364C28.4573 62.8031 25.5853 63.8391 24.528 65.4938C23.664 66.8378 24.0693 68.3764 23.6227 69.8071C23.08 71.5324 21.2027 73.0591 18.74 73.7764C18.6613 73.8018 18.5773 73.8258 18.4987 73.8471C17.7507 73.2671 16.8987 72.2471 16.2 71.1431" stroke="black" stroke-linecap="round" stroke-linejoin="round"/>
<path opacity="0.67" d="M29.7306 45.3375C23.0866 52.1149 19.9613 66.4042 18.7453 73.7762C18.6466 74.3989 18.556 74.9682 18.4786 75.4815" stroke="black" stroke-linecap="round" stroke-linejoin="round"/>
<path opacity="0.67" d="M25 78.0056L23.1413 88.3963C23.0896 88.6879 22.9369 88.952 22.7099 89.1421C22.4829 89.3324 22.1961 89.4365 21.9 89.4363H12.2C11.9009 89.4365 11.6115 89.3304 11.3835 89.1371C11.1553 88.9436 11.0033 88.6755 10.9547 88.3803L9.24133 78.0056H25Z" stroke="black" stroke-linecap="round" stroke-linejoin="round"/>
<path opacity="0.67" d="M26.7693 76.8468C26.7439 77.1625 26.6003 77.4572 26.3672 77.672C26.1343 77.8867 25.8288 78.0057 25.512 78.0055H8.75732C8.44359 78.0052 8.14119 77.8883 7.90892 77.6772C7.67679 77.4663 7.53146 77.1764 7.50131 76.8641C7.4848 76.6891 7.50499 76.5127 7.56058 76.346C7.61618 76.1792 7.70599 76.026 7.82412 75.896C7.94239 75.766 8.08652 75.662 8.24719 75.5909C8.40786 75.5197 8.58159 75.4829 8.75732 75.4828H25.512C25.6863 75.4827 25.8587 75.5188 26.0184 75.5888C26.178 75.6588 26.3215 75.7611 26.4396 75.8892C26.5577 76.0173 26.648 76.1687 26.7048 76.3335C26.7616 76.4983 26.7835 76.6731 26.7693 76.8468Z" stroke="black" stroke-linecap="round" stroke-linejoin="round"/>
<g opacity="0.36">
<path opacity="0.36" d="M17.8213 67.1707V67.1787C17.8013 67.4327 17.7525 67.6836 17.676 67.9267C17.3036 69.0488 16.8085 70.1264 16.2 71.14L16.4053 71.4547L14.2613 74.16C14.2292 74.151 14.1976 74.1403 14.1667 74.128C14.108 74.1094 14.0493 74.0894 13.9907 74.0654C13.9097 74.0382 13.8308 74.0052 13.7547 73.9667L13.5147 73.192C13.4608 73.1702 13.4084 73.1452 13.3573 73.1174C13.224 73.0587 13.0907 72.992 12.972 72.9254C12.8533 72.8587 12.724 72.792 12.6013 72.716C12.1267 72.4358 11.6836 72.105 11.28 71.7294C11.1827 71.6387 11.084 71.544 10.9933 71.4507C10.7452 71.196 10.5191 70.9208 10.3173 70.628C10.2897 70.5935 10.2648 70.557 10.2427 70.5187C10.0307 70.2048 9.85187 69.8696 9.70933 69.5187C9.66933 69.4254 9.63467 69.3307 9.60267 69.236C9.55533 69.1115 9.5156 68.9842 9.484 68.8547C9.052 67.1987 9.44133 65.4134 8.616 63.86C8.33907 63.37 7.9948 62.9212 7.59333 62.5267C7.54133 62.472 7.49067 62.42 7.436 62.3694C7.30267 62.236 7.16933 62.1134 7.036 61.988C6.636 61.6107 6.20933 61.236 5.828 60.8467C5.172 60.18 4.636 59.4547 4.49467 58.58C4.48667 58.5374 4.48267 58.4907 4.47867 58.4467C4.652 56.772 5.98933 55.1907 5.80133 53.5227C5.79823 53.4807 5.79288 53.4388 5.78533 53.3974C5.43067 51.156 2.524 49.8294 1.98133 47.64C1.83975 46.9834 1.78684 46.3107 1.824 45.64C1.832 45.0307 1.868 44.4134 1.848 43.8187C1.848 43.6507 1.84 43.4854 1.824 43.32C1.68459 41.7488 1.40888 40.1928 1 38.6694C1.05467 38.6694 1.11467 38.6614 1.16933 38.6614C5.39333 38.4334 9.656 40.652 11.0253 43.8134C12.1613 46.4374 11.692 49.204 13.4693 51.592L13.4773 51.6C13.9173 52.1894 14.7187 52.7414 15.288 53.264C15.7581 53.6911 16.1821 54.166 16.5533 54.6814C16.5653 54.6894 17.1187 55.0067 16.7253 55.0654C16.7947 55.1494 16.8576 55.2384 16.9133 55.332C16.984 55.4467 16.78 55.732 16.8333 55.84C16.8333 55.84 17.0467 55.66 17.0467 55.664C17.2707 56.12 17.2 56.776 17.2747 57.252C17.3089 57.4804 17.3299 57.7106 17.3373 57.9414C17.2867 59.348 16.96 60.804 17.0147 62.216V62.236C16.9935 62.6543 17.0077 63.0735 17.0573 63.4894C17.212 64.7307 17.7347 65.956 17.8213 67.1707Z" fill="#3D2FE8"/>
<path opacity="0.36" d="M17.0147 62.2241C16.96 60.8121 17.2813 59.3561 17.3373 57.9495C17.4 59.3415 17.0613 60.7961 17.0147 62.2241Z" fill="#3D2FE8"/>
<path opacity="0.36" d="M17.676 68.5975C17.3469 69.5901 16.9213 70.5479 16.4053 71.4575L16.2 71.1442C16.8085 70.1305 17.3036 69.0529 17.676 67.9309C17.7525 67.6878 17.8013 67.4369 17.8213 67.1829C17.864 67.6593 17.8147 68.1395 17.676 68.5975Z" fill="#3D2FE8"/>
<path opacity="0.36" d="M14.4267 75.48L13.76 73.9707L13.52 73.196V73.188L3.62534 41.188C9.82668 48.8253 12.84 64.7027 14.0787 73.4253C14.1133 73.6653 14.1454 73.9013 14.176 74.1293C14.22 74.436 14.2587 74.736 14.2947 75.0227C14.3334 75.4267 14.388 75.1307 14.4267 75.48Z" fill="#3D2FE8"/>
</g>
<path opacity="0.67" d="M17.8213 67.171C17.8017 67.4263 17.7529 67.6786 17.676 67.923C17.3028 69.0472 16.8079 70.1275 16.2 71.1443C15.992 71.4976 15.776 71.8363 15.556 72.151C15.4373 72.3163 15.32 72.4776 15.2053 72.631C15.1307 72.7323 15.052 72.827 14.9733 72.9216C14.8947 73.0163 14.816 73.1056 14.7413 73.1883C14.7067 73.2363 14.6627 73.279 14.624 73.3216C14.5493 73.3963 14.4747 73.471 14.4027 73.5376C14.324 73.5096 14.2453 73.487 14.1667 73.455C14.1331 73.4464 14.1004 73.4344 14.0693 73.419C13.9627 73.3843 13.856 73.3403 13.7547 73.2976L13.7027 73.2736C13.64 73.251 13.5773 73.223 13.5147 73.195C13.4608 73.173 13.4084 73.148 13.3573 73.1203C13.224 73.0616 13.0907 72.995 12.972 72.9283C12.8533 72.8616 12.724 72.795 12.6013 72.719C12.1267 72.4387 11.6836 72.1078 11.28 71.7323C11.1827 71.6416 11.084 71.547 10.9933 71.4536C10.7452 71.199 10.5191 70.9238 10.3173 70.631C10.2897 70.5964 10.2648 70.5599 10.2427 70.5216C10.0307 70.2076 9.85186 69.8726 9.70932 69.5216C9.66932 69.4283 9.63466 69.3336 9.60266 69.239C9.55532 69.1144 9.51559 68.9871 9.48399 68.8576C9.05199 67.2016 9.44132 65.4163 8.61599 63.863C8.33906 63.373 7.99479 62.924 7.59332 62.5296C7.54132 62.475 7.49065 62.423 7.43599 62.3723C6.91599 61.8563 6.33865 61.3656 5.83599 60.8496C5.17999 60.183 4.64399 59.4576 4.50265 58.583C4.49465 58.5403 4.49066 58.4936 4.48666 58.4496C4.30266 56.755 5.63599 55.1696 5.80932 53.5256C5.83878 53.2594 5.83339 52.9904 5.79332 52.7256C5.43865 50.4843 2.53199 49.159 1.98932 46.9683C1.88716 46.5311 1.83439 46.0839 1.83199 45.635C1.81332 45.0336 1.84799 44.4203 1.85599 43.8136C1.87212 43.4228 1.86411 43.0314 1.83199 42.6416C1.712 41.3003 1.49138 39.9699 1.17199 38.6616C1.12132 38.4416 1.06132 38.2176 1.00266 37.995C3.89732 37.795 6.83066 38.7536 8.85199 40.3856C9.11866 40.6034 9.36666 40.8278 9.59599 41.059C10.1968 41.6587 10.6821 42.3636 11.028 43.139C12.164 45.7616 11.48 48.8216 13.2573 51.2096C13.5736 51.6196 13.9252 52.0011 14.308 52.3496C14.4613 52.495 14.6147 52.6363 14.772 52.783C15.0867 53.0696 15.4013 53.3563 15.692 53.651C16.0547 54.006 16.3767 54.4004 16.652 54.827C16.6987 54.9056 16.7453 54.9883 16.7853 55.071C16.8173 55.131 16.848 55.1936 16.876 55.2563C16.904 55.319 16.9427 55.3976 16.9707 55.4723C16.9987 55.547 17.0213 55.6056 17.0453 55.6656C17.0453 55.6736 17.0453 55.6816 17.0533 55.6883C17.076 55.7603 17.1 55.831 17.12 55.9016C17.14 55.9723 17.1627 56.055 17.1827 56.1336C17.2027 56.2123 17.2133 56.267 17.2253 56.3296C17.2373 56.3923 17.2613 56.499 17.2733 56.5816C17.3357 57.0326 17.3567 57.4882 17.336 57.943C17.2893 59.351 16.9587 60.8056 17.0133 62.2216C17.0133 62.4256 17.0333 62.6216 17.056 62.823C17.2427 64.2803 17.9427 65.7443 17.8213 67.171Z" stroke="black" stroke-linecap="round" stroke-linejoin="round"/>
<path opacity="0.67" d="M3.61334 40.5067C9.992 48.3574 12.9933 64.9067 14.1667 73.4534C14.2667 74.1934 14.3573 74.8734 14.4333 75.4814" stroke="black" stroke-linecap="round" stroke-linejoin="round"/>
<path opacity="0.67" d="M31.4253 50.9136C30.8587 52.7963 27.8333 53.9456 27.464 55.8803C27.1373 57.595 29.144 59.1963 28.8093 60.9376C28.46 62.8043 25.584 63.8403 24.5307 65.4963C23.6653 66.8376 24.0707 68.375 23.6213 69.807C23.1147 71.435 21.412 72.8856 19.1587 73.6456C19.0253 73.6923 18.8827 73.735 18.7453 73.779C18.6667 73.803 18.584 73.8256 18.5053 73.8456C17.8293 73.323 17.0653 72.4376 16.4093 71.459L16.2 71.1443C15.992 71.4976 15.776 71.8363 15.556 72.151C15.4373 72.3163 15.32 72.4776 15.2053 72.631C15.1307 72.7323 15.052 72.827 14.9733 72.9216C14.8947 73.0163 14.816 73.1056 14.7413 73.1883C14.7067 73.2363 14.6627 73.279 14.624 73.3216C14.5493 73.4003 14.4747 73.475 14.4027 73.5416C14.324 73.5136 14.2453 73.491 14.1667 73.459L14.0693 73.423C13.9621 73.3872 13.8571 73.3455 13.7547 73.2976L13.7027 73.2736C13.6367 73.2494 13.5725 73.2204 13.5107 73.187C13.46 73.1683 13.408 73.1443 13.3573 73.1203C13.224 73.0616 13.0907 72.995 12.972 72.9283C12.8533 72.8616 12.724 72.795 12.6013 72.719C12.1267 72.4387 11.6836 72.1078 11.28 71.7323C11.1827 71.6416 11.084 71.547 10.9933 71.4536C10.7452 71.199 10.5191 70.9238 10.3173 70.631C10.2897 70.5964 10.2648 70.5599 10.2427 70.5216C10.0307 70.2076 9.85185 69.8726 9.70932 69.5216C9.66932 69.4283 9.63465 69.3336 9.60265 69.239C9.55532 69.1144 9.51559 68.9871 9.48399 68.8576C9.05199 67.2016 9.44132 65.4163 8.61599 63.863C8.33905 63.373 7.99479 62.924 7.59332 62.5296C7.54132 62.475 7.49065 62.423 7.43599 62.3723C6.91599 61.8603 6.33865 61.3696 5.83599 60.8496C5.17999 60.183 4.64399 59.4576 4.50265 58.583C4.49465 58.5403 4.49065 58.4936 4.48665 58.4496C4.30265 56.755 5.63599 55.1696 5.80932 53.5256C5.83877 53.2594 5.83339 52.9904 5.79332 52.7256C5.43865 50.4843 2.53199 49.159 1.98932 46.9683C1.88716 46.5311 1.83439 46.0839 1.83199 45.635C1.81332 45.0336 1.84799 44.4203 1.85599 43.8136C1.87212 43.4228 1.86411 43.0314 1.83199 42.6416C1.712 41.3003 1.49138 39.9699 1.17199 38.6616C1.12132 38.4416 1.06132 38.2176 1.00266 37.995C3.89732 37.795 6.83065 38.7536 8.85199 40.3856C9.11265 40.5956 9.36105 40.8204 9.59599 41.059C10.1968 41.6587 10.6821 42.3636 11.028 43.139C12.164 45.7616 11.48 48.8216 13.2573 51.2096C13.5736 51.6196 13.9252 52.0011 14.308 52.3496C14.4613 52.495 14.6147 52.6403 14.772 52.783C15.0867 53.0696 15.4013 53.3563 15.692 53.651C16.0547 54.006 16.3767 54.4004 16.652 54.827C16.6987 54.9056 16.7453 54.9883 16.7853 55.071C16.8173 55.131 16.848 55.1936 16.876 55.2563C16.904 55.319 16.9427 55.3976 16.9707 55.4723C16.9987 55.547 17.0213 55.6056 17.0453 55.6656C17.0453 55.6736 17.0453 55.6816 17.0533 55.6883C17.076 55.7603 17.1 55.831 17.12 55.9016C17.14 55.9723 17.1627 56.055 17.1827 56.1336C17.2027 56.2123 17.2133 56.267 17.2253 56.3296C17.2373 56.3923 17.2613 56.499 17.2733 56.5816C18.0907 55.9243 19.0387 55.311 19.7 54.5816C21.544 52.5163 20.836 49.8776 22.02 47.6123C23.46 44.847 27.9933 42.9163 32.4493 43.1723C32.0276 44.4767 31.7391 45.8204 31.588 47.183C31.456 48.3883 31.7747 49.7376 31.4253 50.9136Z" stroke="black" stroke-linecap="round" stroke-linejoin="round"/>
<path opacity="0.67" d="M13.2533 51.2123C13.2533 51.2123 13.692 44.3897 17.372 42.3163C21.052 40.243 20.972 51.871 20.972 51.871" stroke="black" stroke-linecap="round" stroke-linejoin="round"/>
<path opacity="0.67" d="M17.2667 56.5886C17.2667 56.5886 16.5147 52.6859 17.8333 48.8552" stroke="black" stroke-linecap="round" stroke-linejoin="round"/>
</g>
<path d="M95.1693 86.7266L95.1653 86.7306" stroke="#CCDDE2" stroke-miterlimit="10"/>
<path d="M57.6667 19.7599C57.6667 19.7599 60.668 17.8252 59.4 15.7679C58.132 13.7106 57.6667 19.7599 57.6667 19.7599Z" fill="#3D2FE8"/>
<path d="M88.676 32.1975C86.996 33.0588 85.1866 32.9975 83.4533 32.3388C81.88 31.7375 80.476 30.7495 79.2133 29.6521L70.68 23.1868C68.8373 22.0703 67.1833 20.6683 65.78 19.0335C63.7706 16.6775 60.5293 16.1628 59.7626 16.0721L59.212 15.0148C60.2386 14.5975 61.312 14.0588 62.412 13.9135C64.6106 13.6148 66.9186 14.5468 68.52 16.0135C69.408 16.8308 70.184 17.7708 71.068 18.5935C73.2786 20.6535 76.4253 21.3935 79.3346 22.0255C80.8013 22.3441 82.4173 22.4455 83.908 22.5988C85.3894 22.7459 86.8336 23.1521 88.1746 23.7988C89.056 24.2081 89.6226 25.0068 90.308 25.7855C90.8329 26.5077 91.1484 27.3608 91.22 28.2508C91.3226 29.9895 90.1626 31.4295 88.676 32.1975Z" fill="#3D2FE8"/>
<path d="M57.6666 19.76C57.2616 19.9954 56.7832 20.071 56.3253 19.972H56.3133C56.18 19.9334 56.0466 19.9014 55.932 19.8774C55.8809 19.866 55.831 19.8504 55.7826 19.8307C54.4413 19.3427 53.6586 19.532 53.916 20.964C54.2146 22.6507 52.012 22.8707 50.5613 22.6107C48.0013 21.4587 47.3 16.964 49.3306 14.1947C49.3813 14.124 49.44 14.0494 49.4986 13.9747C49.5573 13.9 49.6213 13.8294 49.684 13.7587C49.8354 13.594 49.9972 13.4391 50.168 13.2947C50.2266 13.2427 50.2853 13.192 50.348 13.1454C50.4106 13.0987 50.4986 13.0307 50.5733 12.976C50.6457 12.9186 50.722 12.866 50.8013 12.8187C51.4878 12.3667 52.2592 12.0594 53.0684 11.9154C53.8776 11.7714 54.7077 11.7939 55.508 11.9814L55.5493 11.9934C55.8278 12.0978 56.0996 12.2198 56.3626 12.3587C56.4381 12.3966 56.5116 12.4384 56.5826 12.484C56.6137 12.4994 56.644 12.5162 56.6733 12.5347C56.744 12.5787 56.8146 12.6214 56.8853 12.668C57.0266 12.7587 57.168 12.856 57.3026 12.9627C57.7929 13.3383 58.227 13.7818 58.592 14.28C58.6542 14.3622 58.7121 14.4476 58.7653 14.536C58.8081 14.595 58.8473 14.6563 58.8826 14.72C58.9373 14.8067 58.9893 14.8934 59.036 14.9867C59.0826 15.08 59.1506 15.2027 59.2013 15.3134C59.2413 15.4 59.28 15.4867 59.316 15.58C59.3426 15.6467 59.3706 15.7134 59.3946 15.776C59.4744 15.9851 59.5398 16.1994 59.5906 16.4174C59.607 16.47 59.619 16.524 59.6266 16.5787C59.645 16.6416 59.6593 16.7058 59.6693 16.7707C59.6813 16.8334 59.6933 16.904 59.7053 16.968L57.6666 19.76Z" fill="#3D2FE8"/>
<path d="M58.748 14.4291C59.7733 14.0104 60.8467 13.4731 61.948 13.3251C64.144 13.0291 66.456 13.9597 68.0533 15.4264C68.9453 16.245 69.7187 17.1837 70.604 18.0091C72.816 20.0637 75.6827 21.1931 78.6 21.8291C80.0645 22.1368 81.5451 22.3629 83.0347 22.5064C84.5813 22.6677 85.98 22.7144 87.412 23.3824C89.2787 24.2464 91.0773 26.0997 91.2147 28.2464C91.3253 29.9877 90.1653 31.4264 88.6813 32.1904C87 33.0517 85.188 32.997 83.452 32.3304C81.8787 31.729 80.4747 30.7424 79.2107 29.6411" stroke="black" stroke-miterlimit="10"/>
<path d="M48.4854 13.9465C48.5374 13.8759 48.596 13.8012 48.6547 13.7265C48.7134 13.6519 48.7773 13.5812 48.84 13.5105C49.0459 13.2889 49.2688 13.0839 49.5067 12.8972C49.5813 12.8372 49.656 12.7825 49.7307 12.7279L49.7787 12.6919C49.8413 12.6492 49.9 12.6052 49.9627 12.5705C51.6893 11.4305 53.7347 11.3239 55.508 11.9772C55.5855 12.0015 55.6616 12.0299 55.736 12.0625C55.9497 12.1481 56.1585 12.2456 56.3613 12.3545C56.4375 12.3921 56.5113 12.4339 56.5827 12.4799C56.6137 12.4951 56.644 12.512 56.6733 12.5305C56.748 12.5745 56.8187 12.6172 56.8854 12.6639C57.0291 12.7548 57.1679 12.8531 57.3014 12.9585C57.7923 13.3337 58.2269 13.7773 58.592 14.2759C58.6544 14.358 58.7121 14.4435 58.7653 14.5319C58.8081 14.5907 58.8473 14.6521 58.8827 14.7159C58.9387 14.8025 58.9893 14.8892 59.036 14.9825C59.0827 15.0759 59.1507 15.1985 59.2014 15.3092C59.2414 15.3959 59.28 15.4825 59.316 15.5759C59.3427 15.6425 59.3707 15.7092 59.3947 15.7719C59.4744 15.9809 59.5399 16.1952 59.5907 16.4132C59.6071 16.4659 59.6191 16.5199 59.6267 16.5745C59.6446 16.6376 59.6588 16.7017 59.6693 16.7665C59.6813 16.8292 59.6934 16.8999 59.7054 16.9639C59.7174 17.0279 59.724 17.1052 59.732 17.1799" stroke="black" stroke-miterlimit="10"/>
<path d="M67.4147 86.9109H77.6667L77.8 89.6349H64.3667C64.3667 89.6349 61.992 88.0149 64.704 86.9109H67.4147Z" fill="#3D2FE8"/>
<path d="M54.8666 36.3481C54.8666 36.3481 62.012 31.4602 70.68 40.3695C70.68 40.3695 69.5106 47.4135 65.776 50.3788C65.776 50.3788 87.7133 47.1535 90.02 55.2628C90.02 55.2628 90.7826 41.1295 78.8053 29.2402C66.828 17.3508 59.9 21.4068 57.664 27.6402C55.428 33.8735 55.6546 31.3508 54.8666 36.3481Z" fill="#00FFF0"/>
<path d="M102.215 86.688V74.8307L106.196 74.964V89.6307H99.468C99.468 89.6307 98.5586 88.264 99.972 87.8214C101.385 87.3787 102.215 88.064 102.215 86.688Z" fill="#3D2FE8"/>
<path d="M41.7747 73.9184C42.1892 73.9184 42.5253 73.5824 42.5253 73.1678C42.5253 72.7532 42.1892 72.4171 41.7747 72.4171C41.3601 72.4171 41.024 72.7532 41.024 73.1678C41.024 73.5824 41.3601 73.9184 41.7747 73.9184Z" fill="#3D2FE8"/>
<path d="M68.3987 22.0203C81.1733 27.9803 90.024 40.9403 90.024 55.9656C90.0353 63.6429 87.6753 71.1363 83.2667 77.4216C82.5359 78.4643 81.7531 79.4695 80.9213 80.4336" stroke="black" stroke-linecap="round" stroke-linejoin="round"/>
<path d="M76.1893 49.8186C76.1893 49.8186 51.412 48.4652 51.5226 61.1066C51.5656 63.5578 52.5157 65.9059 54.1893 67.6972L68.2693 83.0306C69.092 83.9239 69.552 84.6426 69.7986 85.2052C69.879 85.3911 69.912 85.594 69.8942 85.7958C69.8765 85.9975 69.8088 86.1916 69.6973 86.3607C69.5857 86.5296 69.4338 86.6683 69.2552 86.7638C69.0766 86.8594 68.8772 86.9088 68.6746 86.9079H64.7053C64.3436 86.9094 63.9972 87.0536 63.7414 87.3094C63.4857 87.5651 63.3414 87.9116 63.34 88.2732C63.3401 88.4523 63.3756 88.6295 63.4444 88.7948C63.5132 88.96 63.6137 89.1102 63.7406 89.2364C63.8674 89.3628 64.0178 89.4628 64.1834 89.531C64.3489 89.5991 64.5262 89.6338 64.7053 89.6332H77.8C77.6786 79.8799 73.9186 73.0452 70.764 69.0132C69.7797 67.7471 68.6905 66.566 67.508 65.4826" stroke="black" stroke-linecap="round" stroke-linejoin="round"/>
<path d="M83.2667 77.4213C83.2667 77.4213 93.096 74.1266 106.2 74.9653V89.632H100.085C99.8441 89.632 99.6129 89.5361 99.4424 89.3656C99.2719 89.195 99.176 88.9637 99.176 88.7226C99.176 88.5004 99.2575 88.2858 99.4048 88.1196C99.5521 87.9532 99.7553 87.8466 99.976 87.82L101.375 87.6426C101.608 87.6133 101.822 87.4998 101.978 87.3236C102.133 87.1473 102.219 86.9202 102.219 86.6853C102.219 86.545 102.188 86.4066 102.129 86.2794C102.07 86.1522 101.984 86.0394 101.877 85.9488C101.77 85.8582 101.645 85.792 101.51 85.7548C101.375 85.7176 101.233 85.7102 101.095 85.7333L77.8 89.6346" stroke="black" stroke-linecap="round" stroke-linejoin="round"/>
<path d="M70.7614 69.0187C71.512 67.4974 72.1774 66.2547 72.6027 65.488" stroke="black" stroke-linecap="round" stroke-linejoin="round"/>
<path d="M66.1334 86.9107C65.6147 85.3014 65.756 83.1654 66.2667 80.8547" stroke="black" stroke-linecap="round" stroke-linejoin="round"/>
<path d="M42.488 73.1653C42.4885 73.2639 42.4696 73.3615 42.4323 73.4527C42.3948 73.5441 42.3399 73.627 42.2703 73.6969C42.2008 73.7667 42.1181 73.8222 42.0272 73.8599C41.9361 73.8978 41.8385 73.9173 41.74 73.9173C41.6185 73.9191 41.4985 73.8907 41.3907 73.8346C41.4101 73.9527 41.4195 74.0723 41.4187 74.1919V74.7506C41.4191 75.3187 41.1937 75.8637 40.7925 76.2657C40.3912 76.6677 39.8467 76.8939 39.2787 76.8946H38.024L38.012 82.2506C37.9613 85.8573 36.0667 85.9306 36.0667 85.9306V87.8732H36.2827C36.4001 87.8731 36.5164 87.8966 36.6245 87.9425C36.7327 87.9882 36.8304 88.0554 36.912 88.1399C37.0389 88.2662 37.1249 88.4278 37.1588 88.6035C37.1927 88.7794 37.1729 88.9613 37.102 89.1257C37.0311 89.2901 36.9124 89.4294 36.7612 89.5254C36.6101 89.6214 36.4336 89.6697 36.2547 89.6639C35.8081 89.6493 35.3641 89.5899 34.9293 89.4866C34.7556 89.6099 34.5461 89.6722 34.3333 89.6639C32.9773 89.6133 30.5227 89.0973 29.1267 86.2106C28.2147 86.8479 27.9787 87.2213 26.7787 87.2213C25.4967 87.2223 24.252 86.7901 23.2467 85.9946V87.8746H23.468C23.5855 87.8767 23.7015 87.9019 23.8092 87.9489C23.9169 87.9958 24.0144 88.0634 24.0959 88.1481C24.1775 88.2326 24.2416 88.3323 24.2847 88.4416C24.3277 88.5511 24.3488 88.6678 24.3467 88.7853C24.3445 88.9029 24.3193 89.0187 24.2724 89.1265C24.2255 89.2342 24.1579 89.3317 24.0733 89.4133C23.9888 89.4949 23.8889 89.559 23.7796 89.602C23.6703 89.645 23.5535 89.6661 23.436 89.6639C22.9227 89.6498 22.4129 89.5746 21.9173 89.4399V89.4319C22.0113 89.3483 22.0864 89.2457 22.1375 89.1306C22.1884 89.0157 22.2144 88.8911 22.2133 88.7652C22.2155 88.7355 22.2155 88.7057 22.2133 88.6759L21.9213 89.4266C21.7573 89.577 21.5425 89.6599 21.32 89.6586H21.292C19.1587 89.5999 13.4253 88.2946 15.1133 78.0879C16.3133 70.8599 22.8467 71.4573 25.9453 74.3546C26.7627 75.1253 26.976 76.0413 26.7987 76.8759H28.4587V74.1093C28.4591 72.5365 29.084 71.0282 30.1961 69.9161C31.3083 68.8039 32.8165 68.179 34.3893 68.1786H35.416C35.8491 68.179 36.2777 68.2646 36.6776 68.4307C37.0776 68.5967 37.4408 68.8399 37.7468 69.1463C38.0527 69.4527 38.2953 69.8165 38.4607 70.2166C38.6261 70.6167 38.7111 71.0457 38.7107 71.4786C39.1881 71.4811 39.6567 71.6083 40.07 71.8475C40.4832 72.0867 40.8268 72.4298 41.0667 72.8426C41.1409 72.6903 41.2644 72.5674 41.4172 72.4941C41.57 72.4207 41.7431 72.4011 41.9084 72.4385C42.0737 72.4759 42.2216 72.5679 42.328 72.6999C42.4344 72.8318 42.4932 72.9958 42.4947 73.1653H42.488Z" fill="white"/>
<path d="M22.2107 88.7746C22.2117 88.9004 22.1859 89.025 22.1348 89.1399C22.0837 89.255 22.0087 89.3576 21.9147 89.4412L22.2067 88.6906C22.2099 88.7184 22.2112 88.7466 22.2107 88.7746Z" fill="white"/>
<path d="M22.2107 88.7746C22.2117 88.9004 22.1859 89.025 22.1348 89.1399C22.0837 89.255 22.0087 89.3576 21.9147 89.4412L22.2067 88.6906C22.2099 88.7184 22.2112 88.7466 22.2107 88.7746Z" fill="white"/>
<path d="M22.88 82.2507C23.5467 85.2667 21.1 85.936 21.1 85.936V87.8787H21.316C21.5532 87.8791 21.7805 87.9733 21.9483 88.1411C22.116 88.3088 22.2103 88.5361 22.2107 88.7733C22.2105 88.8933 22.1864 89.0122 22.1395 89.1226C22.0927 89.2331 22.0241 89.3331 21.938 89.4165C21.8519 89.5001 21.7499 89.5656 21.638 89.6089C21.5261 89.6524 21.4067 89.6729 21.2867 89.6693C19.1453 89.608 13.42 88.304 15.1093 78.0973C16.3093 70.8667 22.8427 71.4653 25.9373 74.364C28.6187 76.8853 24.792 80.9827 22.052 78.524C21.6835 78.1892 21.3391 77.8287 21.0213 77.4453" stroke="black" stroke-linecap="round" stroke-linejoin="round"/>
<path d="M23.2427 85.9973V87.8786H23.4587C23.5767 87.878 23.6937 87.9007 23.8029 87.9455C23.9121 87.9904 24.0113 88.0564 24.0948 88.1398C24.1783 88.2233 24.2443 88.3225 24.2892 88.4317C24.334 88.5409 24.3567 88.658 24.356 88.776C24.3559 88.896 24.3316 89.0146 24.2847 89.125C24.2377 89.2353 24.1691 89.3352 24.0827 89.4184C23.9963 89.5016 23.8941 89.5666 23.782 89.6094C23.67 89.6524 23.5505 89.6723 23.4307 89.668C22.9173 89.6533 22.4075 89.5776 21.912 89.4427" stroke="black" stroke-linecap="round" stroke-linejoin="round"/>
<path d="M34.9307 89.4894C35.3645 89.595 35.8083 89.6545 36.2547 89.6668C36.3743 89.6713 36.4936 89.6516 36.6053 89.6088C36.7172 89.566 36.8192 89.501 36.9052 89.4178C36.9912 89.3346 37.0596 89.2349 37.1061 89.1246C37.1527 89.0144 37.1764 88.8958 37.176 88.7761C37.1737 88.5377 37.078 88.3098 36.9093 88.1414C36.8272 88.0569 36.7291 87.9897 36.6204 87.9438C36.5119 87.8981 36.3952 87.8745 36.2773 87.8748H36.0667V85.9374C36.0667 85.9374 37.9627 85.8574 38.0133 82.2494L38.0253 76.8921" stroke="black" stroke-linecap="round" stroke-linejoin="round"/>
<path d="M28.452 76.8921H26.7894" stroke="black" stroke-linecap="round" stroke-linejoin="round"/>
<path d="M35.968 82.2504C36.64 85.2637 34.188 85.1304 34.188 85.1304V87.8757H34.404C34.6426 87.8785 34.8708 87.9742 35.04 88.1424C35.1496 88.2536 35.2288 88.3912 35.2696 88.5418C35.3105 88.6925 35.3117 88.8512 35.2733 89.0024C35.2152 89.2044 35.09 89.3804 34.9184 89.5016C34.7468 89.6228 34.539 89.6818 34.3293 89.669C32.972 89.6184 30.5173 89.105 29.1186 86.217C28.2066 86.8557 27.9733 87.2304 26.772 87.2304C25.9233 87.2306 25.0853 87.0402 24.32 86.6736C23.5545 86.3069 22.881 85.7732 22.3493 85.1117" stroke="black" stroke-linecap="round" stroke-linejoin="round"/>
<path d="M36.084 76.8922H39.284C39.8505 76.8901 40.393 76.6635 40.7929 76.2622C41.1928 75.8609 41.4173 75.3174 41.4173 74.7509V74.1975C41.4179 74.077 41.4089 73.9566 41.3906 73.8375" stroke="black" stroke-linecap="round" stroke-linejoin="round"/>
<path d="M41.0614 72.8455C40.9402 72.6362 40.7923 72.4434 40.6214 72.2722C40.3698 72.0202 40.0708 71.8204 39.7418 71.6843C39.4128 71.5482 39.0602 71.4783 38.704 71.4788C38.704 70.6044 38.3568 69.7658 37.7388 69.1472C37.1208 68.5287 36.2824 68.1808 35.408 68.1802H34.3814C32.8087 68.1806 31.3006 68.8055 30.1886 69.9178C29.0767 71.0299 28.452 72.5382 28.452 74.1108V77.7975C28.4435 78.2032 28.5162 78.6066 28.6655 78.9839C28.815 79.3612 29.0382 79.7048 29.322 79.9948C29.606 80.2847 29.945 80.5151 30.3191 80.6723C30.6931 80.8296 31.0948 80.9106 31.5007 80.9106C31.9066 80.9106 32.3083 80.8296 32.6823 80.6723C33.0564 80.5151 33.3954 80.2847 33.6794 79.9948C33.9632 79.7048 34.1864 79.3612 34.3359 78.9839C34.4852 78.6066 34.5579 78.2032 34.5494 77.7975V73.0722" stroke="black" stroke-linecap="round" stroke-linejoin="round"/>
<path d="M41.3907 73.833C41.4977 73.8901 41.6173 73.9194 41.7387 73.9184C41.8735 73.919 42.0059 73.8834 42.1221 73.8152C42.2383 73.747 42.334 73.6488 42.3992 73.5309C42.4644 73.4129 42.4967 73.2796 42.4925 73.1449C42.4884 73.0102 42.4481 72.8792 42.376 72.7653C42.3037 72.6516 42.2021 72.5594 42.082 72.4984C41.9619 72.4374 41.8275 72.4098 41.6931 72.4188C41.5585 72.4276 41.4289 72.4724 41.3177 72.5486C41.2067 72.6248 41.118 72.7296 41.0613 72.8517" stroke="black" stroke-linecap="round" stroke-linejoin="round"/>
<path d="M36.412 72.0439C36.412 72.0439 36.6787 71.3106 37.7747 71.4679" stroke="black" stroke-linecap="round" stroke-linejoin="round"/>
<path d="M29.7227 68.7308C29.7227 68.7308 29.5387 70.3708 30.6067 70.0841C31.6747 69.7975 31.688 68.9828 31.8613 69.6841C32.0347 70.3855 33.028 70.8841 33.6947 70.0588C34.3613 69.2335 33.9693 70.3935 34.3467 70.6148C34.724 70.8361 35.7093 70.9268 36.1053 70.1668C36.5013 69.4068 36.804 69.3561 37.0493 70.0108C37.2947 70.6655 39.552 69.0868 39.5507 68.9108C39.5493 68.7348 40.9853 68.0641 40.9853 68.0641L40.376 65.8175C40.376 65.8175 39.508 65.2935 39.2947 65.2441C39.0813 65.1948 38.672 65.2108 38.4587 65.0961C38.2453 64.9815 35.9067 64.3801 35.9067 64.3801C35.9067 64.3801 29.7867 65.9455 29.7227 68.7308Z" fill="white"/>
<path d="M32.0813 68.5975C32.0547 68.6681 32.0267 68.7428 31.9987 68.8135C31.9964 68.826 31.9924 68.8381 31.9867 68.8495C31.8699 69.112 31.8265 69.4015 31.8613 69.6868C31.916 69.9815 32.1373 70.4215 32.444 70.4961C33.34 70.7215 33.7773 70.0961 34.072 69.3841C34.252 68.9508 34.3867 68.4868 34.544 68.1601C34.7443 67.7459 35.0248 67.3756 35.3693 67.0708" stroke="black" stroke-linecap="round" stroke-linejoin="round"/>
<path d="M32.1253 68.4639C32.1133 68.5079 32.0973 68.5466 32.0813 68.5972C32.0578 68.6707 32.0302 68.7428 31.9986 68.8132C31.9964 68.8257 31.9924 68.8379 31.9866 68.8492C31.728 69.4505 31.2826 69.9932 30.6066 70.0879C29.844 70.1892 29.364 68.9745 30.064 67.7319C30.0631 67.7293 30.0631 67.7265 30.064 67.7239" stroke="black" stroke-linecap="round" stroke-linejoin="round"/>
<path d="M34.0667 69.3812C34.0667 69.3812 33.8507 70.9812 35.0773 70.8478C36.5013 70.6945 36.072 69.0465 37.8973 67.6812" stroke="black" stroke-linecap="round" stroke-linejoin="round"/>
<path d="M36.656 69.2867C36.86 69.7707 37.2853 70.0654 37.816 70.0027C38.5707 69.908 38.996 69.2547 39.5067 68.7747C39.5227 68.764 39.5347 68.748 39.5507 68.736C39.8471 68.4662 40.1999 68.2659 40.5835 68.1496C40.9671 68.0334 41.3717 68.0042 41.768 68.064C41.768 68.064 46.2947 69.2747 52.6307 65.488" stroke="black" stroke-linecap="round" stroke-linejoin="round"/>
<path d="M66.404 50.2869C69.6017 45.6264 71.3103 40.1056 71.304 34.4536" stroke="black" stroke-linecap="round" stroke-linejoin="round"/>
<path d="M32.1253 68.464C32.1253 68.464 32.5853 67.4387 33.2373 66.9547" stroke="black" stroke-linecap="round" stroke-linejoin="round"/>
<path d="M59.7027 16.9598L68.3973 22.0265C56.9306 18.5265 54.3267 36.7905 53.7307 44.8758C53.7307 44.8758 53.1973 56.4025 41.8253 61.7038L40.1667 62.4612C38.7231 63.113 37.2231 63.6321 35.6853 64.0118C30.7773 65.2412 30.0667 67.7278 30.0667 67.7278" stroke="black" stroke-linecap="round" stroke-linejoin="round"/>
<path d="M58.664 25.8948L57.6133 24.3254" stroke="black" stroke-linecap="round" stroke-linejoin="round"/>
<path d="M50.5547 22.6065L52.5654 24.5492C52.5924 24.5757 52.625 24.5963 52.6607 24.6092C52.6964 24.6223 52.7344 24.6275 52.7723 24.6245C52.8102 24.6216 52.847 24.6107 52.8803 24.5924C52.9136 24.5741 52.9426 24.5489 52.9654 24.5185L53.2014 24.2025C53.2374 24.2025 57.94 26.7359 58.4707 22.3359" stroke="black" stroke-linecap="round" stroke-linejoin="round"/>
<path d="M59.588 16.0468C59.588 16.0468 63.4813 16.3428 65.776 19.0295C67.1795 20.664 68.8339 22.0651 70.6773 23.1801" stroke="black" stroke-miterlimit="10"/>
<path d="M49.9586 12.5708C46.2426 14.8735 46.668 21.0241 49.74 22.3775C50.912 22.8948 54.2733 23.0215 53.9093 20.9588C53.6533 19.5295 54.4426 19.3401 55.776 19.8268C56.6066 20.1268 57.5173 20.0815 58.176 19.4428C58.3061 19.3165 58.4224 19.1765 58.5226 19.0255" stroke="black" stroke-miterlimit="10"/>
<path d="M121 89.6323C120.36 89.6323 5.77869 89.6323 5.77869 89.6323" stroke="black" stroke-linecap="round" stroke-linejoin="round"/>
<path d="M90.0174 56.1187C90.0174 58.6025 89.0307 60.9847 87.2743 62.7409C85.518 64.4973 83.1359 65.484 80.652 65.484H63.9333" stroke="black" stroke-linecap="round" stroke-linejoin="round"/>
<path d="M64.5293 78.964C64.5293 78.964 63.2667 83.3747 63.9333 84.6893C64.6 86.004 65.6867 84.9653 65.8 83.8827" stroke="black" stroke-linecap="round" stroke-linejoin="round"/>
</svg>
