<svg width="121" height="105" viewBox="0 0 121 105" fill="none" xmlns="http://www.w3.org/2000/svg">
<path d="M22.3161 28.4983C21.9428 29.1223 21.1614 29.3863 20.4894 29.5209C19.6308 29.6969 18.7428 29.7436 17.8735 29.8209L17.3681 29.9449C17.2725 29.9744 17.1836 30.0225 17.1067 30.0864C17.0296 30.1504 16.966 30.2289 16.9195 30.3175C16.8728 30.406 16.8443 30.5029 16.8352 30.6027C16.8261 30.7023 16.8369 30.8028 16.8668 30.8983C17.1795 31.9742 17.6096 33.0124 18.1494 33.9942L17.3495 34.7942C17.1228 34.4876 17.1121 33.9502 16.8081 34.0022C16.5161 33.7102 16.1695 33.5676 15.8108 33.9582C15.1095 34.7249 15.2228 36.3182 16.2535 36.7582L16.0228 37.9062C15.9432 38.3076 15.7271 38.669 15.4111 38.9289C15.0949 39.1888 14.6987 39.331 14.2895 39.3316L14.4668 37.9729C13.2668 38.5796 11.9055 37.2676 12.0001 36.1862C12.0615 35.4449 11.8935 34.9329 11.3455 34.3956C11.3095 34.3596 11.5295 34.2262 11.4961 34.1902C11.3415 33.7222 11.3201 33.1756 11.4735 32.8663C11.7401 32.3143 12.5255 31.9916 12.1641 31.3889C12.0056 31.1262 11.8899 30.84 11.8215 30.5409C11.7489 30.1444 11.7621 29.7369 11.8604 29.3459C11.9587 28.9549 12.1395 28.5895 12.3908 28.2743C12.9241 27.6343 13.7908 27.8063 14.4988 27.5796C15.3615 27.3129 15.7601 26.3889 16.6628 26.1036C17.1121 25.9609 17.5281 26.0263 17.9775 26.1289C18.3575 26.2169 18.7334 26.3156 19.1068 26.4329C19.4801 26.5503 19.8081 26.6476 20.1734 26.5383C20.6561 26.4049 21.0281 25.9543 21.5548 25.9503C21.8176 25.9443 22.0748 26.0264 22.2854 26.1836C22.6748 26.8836 22.6774 27.8996 22.3161 28.4983Z" fill="#3D2FE8"/>
<path d="M5.8148 46.5517C5.8148 46.5517 -8.70118 30.5411 12.6761 22.5517C13.9157 22.0972 15.2077 21.8007 16.5214 21.6691C19.9334 21.3064 27.4761 20.0171 28.3454 15.6624" stroke="#CCDDE2" stroke-miterlimit="10"/>
<path d="M66.7507 24.1384V24.1344" stroke="#CCDDE2" stroke-miterlimit="10"/>
<path d="M28.6628 52.9664V52.9624" stroke="black" stroke-miterlimit="10"/>
<path d="M17.3134 34.6877C17.1713 34.4421 17.0022 34.213 16.8094 34.005C16.5174 33.713 16.1708 33.5704 15.8121 33.961C15.1108 34.7277 15.2241 36.321 16.2548 36.761L16.0241 37.909C15.9445 38.3103 15.7284 38.6717 15.4124 38.9315C15.0962 39.1914 14.7 39.3338 14.2908 39.3343" stroke="black" stroke-linecap="round" stroke-linejoin="round"/>
<path d="M13.6454 44.4142C13.7041 43.9689 13.8494 42.7996 13.9894 41.6849C14.1228 40.6516 14.2414 39.6569 14.2881 39.3289L14.4668 37.9729" stroke="black" stroke-linecap="round" stroke-linejoin="round"/>
<path d="M21.8774 31.053C21.8774 31.053 20.1748 31.137 19.8454 32.5464" stroke="black" stroke-miterlimit="10"/>
<path d="M22.4961 34.777C22.9601 34.765 23.5628 34.697 23.7814 34.2264L22.6081 32.9317C22.3218 32.6145 22.1525 32.209 22.1281 31.7824C22.0814 31.0664 22.1654 29.9304 21.4801 29.1744" stroke="black" stroke-miterlimit="10"/>
<path d="M21.4928 32.9849C21.6849 32.7723 21.6944 32.4681 21.5141 32.3051C21.3339 32.1421 21.032 32.1823 20.84 32.3949C20.6479 32.6073 20.6383 32.9117 20.8185 33.0746C20.9988 33.2375 21.3007 33.1974 21.4928 32.9849Z" fill="black"/>
<path d="M21.3774 43.281L20.4934 38.9957" stroke="black" stroke-miterlimit="10"/>
<path d="M43.7867 62.5675L38.0894 67.2262C44.9441 77.6795 39.7561 79.5982 39.7561 79.5982C38.7497 79.7909 37.7335 79.9275 36.7121 80.0075C31.7574 80.3649 26.6748 79.0862 22.5908 76.2222C14.3241 70.4222 7.1241 58.8142 10.9641 48.7076C11.2872 47.8528 11.682 47.0266 12.1441 46.2382C12.5424 45.5529 13.0494 44.9369 13.6454 44.4142C14.6886 43.501 15.9733 42.9084 17.3452 42.7076C18.7169 42.5068 20.1176 42.7064 21.3788 43.2822C21.8616 43.5026 22.3182 43.7764 22.7401 44.0982C24.8988 45.7502 26.8614 48.0982 28.5534 50.5622C30.0557 52.7905 31.4077 55.1166 32.6001 57.5249C32.9294 58.1822 33.2281 58.8035 33.4921 59.3729C35.8854 58.4049 37.8921 56.7609 39.7587 54.9849C37.5014 59.1982 43.7867 62.5675 43.7867 62.5675Z" fill="#189DC7"/>
<path d="M39.8001 65.9753C39.6907 66.0593 39.5774 66.1473 39.4641 66.2313" stroke="black" stroke-miterlimit="10"/>
<path d="M22.9561 48.265C24.4672 51.1583 25.9784 54.057 27.4894 56.961C28.6294 59.153 30.5561 60.5063 33.2694 59.4677C36.2214 58.337 38.6028 56.1757 40.8054 53.973C43.0081 51.7703 45.2401 49.6637 48.4201 49.0957C52.5308 48.361 56.4201 50.601 59.2201 53.4317C59.4355 53.6475 59.5718 53.9298 59.6069 54.2327C59.6419 54.5357 59.5738 54.8417 59.4134 55.101C59.3105 55.2669 59.173 55.4087 59.0105 55.5167C58.8478 55.6247 58.6638 55.6965 58.471 55.7269C58.2781 55.7574 58.081 55.7459 57.893 55.6934C57.705 55.6409 57.5305 55.5485 57.3814 55.4223C56.0547 54.2903 53.8961 52.653 52.3948 52.6317" stroke="black" stroke-miterlimit="10"/>
<path d="M48.2987 56.5155C48.7601 56.8235 49.4001 57.1648 49.9334 57.1648" stroke="black" stroke-miterlimit="10"/>
<path d="M54.2107 53.1931C55.1947 53.6798 55.5534 55.1038 54.8587 55.9544C53.978 57.0474 52.8744 57.94 51.6214 58.5731C50.2508 59.2571 49.3708 58.8398 48.0214 58.0051" stroke="black" stroke-miterlimit="10"/>
<path d="M51.9334 54.4691C51.9334 54.4691 53.8827 54.9518 53.8307 56.8438C53.8273 56.9244 53.8129 57.0043 53.7881 57.0811" stroke="black" stroke-miterlimit="10"/>
<path d="M50.5561 55.6609C50.5561 55.6609 53.1708 57.3502 51.9268 58.4129" stroke="black" stroke-miterlimit="10"/>
<path d="M101.064 62.2822C97.984 70.7475 89.3614 70.9861 88.3747 70.9861C88.788 70.1155 88.9 68.5862 87.9947 65.9062C88.6012 65.0206 88.9204 63.9698 88.9092 62.8963C88.898 61.823 88.557 60.7791 87.932 59.9062C87.944 59.8955 87.9507 59.8808 87.9614 59.8702C88.3926 59.8439 88.8204 59.7792 89.24 59.6768C90.728 59.3222 93.6614 58.5435 95.9894 57.4475C97.568 56.7022 99.4094 57.8968 99.2747 59.6395C99.2747 59.6622 99.2747 59.6835 99.2667 59.7088C99.575 59.7087 99.8787 59.7828 100.152 59.9252C100.425 60.0676 100.66 60.2739 100.837 60.5267C101.013 60.7794 101.126 61.0708 101.166 61.3766C101.205 61.6822 101.17 61.993 101.064 62.2822Z" fill="#3D2FE8"/>
<path d="M61.5401 82.1371C60.5027 83.9171 58.8881 85.4331 57.3281 86.7558C51.8361 91.4038 44.6614 93.7638 37.4614 93.8558C30.2374 93.7638 23.0361 91.3958 17.5188 86.7891C0.0854371 72.2318 3.2361 55.0438 6.0561 47.0852C6.15542 46.81 6.28987 46.5488 6.4561 46.3078C6.67659 45.9853 6.96284 45.713 7.29606 45.509C7.62927 45.3049 8.00184 45.1737 8.38944 45.1238C9.86944 45.3278 11.2134 46.5558 10.9761 48.4572C10.9761 48.5305 10.9468 48.6318 10.9401 48.7052C7.10276 58.8118 14.3054 70.4198 22.5668 76.2198C26.3148 78.8505 30.9041 80.1438 35.4641 80.0598H35.5161C35.9071 80.0518 36.2978 80.0337 36.6881 80.0051C39.2494 79.8185 41.7387 79.2051 44.2041 78.4625C47.0974 77.5971 49.9587 76.5478 52.8494 75.8131C53.8654 75.5545 54.8841 75.3051 55.9081 75.0718C56.499 74.9506 57.1034 74.9089 57.7054 74.9478C61.2561 75.1878 63.7507 78.3451 61.5401 82.1371Z" fill="#D7E8F0"/>
<path d="M62.4174 82.1371C61.3801 83.9171 59.7641 85.4331 58.2041 86.7558C52.4934 91.5931 44.9588 93.9558 37.4574 93.8558C30.2334 93.7638 23.0321 91.3958 17.5148 86.7891C0.0854828 72.2318 3.23614 55.0438 6.05614 47.0852C6.15547 46.81 6.28991 46.5488 6.45614 46.3078C6.67663 45.9853 6.96289 45.713 7.2961 45.509C7.62931 45.3049 8.00199 45.1737 8.38946 45.1238C9.86946 45.3278 11.2135 46.5558 10.9761 48.4572C10.9761 48.5305 10.9468 48.6318 10.9401 48.7052C7.10281 58.8118 14.3055 70.4198 22.5668 76.2198C26.3148 78.8505 30.9041 80.1438 35.4641 80.0598H35.5161C36.2032 80.0705 36.8864 80.0523 37.5654 80.0051C40.1268 79.8185 42.6148 79.2051 45.0814 78.4625C47.9748 77.5971 50.8361 76.5478 53.7267 75.8131C54.7414 75.5545 55.7614 75.3051 56.7841 75.0718C57.0881 75.0097 57.3958 74.9682 57.7054 74.9478C61.6974 74.6798 64.8067 78.0385 62.4174 82.1371Z" fill="#D7E8F0"/>
<path d="M38.6614 93.8313L40.4161 96.314C40.4161 96.314 51.0334 96.7273 56.8441 101.605C57.9188 102.507 57.2761 104.261 55.8734 104.261C55.5217 104.262 55.181 104.138 54.9121 103.911C53.5401 102.759 48.2988 99.138 36.4428 99.0287C24.8908 98.9207 20.4601 102.495 19.2348 103.798C19.0951 103.945 18.9267 104.062 18.74 104.142C18.5533 104.221 18.3524 104.262 18.1495 104.261H17.9215C16.4815 104.261 15.8721 102.442 17.0095 101.559C21.8601 97.7873 32.7334 96.5847 32.7334 96.5847L34.5894 93.7847" fill="#189DC7"/>
<path d="M85.6494 80.0649C85.6494 80.0649 88.9014 83.1543 87.8867 92.7316C87.8127 93.4155 87.575 94.0713 87.1934 94.6436L86.84 95.1769C86.2606 96.0447 85.3868 96.6736 84.38 96.9476C82.256 97.5276 78.4027 98.8716 76.0227 101.418C75.0174 102.497 75.7654 104.254 77.24 104.254C77.515 104.255 77.7859 104.188 78.0286 104.058C78.2711 103.929 78.478 103.742 78.6307 103.513C79.6 102.054 82.5347 98.9569 89.6134 99.0223C97.5974 99.0956 100.813 102.27 101.844 103.638C101.986 103.829 102.171 103.984 102.384 104.091C102.597 104.198 102.831 104.254 103.069 104.254C103.368 104.254 103.659 104.166 103.909 104.002C104.158 103.838 104.354 103.605 104.473 103.331C104.592 103.057 104.628 102.755 104.577 102.461C104.527 102.167 104.391 101.894 104.188 101.676C101.075 98.2929 97.2667 97.0316 95.1654 96.5636C94.1096 96.336 93.177 95.7221 92.5507 94.8423C92.0712 94.1636 91.7984 93.3605 91.7654 92.5303C91.648 89.5609 91.5867 82.3529 93.5987 80.0676" fill="#189DC7"/>
<path d="M44.2307 78.4661C49.9494 75.6901 56.1561 73.8688 62.2587 72.1541C68.4001 70.4288 74.6014 68.9235 80.8214 67.5088C83.3067 66.9448 85.8147 66.4422 88.288 65.8062" stroke="black" stroke-miterlimit="10"/>
<path d="M49.5961 57.1265H49.6001H49.6027" stroke="black" stroke-miterlimit="10"/>
<path d="M48.9547 56.7651C48.5961 57.1198 47.3161 59.0144 46.9947 59.3544C45.2294 61.2463 43.3542 63.0326 41.3787 64.7038C40.8814 65.1171 40.3547 65.5438 39.8001 65.9758C39.6907 66.0598 39.5774 66.1478 39.4641 66.2318C35.7041 69.0851 30.7974 71.8318 26.2641 70.0718C26.1441 70.0278 26.0268 69.9771 25.9108 69.9251C18.9574 66.8118 14.0974 59.0144 13.6734 51.4878C13.6588 51.2425 13.6508 50.9985 13.6481 50.7571C13.6108 48.6998 13.9148 46.6425 15.8881 45.5571" stroke="black" stroke-miterlimit="10"/>
<path d="M10.9748 48.6784L11.0028 48.4597C11.4454 44.9104 6.40546 43.7131 5.20947 47.0851C2.3908 55.0424 -0.761194 72.2264 16.6761 86.7863C27.9308 96.1877 46.1521 96.253 57.3641 86.7557C58.9241 85.4343 60.5387 83.9157 61.5774 82.1357C64.2054 77.6344 60.1921 74.025 55.6654 75.133" stroke="black" stroke-miterlimit="10"/>
<path d="M38.6614 93.8313L40.4161 96.314C40.4161 96.314 51.0334 96.7273 56.8441 101.605C57.9188 102.507 57.2761 104.261 55.8734 104.261C55.5217 104.262 55.181 104.138 54.9121 103.911C53.5401 102.759 48.2988 99.138 36.4428 99.0287C24.8908 98.9207 20.4601 102.495 19.2348 103.798C19.0951 103.945 18.9267 104.062 18.74 104.142C18.5533 104.221 18.3524 104.262 18.1495 104.261H17.9215C16.4815 104.261 15.8721 102.442 17.0095 101.559C21.8601 97.7873 32.7334 96.5847 32.7334 96.5847L34.5894 93.7847" stroke="black" stroke-miterlimit="10"/>
<path d="M32.7334 57.3119C37.1841 56.1119 39.0174 49.8333 39.7561 45.6119" stroke="black" stroke-miterlimit="10"/>
<path d="M28.5494 50.5662C29.7858 50.4043 30.9601 49.9281 31.9598 49.1829C32.9597 48.4378 33.7517 47.4487 34.2601 46.3102C34.3665 46.0837 34.4182 45.8356 34.4113 45.5854C34.4044 45.3353 34.3389 45.0904 34.2201 44.8702C33.7348 43.9716 33.0108 42.9302 33.1828 41.8529C33.3068 41.0929 33.9321 40.5582 34.6494 40.3862C35.013 40.2909 35.396 40.2974 35.7561 40.4049C35.972 40.4661 36.1716 40.5745 36.3404 40.7222C36.5092 40.8701 36.6429 41.0536 36.7321 41.2596C36.9068 41.6689 36.6988 42.0742 36.3774 42.3409C36.0561 42.6076 35.6801 42.7022 35.2881 42.8089C35.2374 42.8236 35.0988 42.8529 34.9454 42.8822" stroke="black" stroke-miterlimit="10"/>
<path d="M88.2827 65.8037C88.2827 65.8037 97.056 63.9664 98.704 61.3197C99.013 60.8372 99.2055 60.2895 99.2667 59.7197" stroke="black" stroke-miterlimit="10"/>
<path d="M45.1121 61.2837C60.4147 59.6583 77.6867 59.8983 77.6867 59.8983H87.38C88.0064 59.8993 88.6308 59.8258 89.24 59.6797C90.728 59.325 93.6614 58.5477 95.9894 57.4503C97.568 56.705 99.4094 57.8997 99.2747 59.6437C99.2747 59.665 99.2747 59.6877 99.2667 59.713C99.5743 59.7131 99.8772 59.7874 100.15 59.9294C100.423 60.0715 100.657 60.2773 100.834 60.5293C101.01 60.7813 101.123 61.0721 101.163 61.377C101.203 61.6819 101.169 61.9921 101.064 62.281C97.7947 71.2663 88.2827 70.985 88.2827 70.985C87.0667 71.021 85.8534 71.069 84.636 71.1316C73.9121 71.653 63.2827 73.1583 52.8774 75.8156C49.9867 76.5503 47.1254 77.5983 44.2321 78.465C41.7654 79.2103 39.2734 79.8196 36.7121 80.0063C31.7574 80.365 26.6748 79.085 22.5908 76.221C13.6455 69.9436 5.9468 56.8557 12.1441 46.2317C14.3321 42.4823 19.2868 41.4557 22.7401 44.0983C27.6108 47.825 31.5014 55.085 33.4974 59.3677" stroke="black" stroke-miterlimit="10"/>
<path d="M100.861 80.0649H79.5654" stroke="black" stroke-miterlimit="10"/>
<path d="M75.2667 75.7635C75.2699 74.6235 75.7241 73.5312 76.5299 72.7249C77.3359 71.9188 78.4282 71.4643 79.5681 71.4608H100.867C102.007 71.4639 103.099 71.9183 103.906 72.7246C104.712 73.5307 105.166 74.6233 105.169 75.7635" stroke="black" stroke-miterlimit="10"/>
<path d="M105.588 77.289C105.589 77.6539 105.518 78.0155 105.379 78.3528C105.239 78.6903 105.035 78.9967 104.777 79.2547C104.519 79.5127 104.212 79.7171 103.875 79.8562C103.537 79.9952 103.176 80.0662 102.811 80.065H77.6107C76.9799 80.0052 76.3978 79.7004 75.9894 79.216C75.581 78.7315 75.379 78.1062 75.4268 77.4744C75.4747 76.8426 75.7686 76.2547 76.2452 75.8374C76.722 75.4199 77.3435 75.2063 77.976 75.2423H103.176C103.623 75.2416 104.064 75.3492 104.461 75.5562C104.857 75.7631 105.198 76.063 105.453 76.4303C105.543 76.7078 105.588 76.9975 105.588 77.289Z" fill="#D7E8F0"/>
<path d="M105.588 77.2889C105.589 77.6538 105.518 78.0154 105.379 78.3527C105.239 78.6901 105.035 78.9966 104.777 79.2546C104.519 79.5126 104.212 79.717 103.875 79.8561C103.537 79.9951 103.176 80.0661 102.811 80.0649H77.6107C77.241 80.073 76.8733 80.0071 76.5293 79.8713C76.1854 79.7353 75.8719 79.5321 75.6077 79.2734C75.3433 79.0147 75.1331 78.7059 74.9898 78.365C74.8463 78.0242 74.7725 77.6581 74.7725 77.2882C74.7725 76.9183 74.8463 76.5522 74.9898 76.2113C75.1331 75.8703 75.3433 75.5615 75.6077 75.3029C75.8719 75.0442 76.1854 74.841 76.5293 74.7051C76.8733 74.5693 77.241 74.5034 77.6107 74.5115H102.811C103.397 74.5113 103.969 74.6967 104.444 75.0414C104.919 75.3861 105.272 75.8722 105.453 76.4302C105.543 76.7077 105.588 76.9974 105.588 77.2889Z" stroke="black" stroke-miterlimit="10"/>
<path d="M39.7081 45.5132L39.6574 45.9412C39.6342 46.1354 39.5408 46.3143 39.3946 46.4443C39.2484 46.5743 39.0597 46.6462 38.8641 46.6465H36.0948C35.8992 46.6462 35.7105 46.5743 35.5642 46.4443C35.4181 46.3143 35.3246 46.1354 35.3014 45.9412L34.9441 42.8745C35.0974 42.8452 35.2361 42.8158 35.2868 42.8012C35.6788 42.6945 36.0588 42.6038 36.3761 42.3332C36.6934 42.0625 36.9094 41.6665 36.7308 41.2518C36.6416 41.046 36.5078 40.8624 36.339 40.7146C36.1702 40.5668 35.9706 40.4584 35.7548 40.3972C35.3945 40.2897 35.0117 40.2832 34.6481 40.3785L34.5641 39.6478C34.5517 39.5362 34.563 39.4232 34.5973 39.3162C34.6314 39.2092 34.6878 39.1106 34.7626 39.0269C34.8374 38.943 34.9292 38.876 35.0316 38.83C35.1341 38.784 35.2452 38.7601 35.3574 38.7598H39.6068C39.719 38.7602 39.8298 38.7844 39.9322 38.8304C40.0345 38.8765 40.126 38.9436 40.2006 39.0273C40.2753 39.111 40.3316 39.2096 40.3657 39.3165C40.3998 39.4234 40.4112 39.5362 40.3988 39.6478L40.3001 40.4812" stroke="black" stroke-miterlimit="10"/>
<path d="M40.0774 42.3864L40.0734 42.4157" stroke="black" stroke-miterlimit="10"/>
<path d="M39.8694 44.1478V44.1358" stroke="black" stroke-miterlimit="10"/>
<path d="M39.9094 44.1474C39.8976 44.1454 39.8853 44.1454 39.8734 44.1474C39.8566 44.1455 39.8396 44.1455 39.8228 44.1474C39.65 44.1481 39.4837 44.2135 39.3569 44.3309C39.2301 44.4482 39.152 44.609 39.138 44.7813C39.1241 44.9534 39.1754 45.1246 39.2817 45.2609C39.388 45.3971 39.5416 45.4885 39.7121 45.5167C39.7856 45.5314 39.8613 45.5314 39.9348 45.5167C40.2676 45.4637 40.5714 45.2957 40.7934 45.0421C41.0893 44.5554 41.2949 44.0193 41.4001 43.4594C41.402 43.4538 41.402 43.4477 41.4001 43.4421C41.4814 43.0295 41.5124 42.6087 41.4921 42.1887C41.4921 42.0087 41.4694 41.8301 41.4481 41.6554C41.4074 41.3632 41.2738 41.0918 41.0672 40.8813C40.8604 40.6708 40.5916 40.5322 40.3001 40.4861C40.2854 40.4861 40.2681 40.4861 40.2534 40.4781C39.6934 40.4087 38.9081 40.6207 38.7628 41.2527C38.6294 41.8234 39.2481 42.3127 39.7561 42.3567C39.7561 42.3567 39.8894 42.3741 40.0774 42.3861C40.4534 42.4114 41.0788 42.4074 41.4921 42.1887C41.5529 42.1573 41.6101 42.1193 41.6628 42.0754" stroke="black" stroke-miterlimit="10"/>
<path d="M40.4934 42.4172H40.4014H39.6908H39.3774C39.1655 42.4178 38.9621 42.4996 38.8086 42.6457C38.655 42.7917 38.5633 42.9909 38.5521 43.2025C38.5417 43.4081 38.608 43.6101 38.7381 43.7697C38.8681 43.9293 39.0526 44.035 39.2561 44.0665C40.1761 44.2145 41.2267 44.2452 41.4067 43.4212" stroke="black" stroke-miterlimit="10"/>
<path d="M85.6494 80.0649C85.6494 80.0649 88.9014 83.1543 87.8867 92.7316C87.8127 93.4155 87.575 94.0713 87.1934 94.6436L86.84 95.1769C86.2606 96.0447 85.3868 96.6736 84.38 96.9476C82.256 97.5276 78.4027 98.8716 76.0227 101.418C75.0174 102.497 75.7654 104.254 77.24 104.254C77.515 104.255 77.7859 104.188 78.0286 104.058C78.2711 103.929 78.478 103.742 78.6307 103.513C79.6 102.054 82.5347 98.9569 89.6134 99.0223C97.5974 99.0956 100.813 102.27 101.844 103.638C101.986 103.829 102.171 103.984 102.384 104.091C102.597 104.198 102.831 104.254 103.069 104.254C103.368 104.254 103.659 104.166 103.909 104.002C104.158 103.838 104.354 103.605 104.473 103.331C104.592 103.057 104.628 102.755 104.577 102.461C104.527 102.167 104.391 101.894 104.188 101.676C101.075 98.2929 97.2667 97.0316 95.1654 96.5636C94.1096 96.336 93.177 95.7221 92.5507 94.8423C92.0712 94.1636 91.7984 93.3605 91.7654 92.5303C91.648 89.5609 91.5867 82.3529 93.5987 80.0676" stroke="black" stroke-miterlimit="10"/>
<path d="M78.8894 57.6793V57.8954C78.8894 59.374 77.6974 59.6287 76.6681 59.654L56.7468 60.118C55.8734 60.1393 55.1388 59.3767 55.1201 58.422V58.382C55.1201 57.4487 55.8081 56.6687 56.6694 56.6487C56.6694 56.6487 67.8147 56.334 76.4441 56.0967C76.6094 56.6193 77.0094 57.022 77.5107 57.338C77.9261 57.5864 78.4061 57.7052 78.8894 57.6793Z" stroke="black" stroke-miterlimit="10"/>
<path d="M89.4787 36.5994C89.4798 36.8428 89.424 37.0828 89.316 37.3008L80.4067 55.5647C80.3022 55.7767 80.1526 55.9634 79.9683 56.1115C79.7841 56.2595 79.5697 56.3655 79.3401 56.4221C78.9722 56.5163 78.5827 56.4766 78.2414 56.3101C77.9678 56.1754 77.7375 55.9663 77.577 55.707C77.4165 55.4477 77.3321 55.1485 77.3334 54.8434C77.3341 54.7685 77.3394 54.6937 77.3494 54.6194C77.3731 54.4541 77.4226 54.2935 77.4961 54.1434L86.4041 35.8768C86.565 35.549 86.8322 35.2853 87.162 35.1288C87.4919 34.9724 87.8651 34.9321 88.2208 35.0149C88.5766 35.0976 88.8936 35.2984 89.1207 35.5844C89.3476 35.8705 89.471 36.2249 89.4707 36.5901L89.4787 36.5994Z" stroke="black" stroke-miterlimit="10"/>
<path d="M17.3508 34.7969C17.3401 34.7596 17.3254 34.7236 17.3134 34.6876C17.3014 34.6516 17.2841 34.6103 17.2734 34.5703" stroke="black" stroke-linecap="round" stroke-linejoin="round"/>
<path d="M17.3508 34.7983L17.6241 34.5236L18.1468 33.9943" stroke="black" stroke-linecap="round" stroke-linejoin="round"/>
<path d="M20.4268 35.5213C20.4268 35.5213 20.7774 36.568 22.1174 36.6386" stroke="black" stroke-miterlimit="10"/>
<path d="M14.4668 37.9729C13.2668 38.5796 11.9054 37.2676 12.0001 36.1862C12.0614 35.4449 11.8934 34.933 11.3454 34.3956C11.3094 34.3596 11.2761 34.3222 11.2441 34.2862C11.0354 34.0593 10.8998 33.7749 10.8546 33.4698C10.8094 33.1649 10.8569 32.8533 10.9908 32.5756C11.2401 31.9956 11.7774 31.6556 11.4041 31.0302C11.2402 30.7598 11.1206 30.465 11.0494 30.1569C10.9749 29.7484 10.9889 29.3286 11.0904 28.9258C11.1918 28.5232 11.3784 28.1469 11.6374 27.8222C12.1868 27.1556 13.0814 27.3396 13.8161 27.1062C14.7001 26.8249 15.1134 25.8742 16.0414 25.5822C16.5054 25.4369 16.9361 25.5022 17.4001 25.6076C17.7908 25.6996 18.1828 25.8022 18.5628 25.9222C18.9428 26.0422 19.2894 26.1449 19.6694 26.0316C20.1668 25.8862 20.5494 25.4289 21.0908 25.4249C21.6321 25.4209 22.0481 25.7396 22.2908 26.1849C22.6748 26.8836 22.6774 27.8996 22.3161 28.5022C21.9428 29.1262 21.1614 29.3902 20.4894 29.5249C19.6308 29.7009 18.7428 29.7476 17.8734 29.8249L17.3681 29.9489C17.1758 30.0086 17.0152 30.142 16.9212 30.32C16.8272 30.498 16.8076 30.706 16.8668 30.8982C17.1794 31.9742 17.6096 33.0125 18.1494 33.9942" stroke="black" stroke-miterlimit="10"/>
<path d="M18.1468 38.1261C18.1468 38.1261 20.7921 40.0634 22.3001 38.9954C23.8081 37.9274 22.9561 34.7968 22.9561 34.7968" stroke="black" stroke-linecap="round" stroke-linejoin="round"/>
<path d="M36.8388 37.4224C36.8388 37.4224 35.7148 36.6624 36.4294 35.8864C37.1441 35.1104 36.1921 34.0864 36.1921 34.0864" stroke="black" stroke-miterlimit="10"/>
<path d="M37.8761 37.5542C37.8761 37.5542 38.6201 37.0516 38.1428 36.5369C37.6654 36.0222 38.3014 35.3369 38.3014 35.3369" stroke="black" stroke-miterlimit="10"/>
<path d="M43.0028 30.312C51.097 30.312 57.6587 23.7502 57.6587 15.656C57.6587 7.56173 51.097 1 43.0028 1C34.9085 1 28.3468 7.56173 28.3468 15.656C28.3468 23.7502 34.9085 30.312 43.0028 30.312Z" stroke="#CCDDE2" stroke-miterlimit="10"/>
<path d="M43.0028 23.7049C47.4482 23.7049 51.0521 20.101 51.0521 15.6556C51.0521 11.21 47.4482 7.60626 43.0028 7.60626C38.5572 7.60626 34.9534 11.21 34.9534 15.6556C34.9534 20.101 38.5572 23.7049 43.0028 23.7049Z" stroke="#CCDDE2" stroke-miterlimit="10"/>
<path d="M43.0027 17.0355C43.7649 17.0355 44.3827 16.4176 44.3827 15.6555C44.3827 14.8933 43.7649 14.2755 43.0027 14.2755C42.2406 14.2755 41.6227 14.8933 41.6227 15.6555C41.6227 16.4176 42.2406 17.0355 43.0027 17.0355Z" stroke="#CCDDE2" stroke-miterlimit="10"/>
<path d="M45.8601 11.0479L43.7294 14.4825" stroke="#CCDDE2" stroke-miterlimit="10"/>
<path d="M43.0027 7.60626V9.03826" stroke="#CCDDE2" stroke-miterlimit="10"/>
<path d="M51.0521 15.6557H49.6947" stroke="#CCDDE2" stroke-miterlimit="10"/>
<path d="M43.0027 23.7065V22.3145" stroke="#CCDDE2" stroke-miterlimit="10"/>
<path d="M34.9521 15.6557H36.1761" stroke="#CCDDE2" stroke-miterlimit="10"/>
<path d="M57.0494 40.0238C60.0611 40.0238 62.5027 37.5822 62.5027 34.5705C62.5027 31.5587 60.0611 29.1172 57.0494 29.1172C54.0377 29.1172 51.5961 31.5587 51.5961 34.5705C51.5961 37.5822 54.0377 40.0238 57.0494 40.0238Z" fill="#3D2FE8"/>
<path d="M58.8427 32.749C58.7658 32.5717 58.6623 32.4072 58.5361 32.261C58.3199 32.0054 58.0181 31.8373 57.687 31.7882C57.3559 31.7392 57.0183 31.8125 56.7374 31.9944C56.5542 32.1138 56.401 32.2741 56.2899 32.4626C56.179 32.6512 56.113 32.8628 56.0974 33.081C55.8103 32.9758 55.4969 32.9668 55.2042 33.0553C54.9117 33.1437 54.6557 33.325 54.4751 33.5717C54.2945 33.8184 54.199 34.117 54.203 34.4228C54.207 34.7284 54.3103 35.0245 54.4974 35.2664C54.8881 35.7757 55.5521 36.1104 56.1534 36.305C56.4687 36.406 56.7935 36.4748 57.1227 36.5104C57.2894 36.529 58.2401 36.657 58.3227 36.5104C58.9161 35.5824 59.3374 33.8824 58.8427 32.749Z" fill="white"/>
<g opacity="0.72">
<path opacity="0.72" d="M70.6414 32.313C72.2998 32.313 73.6441 30.9687 73.6441 29.3103C73.6441 27.6521 72.2998 26.3077 70.6414 26.3077C68.9831 26.3077 67.6387 27.6521 67.6387 29.3103C67.6387 30.9687 68.9831 32.313 70.6414 32.313Z" fill="#3D2FE8"/>
<path opacity="0.72" d="M71.9441 29.8422C72.0185 29.7665 72.0805 29.6797 72.1281 29.5849C72.2137 29.4214 72.2368 29.2322 72.1928 29.053C72.1489 28.8738 72.041 28.7168 71.8894 28.6116C71.7904 28.5432 71.6769 28.4986 71.5577 28.4814C71.4387 28.4644 71.3171 28.4752 71.2028 28.5129C71.1964 28.3446 71.1353 28.183 71.029 28.0525C70.9226 27.922 70.7768 27.8296 70.6133 27.7892C70.4499 27.7489 70.2777 27.7628 70.1228 27.8289C69.968 27.8949 69.8388 28.0096 69.7548 28.1556C69.5914 28.4857 69.528 28.8565 69.5721 29.2222C69.5872 29.4028 69.6201 29.5814 69.6708 29.7556C69.6961 29.8449 69.8295 30.3556 69.9201 30.3716C70.5161 30.4716 71.4708 30.3316 71.9441 29.8422Z" fill="white"/>
</g>
<path d="M66.3386 43.4897L64.9112 46.5079C64.3937 47.6023 64.8613 48.909 65.9556 49.4266L68.9738 50.8539C70.0682 51.3715 71.375 50.9038 71.8926 49.8094L73.3199 46.7913C73.8374 45.6969 73.3698 44.3901 72.2754 43.8726L69.2572 42.4453C68.1629 41.9277 66.8561 42.3953 66.3386 43.4897Z" fill="#3D2FE8"/>
<path d="M72.5054 47.3197L71.4721 49.505C71.2553 49.9602 70.8671 50.3111 70.3926 50.4813C69.9179 50.6513 69.3953 50.6267 68.9387 50.413L66.3174 49.173C65.8625 48.9559 65.5118 48.5678 65.3421 48.0931C65.1722 47.6186 65.1969 47.0961 65.4107 46.6397L65.4801 46.493C66.1921 45.925 67.4227 45.1597 67.8721 46.201C68.5187 47.705 69.3601 47.2197 70.4347 46.5903C71.3321 46.0597 72.4094 45.8823 72.5054 47.3197Z" fill="white"/>
<path d="M68.4454 44.9971C68.8909 44.9971 69.2521 44.6359 69.2521 44.1905C69.2521 43.7449 68.8909 43.3838 68.4454 43.3838C67.9999 43.3838 67.6387 43.7449 67.6387 44.1905C67.6387 44.6359 67.9999 44.9971 68.4454 44.9971Z" fill="white"/>
<path d="M82.208 33.5903C82.3684 33.8827 82.4848 34.1973 82.5534 34.5237C82.6755 35.1207 82.6404 35.7394 82.4516 36.3187C82.2627 36.8982 81.9266 37.4186 81.476 37.829C81.1187 38.145 80.664 38.3917 80.3027 38.7223C80.0391 38.9498 79.845 39.247 79.7427 39.5797C79.724 39.6934 79.6783 39.8009 79.6094 39.893C79.3987 40.1197 79.192 39.7597 79.0094 39.6983C78.715 39.6026 78.3956 39.6182 78.112 39.7423C77.3663 40.0542 76.5358 40.0985 75.7611 39.8678C74.9865 39.6371 74.3155 39.1455 73.8618 38.4766C73.4082 37.8077 73.1999 37.0023 73.2722 36.1974C73.3446 35.3923 73.6931 34.6371 74.2587 34.0597C74.8174 33.4903 75.548 33.1263 76.2587 32.7557C76.88 32.4263 77.4987 32.0757 78.1734 31.8784C79.7547 31.405 81.4427 32.193 82.208 33.5903Z" fill="#3D2FE8"/>
<path d="M75.84 37.709C76.2598 37.709 76.6 37.3688 76.6 36.949C76.6 36.5293 76.2598 36.189 75.84 36.189C75.4203 36.189 75.08 36.5293 75.08 36.949C75.08 37.3688 75.4203 37.709 75.84 37.709Z" fill="white"/>
<path d="M77.8867 36.6142C78.3064 36.6142 78.6467 36.274 78.6467 35.8542C78.6467 35.4345 78.3064 35.0942 77.8867 35.0942C77.467 35.0942 77.1267 35.4345 77.1267 35.8542C77.1267 36.274 77.467 36.6142 77.8867 36.6142Z" fill="white"/>
<path d="M79.8067 35.5877C80.2264 35.5877 80.5667 35.2474 80.5667 34.8277C80.5667 34.408 80.2264 34.0677 79.8067 34.0677C79.387 34.0677 79.0467 34.408 79.0467 34.8277C79.0467 35.2474 79.387 35.5877 79.8067 35.5877Z" fill="white"/>
<path d="M56.6347 10.2677C56.6347 10.2677 61.6387 25.745 80.9014 24.909C87.3014 24.109 94.9187 24.909 101.701 33.8423C112.012 47.4317 107.872 62.5702 103.187 72.1795" stroke="#CCDDE2" stroke-miterlimit="10"/>
<g opacity="0.54">
<path opacity="0.54" d="M84.4787 16.3463C84.4598 16.5797 84.4238 16.8115 84.3707 17.0396L83.7707 19.6423C83.5867 20.4423 83.38 21.2796 82.8094 21.8636C81.7427 22.9516 79.9694 22.7023 78.4867 22.3729L74.8467 21.5649C74.0107 21.3796 73.1614 21.1889 72.4121 20.7743C71.6627 20.3596 71.0121 19.6809 70.8387 18.8423C70.7054 18.2236 70.8481 17.5836 70.9841 16.9676L71.5334 14.4689C71.7161 13.6503 71.9214 12.7863 72.5121 12.1903C73.5641 11.1303 75.3121 11.3716 76.7654 11.6876L80.4934 12.4983C82.7414 12.9836 84.6574 14.0263 84.4787 16.3463Z" fill="#3D2FE8"/>
<path opacity="0.54" d="M79.4587 16.4157C79.6146 16.5606 79.7297 16.7441 79.7921 16.9476C79.8546 17.1512 79.8623 17.3676 79.8147 17.575C79.767 17.7825 79.6654 17.9737 79.5203 18.1296C79.3753 18.2853 79.1917 18.4001 78.9881 18.4624L77.8788 18.8024L76.7694 19.1424C76.5658 19.2046 76.3494 19.2122 76.142 19.1644C75.9346 19.1165 75.7434 19.015 75.5876 18.8698C75.4318 18.7248 75.317 18.5413 75.2546 18.3377C75.1922 18.1342 75.1843 17.9178 75.2321 17.7104L75.4987 16.5797L75.7588 15.4504C75.8062 15.2428 75.9075 15.0514 76.0526 14.8954C76.1977 14.7396 76.3812 14.6245 76.5848 14.5621C76.7884 14.4996 77.0047 14.492 77.2122 14.5397C77.4198 14.5876 77.611 14.6892 77.7667 14.8344L78.6161 15.625L79.4587 16.4157Z" fill="white"/>
</g>
<path d="M5.86414 104.255H121" stroke="black" stroke-miterlimit="10"/>
</svg>
