<svg width="120" height="106" viewBox="0 0 120 106" fill="none" xmlns="http://www.w3.org/2000/svg">
<path d="M23.9999 33.3999C23.9999 33.3999 16.8226 12.1626 41.8572 14.7546C66.8919 17.3466 54.9306 7.94659 64.3906 2.11326C73.8506 -3.72008 101.724 14.4279 90.0626 31.9319C78.4012 49.4359 108.699 33.4239 115.019 59.7466C118.919 75.9906 109.243 87.9466 101.26 94.7239" stroke="#CCDDE2" stroke-miterlimit="10"/>
<path d="M103.701 74.4297C101.82 63.535 95.1587 53.7857 84.336 50.2963C81.5675 49.4087 78.7364 48.729 75.8667 48.263V48.2777C75.7171 49.1821 75.3627 50.0405 74.8307 50.787C73.7027 52.3323 72.148 53.6017 70.348 54.263C68.5107 54.943 66.2347 55.031 64.5293 53.9617C63.5027 53.319 62.5067 52.187 62.3267 50.9657C62.1213 49.5897 62.8227 48.287 63.8093 47.3777C55.4467 47.4457 47.58 48.8217 41.276 50.3883C41.4945 51.3031 41.7971 52.1958 42.18 53.055C42.7159 54.2527 43.4731 55.3385 44.412 56.255C45.5831 55.0949 46.6084 53.7965 47.4653 52.3883C48.2851 52.6566 49.008 53.1601 49.544 53.8359C50.0799 54.5118 50.4055 55.3302 50.48 56.1897V56.2337C50.8107 59.355 47.8053 61.7004 45.28 63.143C42.3627 64.8204 39.1107 66.0763 35.916 67.1203C34.5987 67.5523 32.8867 67.9204 31.496 67.4697C31.3463 67.422 31.2001 67.3636 31.0587 67.295C29.672 66.615 28.744 65.1897 28.02 63.887C25.9573 60.187 24.616 56.1537 23.7067 52.0137C17.396 52.8203 16.6733 48.547 16.2987 47.499L10.9 62.591C10.6168 63.6758 10.5863 64.8112 10.8104 65.9097C11.0347 67.0082 11.5079 68.0408 12.1936 68.9278C12.8792 69.8149 13.7592 70.5329 14.7657 71.0268C15.7724 71.5206 16.8788 71.777 18 71.7764H40.3493L50.5013 97.8164L53.3787 105.207H69.8133C68.48 105.207 67.7507 104.882 67.2213 104.351C66.6747 103.804 66.3669 103.063 66.3653 102.29C66.3653 100.69 67.6787 99.3777 69.8133 99.3777H69.964C69.8027 99.3777 69.648 99.363 69.4867 99.3484C69.5867 99.3376 69.6859 99.321 69.784 99.299C69.6783 99.2965 69.5728 99.2885 69.468 99.275C70.4308 99.1613 71.3231 98.7129 71.9887 98.008C72.6543 97.3032 73.0509 96.3868 73.1093 95.419C73.112 95.3688 73.112 95.3185 73.1093 95.2684V95.191C73.0864 94.1989 72.7071 93.2481 72.0411 92.5125C71.3749 91.7768 70.4663 91.3054 69.4813 91.1844C69.5933 91.175 69.7 91.1657 69.808 91.1657C69.7107 91.1417 69.6027 91.127 69.5013 91.1123C69.6613 91.0977 69.8227 91.087 69.9773 91.087L82.0014 91.151L84.2133 91.1604H86.8387C86.96 91.1604 87.0827 91.1604 87.1987 91.175L91.0987 91.195L93.704 91.2097C94.793 91.2188 95.8337 91.6587 96.5991 92.4334C97.3644 93.208 97.7919 94.2541 97.788 95.343C97.7867 95.9588 97.6439 96.5658 97.3707 97.1177C98.4886 96.9746 99.5251 96.4577 100.312 95.651C102.188 93.735 102.996 90.867 103.555 88.3177C104.543 83.7764 104.484 78.991 103.701 74.4297ZM73.3227 74.7364C71.0573 78.223 67.2 77.9097 67.2 77.9097C67.2 77.9097 66.88 78.2217 66.1333 76.8937C65.3867 75.5657 63.26 74.6577 63.26 74.6577C63.0907 75.991 62.74 78.0177 59.26 75.391C55.78 72.7644 56.8293 68.935 57.1267 66.9123C57.424 64.8897 58.6093 64.219 58.6093 64.219L60.0093 63.4803C60.0093 63.4803 55.96 62.439 55.7653 62.4004C55.5707 62.3617 51.964 59.3417 55.624 58.5444C59.284 57.747 64.9893 60.9177 66.092 61.5444C67.1947 62.171 73.6387 67.6217 73.6387 67.6217C73.6387 67.6217 75.6 71.255 73.3227 74.7364Z" fill="#189DC7"/>
<path d="M23.7012 52.016C23.7012 52.016 26.7532 51.6453 27.8958 49.4667L26.8998 55.0547C26.8998 55.0547 39.0412 50.9213 41.2678 50.388C41.2678 50.388 41.9852 55.0133 44.8412 56.2547L47.7878 52.508C47.7878 52.508 51.4825 53.4413 50.4718 58.476C49.4612 63.5107 35.4825 67.7187 33.1118 67.6213C30.7412 67.524 28.1892 66.0653 25.5758 58.2267L23.7012 52.016Z" fill="#189DC7"/>
<path d="M28.6737 39.5682C29.447 40.8268 30.2244 42.0828 31.027 43.3228C31.5217 44.0868 32.423 45.1762 31.4644 45.9748C31.1524 46.214 30.7756 46.3535 30.383 46.3748C29.767 46.4295 29.1204 46.2815 28.7457 45.7522L26.879 42.6588C26.507 42.0419 25.9162 41.5878 25.2245 41.3866C24.5326 41.1855 23.7905 41.2523 23.1457 41.5735" stroke="black" stroke-miterlimit="10"/>
<path d="M35.7332 43.6425C36.2212 44.8025 35.8905 45.5505 35.3199 45.9265C34.3865 46.5385 33.1372 46.2451 32.4759 45.3518L28.6799 39.5745" stroke="black" stroke-miterlimit="10"/>
<path d="M31.8867 37.8883C33.268 39.5683 35.0107 42.6883 35.9747 43.9909C36.9387 45.2936 38.4293 44.5083 38.4293 44.5083C39.64 43.8563 39.4347 42.7749 38.9053 41.4616C37.6013 38.2376 35.74 36.0936 33.664 34.6883C27.2307 30.3363 20.6307 33.5469 18.6667 41.0589L10.9 62.5909C10.6168 63.6759 10.5863 64.8112 10.8104 65.9097C11.0347 67.0083 11.5079 68.0408 12.1936 68.9279C12.8792 69.8149 13.7592 70.5329 14.7657 71.0268C15.7724 71.5205 16.8788 71.7769 18 71.7763H40.3493L53.3827 105.208" stroke="black" stroke-miterlimit="10"/>
<path d="M39.8666 39.9827C41.4666 39.428 41.3932 36.876 39.1226 36.0147C36.6146 35.0627 32.1612 33.716 31.0426 33.38C31.0356 33.3747 31.0272 33.3715 31.0186 33.3707C30.9399 33.3467 30.8852 33.3267 30.8426 33.3174L30.7799 33.2974" stroke="black" stroke-miterlimit="10"/>
<path d="M63.5064 65.4985C62.1064 63.8159 58.2744 62.8625 55.7731 62.4012C55.3527 62.3223 54.9694 62.1088 54.6807 61.7931C54.3922 61.4773 54.214 61.0764 54.1731 60.6505C54.144 60.3633 54.1772 60.0732 54.2704 59.7999C54.4195 59.3803 54.7052 59.0229 55.0816 58.7851C55.458 58.5472 55.9035 58.4425 56.3464 58.4879C60.6131 58.9199 65.0131 60.2625 68.2678 63.1545C68.2678 63.1545 84.0451 75.1945 85.9291 76.3665C86.7064 76.8385 87.4318 76.2812 86.9051 75.5399L86.7398 75.2572C85.8124 73.6657 84.7148 72.1797 83.4664 70.8252" stroke="black" stroke-miterlimit="10"/>
<path d="M63.7991 47.3761C43.9564 47.5414 26.9004 55.0534 26.9004 55.0534L28.6031 45.5094" stroke="black" stroke-miterlimit="10"/>
<path d="M94.6173 99.3185C94.6173 99.3185 92.4559 98.8292 91.8813 100.56C91.3066 102.29 90.7066 105.044 94.8386 105.206C98.9706 105.369 96.5439 104.557 96.3053 103.22C96.0666 101.882 94.6173 99.3185 94.6173 99.3185Z" fill="#189DC7"/>
<path d="M61.6004 67.6949C61.6004 67.6949 59.2684 65.9269 57.1684 67.7189C57.08 67.7967 57.0028 67.8865 56.9391 67.9855" stroke="black" stroke-miterlimit="10"/>
<g opacity="0.77">
<path opacity="0.77" d="M32.4684 45.3455C33.135 46.2402 34.383 46.5322 35.3124 45.9188C35.8764 45.5455 36.207 44.8015 35.731 43.6522C35.8177 43.7788 35.8964 43.8908 35.9737 43.9935C36.9364 45.3015 38.4284 44.5135 38.4284 44.5135C39.639 43.8615 39.435 42.7802 38.9057 41.4655C38.3877 40.1634 37.7081 38.9315 36.883 37.7988C37.423 37.2935 38.0644 36.7828 38.7404 37.0068C39.4697 37.2495 39.6737 38.1642 39.7564 38.9268C39.795 39.2815 39.8337 39.6322 39.8724 39.9868L40.4564 45.2082C40.6511 46.9415 40.8457 48.7002 41.2684 50.3922C41.4869 51.307 41.7894 52.1996 42.1724 53.0588C42.7083 54.2566 43.4654 55.3423 44.4044 56.2588C45.5754 55.0987 46.6008 53.8003 47.4577 52.3922C48.2774 52.6604 49.0004 53.1639 49.5364 53.8398C50.0722 54.5156 50.3979 55.334 50.4724 56.1935V56.2375C50.8031 59.3588 47.7977 61.7042 45.2724 63.1468C42.355 64.8242 39.103 66.0802 35.9084 67.1242C34.591 67.5562 32.879 67.9242 31.4884 67.4735C31.3386 67.4258 31.1925 67.3674 31.051 67.2988C29.6644 66.6188 28.7364 65.1935 28.0124 63.8908C24.5457 57.6575 23.1057 50.5002 22.347 43.4122C23.8644 43.2028 25.3764 42.9695 26.8697 42.6482C26.8697 42.6482 26.8697 42.6588 26.879 42.6628L28.6004 45.5175L28.7417 45.7548C29.115 46.2882 29.7617 46.4308 30.379 46.3775C30.7716 46.358 31.1486 46.2184 31.459 45.9775C32.4164 45.1775 31.5177 44.0922 31.0217 43.3282" fill="white"/>
<path opacity="0.77" d="M32.4684 45.3455C33.135 46.2402 34.383 46.5322 35.3124 45.9188C35.8764 45.5455 36.207 44.8015 35.731 43.6522C35.8177 43.7788 35.8964 43.8908 35.9737 43.9935C36.9364 45.3015 38.4284 44.5135 38.4284 44.5135C39.639 43.8615 39.435 42.7802 38.9057 41.4655C38.3877 40.1634 37.7081 38.9315 36.883 37.7988C37.423 37.2935 38.0644 36.7828 38.7404 37.0068C39.4697 37.2495 39.6737 38.1642 39.7564 38.9268C39.795 39.2815 39.8337 39.6322 39.8724 39.9868L40.4564 45.2082C40.6511 46.9415 40.8457 48.7002 41.2684 50.3922C41.4869 51.307 41.7894 52.1996 42.1724 53.0588C42.7083 54.2566 43.4654 55.3423 44.4044 56.2588C45.5754 55.0987 46.6008 53.8003 47.4577 52.3922C48.2774 52.6604 49.0004 53.1639 49.5364 53.8398C50.0722 54.5156 50.3979 55.334 50.4724 56.1935V56.2375C50.8031 59.3588 47.7977 61.7042 45.2724 63.1468C42.355 64.8242 39.103 66.0802 35.9084 67.1242C34.591 67.5562 32.879 67.9242 31.4884 67.4735C31.3386 67.4258 31.1925 67.3674 31.051 67.2988C29.6644 66.6188 28.7364 65.1935 28.0124 63.8908C24.5457 57.6575 23.1057 50.5002 22.347 43.4122C23.8644 43.2028 25.3764 42.9695 26.8697 42.6482C26.8697 42.6482 26.8697 42.6588 26.879 42.6628L28.6004 45.5175L28.7417 45.7548C29.115 46.2882 29.7617 46.4308 30.379 46.3775C30.7716 46.358 31.1486 46.2184 31.459 45.9775C32.4164 45.1775 31.5177 44.0922 31.0217 43.3282" fill="#3D2FE8"/>
<path opacity="0.77" d="M32.878 45.7681C33.4687 46.5681 34.478 46.4668 35.3127 45.9188C35.8167 45.5855 36.23 45.6828 35.8047 44.6548C35.8833 44.7668 35.894 44.3881 35.9633 44.4721C36.8233 45.6401 35.974 43.9895 35.974 43.9895C37.174 45.5055 39.786 44.0775 39.3073 42.9055C38.8007 41.6428 38.2673 39.7761 37.5913 38.8428C38.1247 38.3388 38.022 38.4135 38.7007 38.8148C38.8829 38.9319 39.0356 39.0899 39.1464 39.2761C39.2573 39.4624 39.3233 39.6719 39.3393 39.8881C39.394 40.3961 39.4487 40.8828 39.5033 41.3788L40.0233 46.0455C40.198 47.5961 40.3713 49.1628 40.7487 50.6721C40.9437 51.4883 41.2143 52.2845 41.5567 53.0508C42.034 54.1055 43.5673 55.8615 44.4047 56.6655C45.446 55.6321 46.694 53.7321 47.458 52.4695C48.9247 52.9201 48.8607 54.3228 48.9647 55.8548V55.8948C49.2607 58.6801 46.578 60.7721 44.33 62.0615C41.7247 63.5588 38.822 64.6788 35.97 65.6121C34.794 65.9988 33.266 66.3321 32.0247 65.9241C31.8908 65.8819 31.7601 65.8296 31.634 65.7681C30.3967 65.1601 29.5673 63.8895 28.9207 62.7255C26.09 57.6415 24.7767 51.8695 24.054 46.0828C24.0009 45.6497 24.1181 45.2132 24.3808 44.8649C24.6435 44.5167 25.0311 44.284 25.462 44.2161C26.274 44.0828 27.0833 43.9495 27.8873 43.7708L27.91 43.7815L29.446 46.3295C29.7807 46.8028 29.8353 46.4321 30.386 46.3841C30.734 46.3535 31.4087 46.2855 31.678 46.0601C32.5327 45.3481 32.05 45.0535 31.6073 44.3721" fill="#3D2FE8"/>
</g>
<path d="M61.3189 70.2684C61.3189 70.2684 56.8909 68.8124 56.8242 71.2604" stroke="black" stroke-miterlimit="10"/>
<path opacity="0.54" d="M21.6829 95.2051L12.9989 72.9571C12.8913 72.5266 12.8833 72.0772 12.9753 71.6431C13.0674 71.2091 13.2573 70.8016 13.5303 70.4519C13.8035 70.1022 14.1527 69.8192 14.5517 69.6247C14.9505 69.4302 15.3885 69.3291 15.8322 69.3291H50.3255C51.1001 69.329 51.8521 69.5896 52.4605 70.0691C53.0687 70.5484 53.4979 71.2187 53.6789 71.9718L63.1855 94.2144C63.2883 94.6435 63.2925 95.0903 63.1978 95.5212C63.103 95.9522 62.9119 96.356 62.6387 96.7024C62.3655 97.049 62.0174 97.329 61.6205 97.5216C61.2235 97.7142 60.7881 97.8143 60.3469 97.8144H25.0282C24.2594 97.815 23.5126 97.5583 22.9065 97.0855C22.3003 96.6127 21.8697 95.9508 21.6829 95.2051Z" fill="white"/>
<path d="M62.7602 74.0212C62.7602 74.0212 63.4789 74.6798 63.2056 75.6212C63.0029 76.3185 62.3096 76.7585 61.6229 76.5198C59.4362 75.7638 57.4669 74.4798 56.9869 72.2972C56.7601 71.1921 56.711 70.0578 56.8416 68.9372C56.9469 67.8985 57.1002 66.7772 57.4496 65.7892C57.9829 64.2718 59.6162 63.2145 61.2016 63.9452" stroke="black" stroke-miterlimit="10"/>
<path d="M21.6829 95.2051L12.9989 72.9571C12.8913 72.5266 12.8833 72.0772 12.9753 71.6431C13.0674 71.2091 13.2573 70.8016 13.5303 70.4519C13.8035 70.1022 14.1527 69.8192 14.5517 69.6247C14.9505 69.4302 15.3885 69.3291 15.8322 69.3291H50.3255C51.1001 69.329 51.8521 69.5896 52.4605 70.0691C53.0687 70.5484 53.4979 71.2187 53.6789 71.9718L63.1855 94.2144C63.2883 94.6435 63.2925 95.0903 63.1978 95.5212C63.103 95.9522 62.9119 96.356 62.6387 96.7024C62.3655 97.049 62.0174 97.329 61.6205 97.5216C61.2235 97.7142 60.7881 97.8143 60.3469 97.8144H25.0282C24.2594 97.815 23.5126 97.5583 22.9065 97.0855C22.3003 96.6127 21.8697 95.9508 21.6829 95.2051Z" fill="#3D2FE8"/>
<path d="M21.6829 95.2051L12.9989 72.9571C12.8913 72.5266 12.8833 72.0772 12.9753 71.6431C13.0674 71.2091 13.2573 70.8016 13.5303 70.4519C13.8035 70.1022 14.1527 69.8192 14.5517 69.6247C14.9505 69.4302 15.3885 69.3291 15.8322 69.3291H50.3255C51.1001 69.329 51.8521 69.5896 52.4605 70.0691C53.0687 70.5484 53.4979 71.2187 53.6789 71.9718L63.1855 94.2144C63.2883 94.6435 63.2925 95.0903 63.1978 95.5212C63.103 95.9522 62.9119 96.356 62.6387 96.7024C62.3655 97.049 62.0174 97.329 61.6205 97.5216C61.2235 97.7142 60.7881 97.8143 60.3469 97.8144H25.0282C24.2594 97.815 23.5126 97.5583 22.9065 97.0855C22.3003 96.6127 21.8697 95.9508 21.6829 95.2051Z" stroke="black" stroke-linecap="square" stroke-linejoin="round"/>
<path d="M22.9532 94.3091L14.9412 73.7757C14.8421 73.3785 14.8349 72.964 14.92 72.5636C15.0051 72.1632 15.1803 71.7873 15.4324 71.4648C15.6844 71.1423 16.0067 70.8813 16.3745 70.7019C16.7425 70.5224 17.1465 70.4291 17.5559 70.4291H49.3772C50.0916 70.4288 50.7853 70.6692 51.3465 71.1113C51.9077 71.5535 52.3037 72.1717 52.4705 72.8664L61.2425 93.3877C61.3372 93.7837 61.3409 94.196 61.2535 94.5936C61.166 94.9912 60.9895 95.3637 60.7373 95.6833C60.4853 96.0029 60.164 96.2613 59.7977 96.4389C59.4315 96.6167 59.0296 96.7091 58.6225 96.7091H26.0385C25.3304 96.7097 24.6424 96.4739 24.0836 96.0392C23.5247 95.6044 23.1269 94.9956 22.9532 94.3091Z" fill="#3D2FE8"/>
<path d="M91.0558 91.088L97.1572 105.207" stroke="black" stroke-miterlimit="10"/>
<path d="M120 105.207H0" stroke="black" stroke-miterlimit="10"/>
<path d="M63.2494 41.4839C62.2601 42.4612 60.7827 42.4599 59.9414 41.5559" stroke="black" stroke-miterlimit="10"/>
<path d="M36.8824 37.7946C37.4224 37.2893 38.0638 36.7786 38.7398 37.0026C39.4691 37.2453 39.6731 38.16 39.7558 38.9226C39.9895 41.0186 40.2228 43.1125 40.4558 45.2041C40.7518 47.8708 41.0638 50.6013 42.1718 53.052C42.7076 54.2497 43.4648 55.3354 44.4038 56.252" stroke="black" stroke-miterlimit="10"/>
<path d="M50.472 56.236V56.192C50.3975 55.3326 50.0719 54.5141 49.536 53.8382C49 53.1625 48.2771 52.659 47.4574 52.3906C46.6004 53.7988 45.5751 55.0973 44.404 56.2573C41.3338 59.3102 37.3896 61.3321 33.1187 62.0426C33.324 62.86 33.7467 63.604 34.0387 64.3906C34.3307 65.1773 34.476 66.088 34.1214 66.8466C33.6734 67.8146 32.388 67.688 31.4947 67.4733C31.4854 67.4733 31.48 67.4733 31.4707 67.4733" stroke="black" stroke-miterlimit="10"/>
<path d="M26.8721 42.6469C25.3788 42.9682 23.8668 43.2015 22.3494 43.4108C23.1081 50.4988 24.5428 57.6562 28.0148 63.8895C28.7388 65.1922 29.6668 66.6175 31.0534 67.2975C31.1949 67.3662 31.341 67.4246 31.4908 67.4722C32.8814 67.9295 34.5934 67.5549 35.9108 67.1229C39.1108 66.0775 42.3574 64.8228 45.2748 63.1455C47.7934 61.7015 50.7988 59.3575 50.4748 56.2362C50.4434 55.8924 50.3732 55.5534 50.2654 55.2255" stroke="black" stroke-miterlimit="10"/>
<path d="M51.8426 28.5078C52.0663 29.4409 52.5771 30.2801 53.3031 30.9073C54.0291 31.5346 54.9337 31.9181 55.8893 32.0038C55.9686 31.619 56.1407 31.2592 56.3906 30.956C57.4573 29.6986 57.9119 32.0573 61.3239 30.364C66.0519 28.012 67.8466 29.3613 67.8466 29.3613C68.0039 29.4786 67.9799 30.5612 68.0066 30.7585C68.1399 31.8825 68.2599 33.0012 68.3919 34.1238C68.4719 34.8092 68.5506 35.4893 68.6253 36.1693C68.6897 36.0536 68.7609 35.9417 68.8386 35.8345C69.2693 34.3105 70.0386 32.5106 71.6973 33.2853C72.0331 33.449 72.3255 33.6897 72.5506 33.9878C73.6506 35.4332 72.8173 36.8292 71.6666 37.8625C71.3782 38.1832 71.0558 38.4714 70.7053 38.7226C70.8946 39.1146 71.6679 40.6706 71.6679 40.676C71.7479 40.8333 74.4506 37.7745 74.6519 37.4412C74.9527 36.6246 75.114 35.7633 75.1293 34.8933C75.1733 31.316 73.7173 27.1518 70.8199 25.0998C70.1013 24.5918 70.3306 24.1025 70.2866 23.4118C70.2835 23.3745 70.2693 23.339 70.2455 23.31C70.2219 23.2809 70.1899 23.2597 70.1541 23.2492C70.1181 23.2386 70.0798 23.2393 70.0442 23.2509C70.0086 23.2626 69.9774 23.2848 69.9546 23.3146C69.0466 24.36 66.7986 24.256 66.7986 24.256C58.9959 22.3013 56.3733 25.7706 54.7986 26.3893C54.1561 26.6326 53.4489 26.6444 52.7986 26.4226C52.7603 26.6378 52.6639 26.8385 52.5199 27.003C52.3758 27.1676 52.1897 27.2896 51.9813 27.356L52.0213 27.7172C52.0553 27.9936 51.9921 28.273 51.8426 28.5078Z" fill="#3D2FE8"/>
<path d="M55.8946 32.0097C54.939 31.9238 54.0345 31.5403 53.3085 30.9131C52.5825 30.2859 52.0715 29.4466 51.8479 28.5137C51.7603 28.1558 51.705 27.7907 51.6826 27.423L51.7439 27.4163C51.8278 27.4101 51.9104 27.3921 51.9893 27.363C52.1977 27.2966 52.3838 27.1746 52.5279 27.0101C52.6719 26.8457 52.7683 26.6449 52.8066 26.4297C52.831 26.3103 52.836 26.1878 52.8213 26.067L52.6213 24.3017C52.6213 24.3017 54.032 25.351 55.5973 24.7377C57.1626 24.1243 59.7906 20.655 67.5973 22.6043C67.5973 22.6043 69.3599 22.7083 70.2639 21.663C70.2867 21.6331 70.3179 21.611 70.3535 21.5994C70.3891 21.5877 70.4274 21.5871 70.4634 21.5977C70.4993 21.6082 70.5313 21.6294 70.5549 21.6583C70.5786 21.6874 70.5929 21.723 70.5959 21.7603C70.6426 22.4523 70.8986 22.9417 71.6186 23.4483C74.516 25.5017 75.972 29.6643 75.9266 33.2417C75.9133 34.7257 75.42 36.191 74.6586 37.4483C74.4573 37.7817 71.7546 40.8403 71.6746 40.683C71.6746 40.683 70.9013 39.1217 70.712 38.7297L70.6666 38.643L70.7533 38.5857C71.0752 38.3671 71.3825 38.1279 71.6733 37.8697C72.8226 36.8363 73.6573 35.4403 72.5573 33.995C72.3321 33.6969 72.0398 33.4561 71.704 33.2923C70.04 32.5177 69.276 34.3177 68.8453 35.8417C68.7617 36.1329 68.7102 36.4325 68.692 36.735C68.672 36.5483 68.6519 36.3683 68.6319 36.1817C68.5573 35.5017 68.4786 34.8217 68.3986 34.1363C68.2653 33.0137 68.1399 31.895 68.0133 30.771C67.9933 30.579 68.0133 29.491 67.8533 29.3737C67.8533 29.3737 66.0573 28.0243 61.3306 30.3763C57.9186 32.0697 57.464 29.7097 56.3973 30.9683C56.1474 31.2717 55.9753 31.6314 55.896 32.0163C55.8716 32.1399 55.856 32.2651 55.8493 32.391C55.8468 32.4073 55.8468 32.4239 55.8493 32.4403C55.8333 32.7163 55.828 32.991 55.8213 33.2603C55.796 35.859 56.0813 38.5737 57.1013 40.987C58.3413 43.9123 61.6226 46.7977 65.0346 45.4337C66.1013 45.0057 67.0573 44.3163 67.9319 43.5843" stroke="black" stroke-miterlimit="10"/>
<path d="M58.2295 38.3475C58.5688 38.2339 58.7326 37.8089 58.5952 37.3984C58.4579 36.9877 58.0714 36.7469 57.7319 36.8605C57.3926 36.974 57.2288 37.3989 57.3662 37.8096C57.5036 38.2203 57.8902 38.4611 58.2295 38.3475Z" fill="black"/>
<path d="M63.3061 38.185C63.6454 38.0716 63.8092 37.6466 63.6718 37.236C63.5344 36.8253 63.148 36.5845 62.8085 36.6981C62.4692 36.8117 62.3054 37.2366 62.4428 37.6472C62.5801 38.0578 62.9666 38.2986 63.3061 38.185Z" fill="black"/>
<path d="M61.3652 39.0643C61.3652 39.0643 59.6759 40.023 59.5732 39.0283C59.5412 38.7217 59.1279 35.7177 59.1279 35.7177C59.1279 35.7177 57.7625 34.271 55.6705 35.3403" stroke="black" stroke-miterlimit="10"/>
<path d="M60.9855 34.8759C60.9855 34.8759 63.7135 33.5132 65.5189 35.4772" stroke="black" stroke-miterlimit="10"/>
<path d="M63.4865 45.7682L63.7998 47.3762C62.8118 48.2869 62.1131 49.5922 62.3171 50.9669C62.4985 52.1855 63.4958 53.3202 64.5185 53.9589C66.2278 55.0255 68.5011 54.9415 70.3411 54.2629C72.1398 53.5962 73.6958 52.3309 74.8238 50.7869C75.355 50.0405 75.7089 49.1827 75.8585 48.2789V48.2629" stroke="black" stroke-miterlimit="10"/>
<path d="M63.8004 47.3761L64.4111 50.2801" stroke="black" stroke-miterlimit="10"/>
<path d="M72.4361 39.9828L73.3588 46.1095C73.4497 46.7092 73.7529 47.2564 74.2132 47.6515C74.6735 48.0467 75.2601 48.2637 75.8668 48.2629C78.7384 48.7282 81.5711 49.4074 84.3415 50.2948C95.1641 53.7855 101.825 63.5349 103.707 74.4282C104.489 78.9895 104.548 83.7735 103.565 88.3095C103.007 90.8628 102.199 93.7308 100.323 95.6428C97.8868 98.1362 94.1481 97.1095 91.2695 95.9829C82.3321 92.5069 74.8988 86.3228 68.4801 79.2428C65.0481 75.4562 60.6135 72.4215 60.6135 72.4215" stroke="black" stroke-miterlimit="10"/>
<path d="M25.9065 89.7137C24.9038 89.7043 24.0305 88.895 23.8052 87.7684C23.3598 85.5524 23.2425 82.1257 26.4918 81.3777C30.5518 80.4444 33.6745 84.8657 35.2052 87.6604C35.7198 88.5937 35.1372 89.7937 34.1785 89.7937L25.9065 89.7137Z" fill="#D7E8F0"/>
<path d="M27.2471 79.4961C28.109 78.9225 28.1223 77.4273 27.2766 76.1565C26.431 74.8855 25.0467 74.3202 24.1847 74.8938C23.3227 75.4674 23.3095 76.9626 24.1551 78.2334C25.0009 79.5043 26.3851 80.0697 27.2471 79.4961Z" fill="#D7E8F0"/>
<path d="M93.9696 99.3918C93.907 99.4011 93.8363 99.4104 93.775 99.4251H93.751L84.267 99.3758L70.0363 99.3024C69.9816 99.3024 69.9283 99.3024 69.875 99.3024C69.7692 99.2999 69.6638 99.2919 69.559 99.2784C70.5231 99.1664 71.4168 98.7179 72.083 98.0119C72.749 97.3059 73.1447 96.3875 73.2003 95.4184C73.203 95.3683 73.203 95.318 73.2003 95.2678V95.1904C73.1964 94.2423 72.866 93.3244 72.2647 92.5912C71.6635 91.8582 70.828 91.3544 69.899 91.1651C69.8016 91.1411 69.695 91.1264 69.5923 91.1118C69.7536 91.0971 69.9136 91.0864 70.0696 91.0864L82.0923 91.1504L84.3056 91.1598L87.291 91.1744C88.3131 91.2678 89.2638 91.739 89.957 92.496C90.65 93.253 91.0359 94.2414 91.039 95.2678C91.0391 95.4615 91.0244 95.655 90.995 95.8464C90.8528 96.8236 90.3647 97.7174 89.6194 98.365C88.874 99.0127 87.9211 99.3714 86.9336 99.3758H94.1576C93.7416 99.3758 93.8576 99.3758 93.9696 99.3918Z" fill="white"/>
<path d="M74.7318 104.351C75.0027 104.623 75.325 104.839 75.6799 104.986C76.035 105.133 76.4157 105.208 76.7998 105.207H69.8158C68.4825 105.207 67.7545 104.882 67.2238 104.351C66.6785 103.803 66.3714 103.062 66.3691 102.29C66.3691 100.69 67.6811 99.3777 69.8158 99.3777H76.7998C76.2233 99.3768 75.6594 99.547 75.1797 99.867C74.6999 100.187 74.3259 100.642 74.1053 101.175C73.8845 101.707 73.8267 102.294 73.9395 102.859C74.0522 103.424 74.3303 103.944 74.7385 104.351H74.7318Z" fill="#D7E8F0"/>
<path d="M97.797 95.3411C97.7953 95.957 97.6519 96.5642 97.3783 97.1158C97.1829 97.5328 96.9147 97.9116 96.5863 98.2344C96.0449 98.771 95.3649 99.1463 94.6223 99.3184C94.3162 99.3891 94.0031 99.425 93.689 99.4251C93.753 99.4104 93.8223 99.4011 93.8837 99.3918C93.7717 99.3811 93.6557 99.3771 94.073 99.3771H86.8477C87.8358 99.3734 88.7897 99.0147 89.5355 98.3667C90.2814 97.7187 90.7698 96.8243 90.9117 95.8464C90.9411 95.655 90.9558 95.4615 90.9557 95.2678C90.9526 94.2412 90.5666 93.2527 89.8731 92.4956C89.1797 91.7386 88.2287 91.2675 87.2063 91.1744L91.1063 91.1944L93.7117 91.2091C94.8005 91.2183 95.8413 91.658 96.6067 92.4323C97.3723 93.2066 97.8002 94.2523 97.797 95.3411Z" fill="#3D2FE8"/>
<path d="M97.7974 95.34C97.7892 96.4295 97.3498 97.4712 96.575 98.2372C95.8003 99.0032 94.7535 99.431 93.664 99.4267L69.9414 99.3041C69.7827 99.3041 69.6241 99.292 69.4641 99.276C70.4641 99.1627 71.3877 98.6866 72.0601 97.9376C72.7323 97.1888 73.1066 96.2194 73.1119 95.213C73.1171 94.2067 72.753 93.2334 72.0886 92.4775C71.4241 91.7216 70.5055 91.2358 69.5067 91.1121C69.6653 91.0954 69.8246 91.0874 69.9841 91.0881L93.7067 91.2107C94.796 91.2182 95.838 91.6568 96.6047 92.4307C97.3714 93.2046 97.8002 94.2507 97.7974 95.34Z" stroke="black" stroke-linecap="square" stroke-linejoin="round"/>
<path d="M90.9534 95.2666C90.9513 96.3558 90.5177 97.3998 89.7474 98.1699C88.9773 98.9402 87.9333 99.3738 86.8441 99.3759H69.9654C69.806 99.375 69.6466 99.366 69.4881 99.3492C70.4873 99.2306 71.4084 98.7495 72.0768 97.9972C72.745 97.2448 73.1141 96.2735 73.1141 95.2672C73.1141 94.261 72.745 93.2896 72.0768 92.5372C71.4084 91.785 70.4873 91.3039 69.4881 91.1852C69.6468 91.1706 69.8068 91.1599 69.9654 91.1599H86.8441C87.9328 91.1623 88.9761 91.5958 89.7462 92.3652C90.5162 93.1348 90.9502 94.1779 90.9534 95.2666Z" stroke="black" stroke-linecap="square" stroke-linejoin="round"/>
<path d="M66.3691 102.29C66.369 102.673 66.4443 103.051 66.5907 103.405C66.7373 103.758 66.9518 104.079 67.2225 104.349C67.7558 104.882 68.4798 105.206 69.8145 105.206H94.0718C93.6545 105.206 93.7678 105.198 93.8811 105.188C93.1714 105.104 92.517 104.763 92.0421 104.229C91.5671 103.695 91.3049 103.005 91.3049 102.29C91.3049 101.576 91.5671 100.886 92.0421 100.352C92.517 99.8179 93.1714 99.4767 93.8811 99.3931C93.7678 99.3824 93.6545 99.3744 94.0718 99.3744H69.8145C67.6785 99.3757 66.3691 100.688 66.3691 102.29Z" stroke="black" stroke-linecap="square" stroke-linejoin="round"/>
<path d="M73.8762 102.29C73.8779 103.063 74.1858 103.804 74.7322 104.35C75.2787 104.897 76.0194 105.205 76.7922 105.206H93.5428C93.6548 105.206 93.7682 105.198 93.8815 105.188C93.1718 105.104 92.5174 104.763 92.0424 104.229C91.5675 103.695 91.3052 103.005 91.3052 102.29C91.3052 101.576 91.5675 100.886 92.0424 100.352C92.5174 99.8179 93.1718 99.4767 93.8815 99.3931C93.7682 99.3824 93.6548 99.3744 93.5428 99.3744H76.7922C76.0195 99.3765 75.279 99.6844 74.7326 100.231C74.1862 100.777 73.8783 101.518 73.8762 102.29Z" stroke="black" stroke-linecap="square" stroke-linejoin="round"/>
<path d="M46.7228 80.0426H39.2402C38.8978 80.0421 38.563 79.9418 38.2766 79.7544C37.9902 79.5669 37.7644 79.3002 37.6268 78.9866C37.5738 78.87 37.551 78.7417 37.5608 78.6138C37.5706 78.486 37.6126 78.3628 37.6828 78.2554C37.7531 78.1482 37.8494 78.0605 37.9627 78.0004C38.076 77.9404 38.2026 77.91 38.3308 77.912H46.2855C45.9108 78.5426 46.1015 79.4186 46.7228 80.0426Z" fill="#D7E8F0"/>
<path d="M51.5614 79.2718C51.561 79.4758 51.4799 79.6713 51.3356 79.8154C51.1915 79.9597 50.996 80.0409 50.792 80.0412H46.7227C46.1014 79.4185 45.9107 78.5425 46.2854 77.9078H49.8787C50.2207 77.908 50.5552 78.0073 50.8419 78.1937C51.1284 78.3802 51.3548 78.646 51.4934 78.9585C51.5364 79.0576 51.5595 79.164 51.5614 79.2718Z" fill="#3D2FE8"/>
<path d="M49.6894 80.0425C49.6683 80.0832 49.6438 80.122 49.616 80.1585C49.0827 80.8878 47.924 80.9585 47.024 80.2998C46.9176 80.2213 46.817 80.1353 46.7227 80.0425C46.1014 79.4198 45.9107 78.5438 46.2854 77.9092C46.3064 77.8685 46.331 77.8297 46.3587 77.7932C46.892 77.0585 48.0454 76.9932 48.9454 77.6465C49.0538 77.7276 49.1558 77.8168 49.2507 77.9132C49.8667 78.5332 50.0587 79.4038 49.6894 80.0425Z" fill="white"/>
<path d="M53.4423 83.9695C53.4408 84.1736 53.3588 84.3689 53.2139 84.5128C53.0691 84.6567 52.8731 84.7375 52.6689 84.7375H44.8169C45.1956 84.1001 45.0063 83.2308 44.3836 82.6041H51.7596C52.1021 82.6043 52.4371 82.704 52.7239 82.8912C53.0105 83.0785 53.2365 83.3452 53.3743 83.6588C53.4183 83.7565 53.4413 83.8623 53.4423 83.9695Z" fill="#3D2FE8"/>
<path d="M44.8174 84.7371H41.1227C40.7807 84.7374 40.4459 84.6382 40.1593 84.4517C39.8726 84.2651 39.6463 83.9993 39.5081 83.6865C39.4645 83.5886 39.4414 83.483 39.4401 83.3758C39.4399 83.275 39.4597 83.175 39.4982 83.0817C39.5367 82.9885 39.5933 82.9038 39.6646 82.8323C39.7359 82.761 39.8207 82.7045 39.9139 82.6659C40.0073 82.6274 40.1071 82.6077 40.2081 82.6078H44.3841C45.0067 83.2305 45.2001 84.0998 44.8174 84.7371Z" fill="#D7E8F0"/>
<path d="M44.8175 84.7372C44.8001 84.7791 44.7772 84.8185 44.7495 84.8545C44.2161 85.5879 43.0615 85.6545 42.1628 84.9999C42.054 84.9188 41.9516 84.8296 41.8561 84.7332C41.2388 84.1105 41.0495 83.2412 41.4188 82.5999C41.4401 82.5588 41.4647 82.5196 41.4921 82.4825C42.0255 81.7532 43.1841 81.6825 44.0828 82.3425C44.1899 82.4203 44.2905 82.5063 44.3841 82.5999C45.0068 83.2305 45.2001 84.0999 44.8175 84.7372Z" fill="white"/>
<path d="M47.4335 89.4001H42.7321C42.3903 89.3997 42.0559 89.3003 41.7694 89.1139C41.4827 88.9273 41.2563 88.6619 41.1175 88.3495C41.0645 88.2324 41.042 88.1039 41.0519 87.9759C41.0619 87.8477 41.1039 87.7243 41.1741 87.6167C41.2445 87.5092 41.3408 87.4211 41.4541 87.3607C41.5676 87.3001 41.6943 87.2693 41.8228 87.2708H46.9961C46.6255 87.9095 46.8161 88.7775 47.4335 89.4001Z" fill="#3D2FE8"/>
<path d="M55.0517 88.6374C55.0507 88.8402 54.9692 89.0345 54.8253 89.1774C54.6813 89.3203 54.4865 89.4003 54.2837 89.4001H47.4331C46.8157 88.7774 46.6251 87.9081 46.9957 87.2667H53.3691C53.7115 87.2667 54.0465 87.3666 54.3333 87.5538C54.62 87.7411 54.846 88.0078 54.9837 88.3214C55.0276 88.421 55.0508 88.5285 55.0517 88.6374Z" fill="#D7E8F0"/>
<path d="M50.3996 89.4003C50.3783 89.4412 50.3538 89.4804 50.3263 89.5176C49.793 90.2509 48.6396 90.3176 47.7396 89.6629C47.6315 89.5815 47.5295 89.4924 47.4343 89.3963C46.817 88.7736 46.6263 87.9043 46.997 87.2629C47.0174 87.2217 47.0414 87.1824 47.069 87.1456C47.6023 86.4163 48.761 86.3536 49.661 87.0056C49.7679 87.0833 49.8687 87.1693 49.9623 87.2629C50.5836 87.8936 50.773 88.7683 50.3996 89.4003Z" fill="white"/>
<path d="M14.8817 46.8922L14.999 46.9255L14.955 47.0962C14.9271 47.0295 14.9026 46.9614 14.8817 46.8922Z" fill="#189DC7"/>
<path d="M35.7475 57.5594C37.5027 57.0442 38.4248 54.9213 37.8074 52.8178C37.1899 50.7145 35.2666 49.4269 33.5115 49.9421C31.7563 50.4574 30.8342 52.5802 31.4516 54.6837C32.0691 56.7872 33.9924 58.0746 35.7475 57.5594Z" fill="#D7E8F0"/>
</svg>
