<svg width="122" height="120" viewBox="0 0 122 120" fill="none" xmlns="http://www.w3.org/2000/svg">
<path d="M94.5876 26.0389C94.033 24.5002 93.4156 22.9722 92.7396 21.4869C91.3929 18.5308 91.0836 15.7295 89.1916 13.2574" stroke="#CCDDE2" stroke-miterlimit="10"/>
<path d="M84.8062 10.4241C83.1782 8.76805 81.6555 6.98804 78.8888 5.65866C73.0421 2.85863 65.566 2.57463 56.0232 6.53467" stroke="#CCDDE2" stroke-miterlimit="10"/>
<path d="M15.9042 118.948C6.65739 105.877 3.66669 91.0997 5.21204 75.9862" stroke="#CCDDE2" stroke-miterlimit="10"/>
<path d="M99.7903 54.6022V54.7635C99.6997 57.6969 102.41 69.857 110.098 73.7197C117.787 77.5824 123.268 94.5373 105.934 101.189C88.6009 107.841 89.5449 118.948 89.5449 118.948" stroke="#CCDDE2" stroke-miterlimit="10"/>
<path d="M56.0219 19.0895V4.72404C56.0195 3.73712 55.6263 2.79133 54.9284 2.09347C54.2306 1.3956 53.2848 1.00247 52.2979 1H4.72404C3.73712 1.00247 2.79133 1.3956 2.09346 2.09347C1.3956 2.79133 1.00247 3.73712 1 4.72404V72.2714C1.00176 73.2578 1.39494 74.2032 2.09318 74.9C2.79142 75.5966 3.73764 75.9879 4.72404 75.9875H52.2979C52.7593 75.9904 53.2169 75.9024 53.6445 75.7288" stroke="black" stroke-linecap="round" stroke-linejoin="round"/>
<path d="M51.0245 3.27612H5.99739C4.1601 3.27612 2.67068 4.76554 2.67068 6.60282V70.3914C2.67068 72.2288 4.1601 73.7181 5.99739 73.7181H51.0245C52.8619 73.7181 54.3512 72.2288 54.3512 70.3914V6.60282C54.3512 4.76554 52.8619 3.27612 51.0245 3.27612Z" fill="#3D2FE8"/>
<path d="M50.2098 8.72668H7.37741C6.4584 8.72668 5.71339 9.47176 5.71339 10.3907V20.2521C5.71339 21.1712 6.4584 21.9162 7.37741 21.9162H50.2098C51.1289 21.9162 51.8739 21.1712 51.8739 20.2521V10.3907C51.8739 9.47176 51.1289 8.72668 50.2098 8.72668Z" fill="#3D2FE8"/>
<path d="M28.5109 14.2817C29.2643 14.2817 29.875 13.6711 29.875 12.9177C29.875 12.1644 29.2643 11.5537 28.5109 11.5537C27.7576 11.5537 27.1469 12.1644 27.1469 12.9177C27.1469 13.6711 27.7576 14.2817 28.5109 14.2817Z" fill="#D7E8F0"/>
<path d="M24.6989 19.0897C24.6989 18.0787 25.1005 17.1091 25.8155 16.3943C26.5303 15.6793 27.4999 15.2777 28.511 15.2777C29.522 15.2777 30.4915 15.6793 31.2064 16.3943C31.9214 17.1091 32.323 18.0787 32.323 19.0897H24.6989Z" fill="#D7E8F0"/>
<path d="M28.7883 36.0482C27.3341 36.0474 25.9124 36.478 24.7029 37.2854C23.4934 38.0928 22.5508 39.2408 21.9938 40.5841C21.437 41.9275 21.2911 43.4058 21.5746 44.832C21.8581 46.2583 22.5582 47.5685 23.5865 48.5967C24.6148 49.625 25.9249 50.3252 27.3512 50.6086C28.7775 50.8922 30.2558 50.7462 31.5991 50.1894C32.9425 49.6326 34.0905 48.6898 34.8978 47.4803C35.7053 46.2709 36.1358 44.8492 36.135 43.395C36.134 41.4468 35.3596 39.5788 33.9821 38.2013C32.6045 36.8237 30.7364 36.0493 28.7883 36.0482ZM28.7883 48.9697C28.5038 48.9697 28.231 48.8567 28.0298 48.6555C27.8287 48.4543 27.7156 48.1815 27.7156 47.897C27.7156 47.6126 27.8287 47.3397 28.0298 47.1386C28.231 46.9374 28.5038 46.8243 28.7883 46.8243C29.0728 46.8243 29.3456 46.9374 29.5468 47.1386C29.7479 47.3397 29.861 47.6126 29.861 47.897C29.861 48.1815 29.7479 48.4543 29.5468 48.6555C29.3456 48.8567 29.0728 48.9697 28.7883 48.9697ZM30.1496 40.7029C29.919 42.295 29.7243 43.9736 29.2563 45.5216C29.1416 45.8897 28.443 45.8897 28.323 45.5216C27.9875 44.3566 27.7301 43.1703 27.5523 41.9709C27.4083 41.0989 26.8976 39.6883 27.3869 38.8376C27.8123 38.0816 29.0216 37.9882 29.7203 38.3842C30.5883 38.8829 30.2496 39.9163 30.1496 40.7083V40.7029Z" fill="#D7E8F0"/>
<path d="M10.3294 27.8044H46.2218" stroke="white" stroke-miterlimit="10"/>
<path d="M10.3294 31.3362H46.2218" stroke="white" stroke-miterlimit="10"/>
<path d="M10.3294 54.0875H46.2218" stroke="white" stroke-miterlimit="10"/>
<path d="M18.6669 57.4287H37.8844" stroke="white" stroke-miterlimit="10"/>
<path d="M14.1428 79.3102C14.1428 79.3102 20.5295 53.9313 40.4217 47.7325L48.5072 45.8032C48.5072 45.8032 49.7858 40.0925 49.3152 39.4925C48.8445 38.8925 47.8778 37.6631 46.1071 37.9298C44.3365 38.1964 39.7591 38.2818 38.5871 32.6857C37.415 27.0897 41.7458 13.7882 53.0005 11.7988C64.2553 9.80949 64.518 18.0736 64.518 18.0736L56.2512 37.2298L57.5339 52.6833L57.6953 75.7035L14.1428 79.3102Z" fill="white"/>
<path d="M82.8835 59.7052C82.7502 59.7438 81.0488 60.2385 80.3795 61.4172C80.252 61.1473 80.0504 60.9193 79.7983 60.7597C79.5462 60.6001 79.2539 60.5156 78.9555 60.5157H58.9753C58.6198 60.5152 58.2746 60.6353 57.9963 60.8564C57.7179 61.0776 57.523 61.3867 57.4433 61.7331L53.5085 78.604C53.2419 78.552 52.9752 78.52 52.6979 78.4934L43.4124 76.176C43.0142 76.076 42.5928 76.1281 42.231 76.3223C41.869 76.5163 41.5924 76.8383 41.4551 77.2252C41.3932 77.399 41.3626 77.5823 41.3644 77.7666C41.3644 78.1854 41.5232 78.5886 41.8087 78.895C42.0943 79.2012 42.4854 79.3879 42.9031 79.4174L47.2938 79.6999C43.0644 81.6906 37.9191 85.4826 33.6243 88.9667C29.4456 82.4239 33.367 75.8827 36.3164 72.36C35.9364 68.4773 34.011 59.4624 24.4043 59.7077C27.7136 55.4637 31.8403 51.8264 36.9537 49.3916C54.4686 68.8053 74.5061 52.933 74.9314 52.5916C77.9279 54.5463 80.6094 56.9459 82.8835 59.7077" fill="#189DC7"/>
<path d="M81.0635 115.396V118.751H23.2216V113.999C25.4749 114.132 27.8456 113.599 30.0016 112.627C32.731 111.384 35.0884 109.453 37.1044 107.251C39.1777 104.971 40.3164 101.809 41.6378 99.0599C43.6218 94.9199 46.2498 91.9705 50.4205 90.7212L50.1539 91.8679C50.1004 92.0987 50.0996 92.3387 50.1516 92.5699C50.2036 92.8009 50.3071 93.0175 50.4543 93.2031C50.6015 93.3888 50.7887 93.5388 51.0019 93.6422C51.2152 93.7455 51.4489 93.7995 51.6859 93.7999H71.7661C71.3661 97.2666 69.6794 116.2 81.0635 115.4" fill="#189DC7"/>
<path d="M71.7754 27.1671C71.7593 28.9608 71.5255 30.7458 71.0794 32.4831C70.8759 33.3069 70.439 34.0542 69.8212 34.6358C69.2035 35.2174 68.4311 35.6083 67.5967 35.7618C67.5634 34.5511 67.0487 33.4885 66.2633 32.8285C66.3351 31.8035 66.3248 30.7744 66.2327 29.7511C66.1807 29.0751 66.0993 28.4444 66.014 27.8777C65.9632 27.5552 65.8897 27.2367 65.794 26.9244C65.526 26.6365 65.2103 26.3969 64.8607 26.2164C63.6247 25.5204 61.0806 24.7804 56.3672 25.8684C55.5976 26.0446 54.8736 26.3803 54.2419 26.8537C54.2279 26.8625 54.2154 26.8732 54.2046 26.8857C53.7792 27.2777 53.2379 27.7737 52.6779 28.0311C52.0979 28.2977 51.4925 28.3084 50.9845 27.6777C50.9712 27.6644 50.9645 27.6524 50.9525 27.6391C50.6859 27.2911 50.4312 26.8391 49.9605 26.7497C48.9685 26.5631 48.4858 27.5497 48.3605 28.3791C48.2512 29.1457 48.4765 29.8218 48.8058 30.4658C49.0817 30.9894 49.4421 31.4638 49.8725 31.8698C49.983 31.9767 50.0842 32.0926 50.1752 32.2164C50.1338 32.2238 50.0932 32.235 50.0538 32.2498C49.9626 32.2804 49.8736 32.317 49.7872 32.3591C48.5872 32.8991 47.7325 34.2525 47.7138 35.8365C47.7138 35.8858 45.7018 35.8565 45.4471 35.8365C44.4658 35.7458 43.4991 35.4631 42.8084 34.7231C40.8484 32.6231 40.8578 29.5071 41.6631 27.0697C42.4258 24.7564 43.3964 22.4977 44.6685 20.4163C47.4245 15.9123 51.7005 12.5896 57.1139 12.2909C58.4122 12.2257 59.7135 12.3017 60.9953 12.5176C61.6018 12.6132 62.2017 12.7468 62.7913 12.9176C68.31 15.3256 71.8127 20.7843 71.7807 27.1671" fill="#189DC7"/>
<path d="M68.5794 78.5143C67.9274 80.1876 66.3753 81.145 65.1127 80.6476C63.85 80.1503 63.354 78.4009 64.0047 76.7276C64.6553 75.0542 66.2087 74.0956 67.4714 74.5942C68.734 75.0929 69.2314 76.8423 68.5794 78.5156" fill="#3D2FE8"/>
<path d="M71.9341 93.4585C71.9341 93.4585 68.3927 118.145 82.5582 115.409C96.6463 112.685 101.978 55.3714 61.1993 47.1287" stroke="black" stroke-miterlimit="10"/>
<path d="M38.7684 69.6918C38.7684 69.6918 27.3389 79.3307 33.4977 88.9708" stroke="black" stroke-miterlimit="10"/>
<path d="M72.1914 86.6014C71.9954 86.6134 71.7154 86.4827 71.5247 86.4307C71.283 86.3667 71.0434 86.2982 70.806 86.2254C69.4136 85.7919 68.1035 85.1286 66.93 84.2627C66.6633 84.072 66.1887 83.9494 65.8633 84.0747C65.6823 84.1411 65.5224 84.255 65.4004 84.4044C65.2784 84.5538 65.1988 84.7332 65.17 84.924C65.07 85.6121 65.5553 86.2854 66.0847 86.7267C66.7127 87.2521 67.3647 87.7361 68.126 88.0507C68.861 88.3457 69.6191 88.579 70.3927 88.7481C70.7434 88.8294 71.0994 88.8814 71.4474 88.9708" stroke="black" stroke-miterlimit="10"/>
<path d="M76.5781 79.9221C76.7221 80.6821 76.8274 81.4715 76.7554 82.2435C76.6954 82.8968 76.4608 83.6595 75.7341 83.8182C75.596 83.8547 75.4526 83.8678 75.3101 83.8568C72.5741 83.6955 70.3194 82.7501 67.7447 80.8888C65.17 79.0274 64.2633 83.3142 66.6153 84.0742" stroke="black" stroke-miterlimit="10"/>
<path d="M66.714 87.2438C66.6508 87.1918 66.5908 87.1361 66.534 87.0772C65.2527 85.7372 65.0207 88.4292 66.366 89.2212L66.5393 89.3239C66.63 89.3625 66.7273 89.4079 66.8233 89.4572C66.8687 89.4692 66.9193 89.4892 66.966 89.5025C68.182 90.0359 69.4767 90.3772 70.7514 90.7252C69.49 90.3132 68.2327 89.9079 66.966 89.5025C66.8567 89.4572 66.7527 89.4119 66.6433 89.3599C66.6097 89.3459 66.5749 89.3352 66.5393 89.3279C66.5167 89.3176 66.4917 89.3133 66.4669 89.3157C66.4421 89.318 66.4184 89.3268 66.398 89.3412C66.3676 89.3661 66.3453 89.3996 66.334 89.4372C66.1273 89.9332 66.2953 90.5585 66.5593 91.0026C66.8367 91.4719 67.3127 91.8332 67.782 92.0906C69.0447 92.7986 70.5127 93.2172 71.9301 93.4679C72.193 93.5223 72.4623 93.5399 72.7301 93.5199" stroke="black" stroke-miterlimit="10"/>
<path d="M84.1635 96.5744C84.1635 96.5744 79.8181 89.169 79.3341 82.7302C79.0381 78.7449 77.8675 77.9008 77.0301 77.8435" stroke="black" stroke-miterlimit="10"/>
<path d="M75.7341 83.8169L76.5795 79.9222L77.0301 77.8422L80.3715 62.4207C80.4211 62.1911 80.4186 61.9534 80.3643 61.7247C80.3099 61.4962 80.2052 61.2827 80.0576 61.0999C79.9102 60.9171 79.7236 60.7695 79.5116 60.6682C79.2997 60.5668 79.0677 60.5142 78.8328 60.514H58.8513C58.4959 60.5138 58.1509 60.6339 57.8726 60.8551C57.5943 61.0762 57.3993 61.3851 57.3193 61.7314L53.3845 78.6036L50.5125 90.9143L50.2458 92.0677C50.1928 92.2986 50.1924 92.5384 50.2448 92.7694C50.297 93.0004 50.4006 93.2166 50.548 93.4021C50.6952 93.5876 50.8824 93.7374 51.0956 93.8406C51.3087 93.944 51.5424 93.9978 51.7792 93.9984H71.8581" stroke="black" stroke-miterlimit="10"/>
<path d="M50.9605 27.234C50.9605 27.234 52.0179 22.75 57.9886 22.1553C63.9593 21.5606 65.4553 26.022 65.4553 26.022L65.2673 26.4713C65.2673 26.4713 57.4179 23.322 53.0832 27.8167C53.0832 27.8167 51.5219 28.5247 50.9605 27.2367" fill="#3D2FE8"/>
<path d="M52.5712 78.493L43.2844 76.1729C43.063 76.1181 42.8324 76.11 42.6076 76.1489C42.3828 76.188 42.1686 76.2733 41.9784 76.3996C41.7884 76.5259 41.6267 76.6904 41.5035 76.8825C41.3804 77.0747 41.2987 77.2903 41.2634 77.5158C41.2282 77.7412 41.2402 77.9716 41.2987 78.1922C41.3572 78.4127 41.461 78.6187 41.6034 78.797C41.7458 78.9752 41.9238 79.122 42.1259 79.2279C42.3282 79.3336 42.5502 79.3963 42.7778 79.4116L47.1685 79.701" stroke="black" stroke-miterlimit="10"/>
<path d="M74.8114 52.5851C74.8114 52.5851 54.5272 69.0173 36.8284 49.3916" stroke="black" stroke-miterlimit="10"/>
<path d="M36.1924 72.3569C35.8124 68.4742 33.8883 59.4528 24.2736 59.7048" stroke="black" stroke-miterlimit="10"/>
<path d="M82.7622 59.7023C82.7622 59.7023 80.9502 60.2009 80.2555 61.4196" stroke="black" stroke-miterlimit="10"/>
<path d="M9.14941 118.951H95.2716" stroke="black" stroke-miterlimit="10"/>
<path d="M66.2633 32.8336C67.0753 33.5163 67.5967 34.631 67.5967 35.8923C67.5967 37.9857 66.142 39.679 64.3447 39.679C64.1413 39.678 63.9388 39.6542 63.7406 39.6084C65.834 38.0083 66.258 32.8336 66.258 32.8336" fill="#3D2FE8"/>
<path d="M54.4219 41.2836C55.431 41.7858 56.5352 42.0679 57.6615 42.1114C58.7878 42.1549 59.9105 41.9586 60.9553 41.5356C66.846 39.0756 66.6207 31.8249 66.0087 27.8835C65.9599 27.5638 65.8904 27.2475 65.8007 26.9368V26.9302C65.1247 24.6768 63.3606 22.8408 61.0366 22.3195C56.5352 21.3021 52.4192 23.8541 50.7112 27.2902" stroke="black" stroke-miterlimit="10"/>
<path d="M65.8567 27.0072C65.8567 27.0072 65.838 26.9805 65.7993 26.9365V26.9298C65.3993 26.4792 63.0833 24.3285 56.3792 25.8738C55.61 26.0497 54.8863 26.3854 54.2552 26.8592C54.2403 26.8677 54.2268 26.8785 54.2152 26.8912" stroke="black" stroke-miterlimit="10"/>
<path d="M47.9872 37.93H44.6711C42.2778 37.93 40.3804 35.738 39.5551 33.6806C38.3951 30.7873 39.1377 27.8259 40.1817 25.0139C41.0564 22.6605 42.1684 20.3738 43.6311 18.3271C46.9058 13.7471 51.8499 11.1524 57.5326 11.6324C58.0366 11.6751 58.5383 11.7372 59.0379 11.8191C66.6687 13.0564 71.8141 19.4365 71.7754 27.1632C71.7594 28.9582 71.5258 30.7446 71.0794 32.4833C70.8742 33.3064 70.4367 34.053 69.819 34.6344C69.2012 35.2157 68.4294 35.6071 67.5954 35.762" stroke="black" stroke-miterlimit="10"/>
<path d="M50.1778 32.2164C50.0865 32.0924 49.9853 31.976 49.8752 31.8684C49.4445 31.4631 49.084 30.9891 48.8085 30.4657C48.4792 29.8217 48.2538 29.1457 48.3632 28.379C48.4858 27.555 48.9685 26.563 49.9632 26.7497C50.4338 26.8404 50.6845 27.291 50.9552 27.639C51.9845 28.9724 53.4019 27.6324 54.2712 26.827" stroke="black" stroke-miterlimit="10"/>
<path d="M66.2633 32.8336C67.0753 33.5163 67.5967 34.631 67.5967 35.8923C67.5967 37.9857 66.142 39.679 64.3447 39.679C64.1413 39.678 63.9388 39.6542 63.7406 39.6084" stroke="black" stroke-miterlimit="10"/>
<path d="M59.3046 35.4035C60.0326 35.8928 61.7913 36.2941 61.438 34.8435C61.014 33.1248 60.4433 29.4527 63.938 29.1727C63.938 29.1727 65.4767 29.2381 66.2367 29.7607" stroke="black" stroke-miterlimit="10"/>
<path d="M60.6206 38.2765C60.6206 38.2765 58.8606 39.2099 57.9886 37.3499" stroke="black" stroke-miterlimit="10"/>
<path d="M57.0513 31.6833C56.9833 32.274 57.2139 32.7846 57.5673 32.826C57.9206 32.8673 58.2619 32.426 58.3313 31.8313C58.4006 31.2366 58.1673 30.7313 57.8153 30.6899C57.4633 30.6486 57.1193 31.0899 57.0513 31.6833Z" fill="black"/>
<path d="M62.782 32.0311C62.714 32.6205 62.9446 33.1325 63.298 33.1738C63.6513 33.2152 63.9927 32.7738 64.0607 32.1791C64.1287 31.5845 63.898 31.0778 63.546 31.0378C63.194 30.9978 62.85 31.4378 62.782 32.0311Z" fill="black"/>
<path d="M59.3046 29.55C59.3046 29.55 58.2273 27.8886 55.7859 29.4646" stroke="black" stroke-miterlimit="10"/>
<path d="M61.198 41.4259V50.642" stroke="black" stroke-miterlimit="10"/>
<path d="M24.7629 96.5745C24.7629 96.5745 28.5616 92.9745 33.495 88.9744C37.7897 85.4904 42.9404 81.6917 47.1711 79.7024C47.7125 79.4503 48.2378 79.225 48.7485 79.0357C49.967 78.5713 51.2748 78.3889 52.5739 78.5023C52.8459 78.5247 53.1164 78.5611 53.3845 78.6117" stroke="black" stroke-miterlimit="10"/>
<path d="M50.5125 90.9145C46.3405 92.1639 43.7124 95.1132 41.7298 99.2533C40.4111 102.003 39.2697 105.164 37.1964 107.444C35.1817 109.645 32.8243 111.577 30.095 112.82C25.1429 115.073 19.0455 114.9 15.8282 110C13.6521 106.677 12.7961 102.549 12.3615 98.6666C11.6148 91.9185 13.9721 72.897 24.2736 59.7035C27.5829 55.4595 31.711 51.8221 36.823 49.3874C40.4111 47.6834 44.4671 46.5687 49.0645 46.2527L50.3525 39.6086" stroke="black" stroke-miterlimit="10"/>
<path d="M81.1555 115.62V118.951" stroke="black" stroke-miterlimit="10"/>
<path d="M23.3136 114.431V118.951" stroke="black" stroke-miterlimit="10"/>
<path d="M54.2085 35.8928C54.2212 36.8924 53.8663 37.8617 53.2112 38.6168C52.8439 38.7867 52.4439 38.8744 52.0392 38.8742C50.2432 38.8742 48.7872 37.1808 48.7872 35.0874C48.7742 34.088 49.1298 33.1188 49.7858 32.3648C50.1529 32.1939 50.5529 32.1057 50.9578 32.1061C52.7539 32.1061 54.2085 33.8008 54.2085 35.8928Z" fill="#3D2FE8"/>
<path d="M50.9605 39.6795C52.7544 39.6795 54.2085 37.9841 54.2085 35.8928C54.2085 33.8014 52.7544 32.1061 50.9605 32.1061C49.1666 32.1061 47.7125 33.8014 47.7125 35.8928C47.7125 37.9841 49.1666 39.6795 50.9605 39.6795Z" stroke="black" stroke-miterlimit="10"/>
<path d="M89.5769 2.80046C87.5758 2.20394 85.4429 2.21419 83.4477 2.82993C81.4524 3.44566 79.6847 4.63921 78.3677 6.25966C77.0509 7.88013 76.2441 9.85468 76.0494 11.9336C75.8548 14.0126 76.2809 16.1026 77.2741 17.9394C78.2672 19.7761 79.7827 21.2772 81.629 22.2525C83.4751 23.228 85.5691 23.634 87.6462 23.4195C89.7232 23.2048 91.6899 22.3791 93.2976 21.0467C94.9054 19.7143 96.0818 17.935 96.6783 15.9339C97.4782 13.2506 97.1794 10.3595 95.8476 7.89639C94.5159 5.43345 92.2603 3.60036 89.5769 2.80046ZM84.2729 20.5927C84.0787 20.5347 83.8978 20.4391 83.7406 20.3112C83.5834 20.1833 83.4529 20.0257 83.3566 19.8475C83.2602 19.6692 83.1999 19.4737 83.1792 19.2721C83.1584 19.0705 83.1775 18.8668 83.2355 18.6726C83.2935 18.4785 83.3891 18.2976 83.517 18.1404C83.6448 17.9832 83.8025 17.8526 83.9807 17.7564C84.3407 17.5618 84.7634 17.5182 85.1555 17.6353C85.5477 17.7524 85.8773 18.0204 86.0718 18.3805C86.2663 18.7405 86.3099 19.1632 86.1929 19.5553C86.0758 19.9475 85.8078 20.2771 85.4477 20.4716C85.0877 20.6661 84.665 20.7097 84.2729 20.5927ZM89.6062 9.80055C89.584 9.85388 89.5626 9.90588 89.5422 9.95655C88.677 12.0848 87.601 14.1213 86.3302 16.0353C86.0222 16.502 85.0569 16.2139 85.0542 15.6539C85.0722 13.9137 85.2058 12.1764 85.4542 10.4539C85.6089 9.19521 85.4889 7.04052 86.5062 6.0725C87.4089 5.20582 89.1116 5.57782 89.9142 6.40983C90.8009 7.33386 90.0329 8.78587 89.6022 9.80055H89.6062Z" fill="#D7E8F0"/>
<path d="M96.881 63.3369C96.1485 64.0817 95.6532 65.027 95.458 66.0533C95.2628 67.0796 95.3763 68.1408 95.7842 69.1025C96.1922 70.0643 96.8761 70.8835 97.7497 71.4564C98.6231 72.0293 99.647 72.3304 100.692 72.3215C101.736 72.3125 102.755 71.994 103.618 71.4061C104.482 70.8183 105.152 69.9875 105.543 69.0188C105.935 68.0502 106.03 66.9873 105.817 65.9645C105.604 64.9418 105.093 64.005 104.348 63.2729C103.349 62.2916 102.001 61.7471 100.601 61.7591C99.2009 61.7711 97.8629 62.3386 96.881 63.3369ZM103.505 69.8476C103.361 69.9937 103.166 70.0768 102.961 70.0785C102.756 70.0803 102.559 70.0005 102.413 69.8569C102.267 69.7135 102.184 69.5177 102.182 69.3129C102.181 69.1081 102.26 68.911 102.404 68.7649C102.475 68.6926 102.559 68.635 102.653 68.5954C102.746 68.5558 102.846 68.535 102.948 68.5341C103.049 68.5333 103.15 68.5524 103.244 68.5904C103.338 68.6284 103.423 68.6845 103.496 68.7556C103.568 68.8268 103.626 68.9113 103.665 69.0048C103.705 69.0981 103.726 69.1983 103.727 69.2997C103.727 69.4011 103.708 69.5017 103.67 69.5957C103.632 69.6897 103.576 69.7753 103.505 69.8476ZM99.953 64.9875C100.656 65.9075 101.42 66.8542 101.972 67.8729C102.105 68.1182 101.752 68.4782 101.504 68.3476C100.738 67.9326 100 67.4668 99.297 66.9529C98.777 66.5902 97.7957 66.1382 97.6063 65.4622C97.4343 64.8595 97.997 64.1942 98.553 64.0342C99.2357 63.8395 99.5984 64.5369 99.953 64.9875Z" fill="#3D2FE8"/>
<path d="M117.588 21.0365C118.114 20.3893 118.436 19.6005 118.514 18.7701C118.592 17.9396 118.422 17.1047 118.025 16.371C117.629 15.6372 117.023 15.0376 116.286 14.6477C115.549 14.258 114.712 14.0956 113.883 14.1812C113.053 14.2668 112.267 14.5965 111.625 15.1285C110.983 15.6607 110.512 16.3712 110.274 17.1706C110.035 17.9698 110.039 18.8218 110.285 19.6189C110.531 20.4159 111.007 21.1222 111.654 21.6485C112.084 21.9979 112.579 22.2593 113.109 22.4177C113.64 22.5761 114.197 22.6284 114.748 22.5714C115.299 22.5146 115.833 22.3498 116.321 22.0865C116.808 21.823 117.239 21.4662 117.588 21.0365ZM111.832 16.3578C111.883 16.2948 111.946 16.2427 112.017 16.2042C112.088 16.1656 112.166 16.1415 112.247 16.1331C112.327 16.1247 112.409 16.1323 112.486 16.1555C112.564 16.1786 112.636 16.2167 112.699 16.2678C112.762 16.3188 112.814 16.3818 112.853 16.453C112.891 16.5242 112.915 16.6022 112.924 16.6828C112.932 16.7634 112.925 16.8447 112.901 16.9223C112.878 16.9999 112.84 17.0722 112.789 17.1351C112.686 17.262 112.537 17.3428 112.374 17.3598C112.212 17.3766 112.049 17.3282 111.922 17.2251C111.795 17.122 111.714 16.9727 111.697 16.81C111.68 16.6474 111.729 16.4847 111.832 16.3578ZM115.023 19.9578C114.395 19.2791 113.719 18.5884 113.2 17.8151C113.074 17.6298 113.333 17.3178 113.536 17.4031C114.178 17.6768 114.801 17.9931 115.401 18.3498C115.841 18.5991 116.656 18.8831 116.857 19.4085C117.039 19.8738 116.641 20.4458 116.211 20.6085C115.679 20.8138 115.337 20.2871 115.023 19.9498V19.9578Z" fill="#3D2FE8"/>
<path d="M75.6674 48.8421C77.1554 51.3754 77.0874 53.1794 76.7008 56.1035C76.5461 57.2168 77.7448 57.9702 78.7168 57.4102C87.3049 52.4768 95.321 56.3781 105.561 53.9595C109.321 53.0768 114.009 51.2474 117.223 48.3061C118.289 46.7228 118.859 44.8575 118.859 42.9487C118.859 34.9486 107.925 28.4539 94.441 28.4539C85.7995 28.4539 78.2075 31.1206 73.8674 35.1379C73.8674 35.1379 73.8674 35.1379 73.8554 35.1499C72.7541 36.7993 72.1487 38.602 72.1487 40.4833C72.1421 43.354 74.2768 46.466 75.6674 48.8421Z" fill="#D7E8F0"/>
<path d="M72.1807 40.4832C72.1807 40.5499 72.1807 40.6165 72.1807 40.6859C72.2287 43.4859 73.6341 46.0952 75.2981 48.3526C76.4128 49.862 77.7355 51.5393 77.4221 53.39C77.2888 54.206 76.8288 54.946 76.7141 55.7647C76.5994 56.5834 77.0355 57.6047 77.8621 57.6474C78.3875 57.674 78.8341 57.3007 79.2501 56.9807C81.7102 55.074 84.9075 54.3607 88.0169 54.2353C91.1263 54.11 94.2316 54.5207 97.3423 54.6087C101.828 54.742 106.384 54.1767 110.526 52.4566C114.239 50.918 117.64 48.3926 119.873 45.0192C122.068 41.7072 120.771 36.8978 118.429 34.0178C116.235 31.3151 113.054 29.5857 109.793 28.3671C101.021 25.0924 91.0089 25.167 82.3582 28.7551C79.7901 29.8218 77.3061 31.2084 75.3808 33.2151C73.5047 35.1698 72.2007 37.7752 72.1807 40.4832Z" stroke="black" stroke-miterlimit="10"/>
<path d="M108.173 43.6698C110.033 43.6698 111.541 42.1619 111.541 40.3018C111.541 38.4416 110.033 36.9337 108.173 36.9337C106.313 36.9337 104.805 38.4416 104.805 40.3018C104.805 42.1619 106.313 43.6698 108.173 43.6698Z" fill="white"/>
<path d="M97.2797 43.6698C99.1398 43.6698 100.648 42.1619 100.648 40.3018C100.648 38.4416 99.1398 36.9337 97.2797 36.9337C95.4195 36.9337 93.9116 38.4416 93.9116 40.3018C93.9116 42.1619 95.4195 43.6698 97.2797 43.6698Z" fill="white"/>
<path d="M86.1742 43.6698C88.0344 43.6698 89.5422 42.1619 89.5422 40.3018C89.5422 38.4416 88.0344 36.9337 86.1742 36.9337C84.3141 36.9337 82.8062 38.4416 82.8062 40.3018C82.8062 42.1619 84.3141 43.6698 86.1742 43.6698Z" fill="white"/>
</svg>
