<svg width="24" height="24" viewBox="0 0 24 24" fill="none" xmlns="http://www.w3.org/2000/svg">
<path d="M10.1468 2.78115C11.0449 0.0172191 14.9551 0.0172195 15.8532 2.78115L16.8167 5.74671C17.2184 6.98278 18.3702 7.81966 19.6699 7.81966H22.7881C25.6943 7.81966 26.9026 11.5385 24.5514 13.2467L22.0288 15.0795C20.9773 15.8435 20.5373 17.1976 20.939 18.4336L21.9025 21.3992C22.8006 24.1631 19.6372 26.4615 17.286 24.7533L14.7634 22.9205C13.7119 22.1565 12.2881 22.1565 11.2366 22.9205L8.71399 24.7533C6.36285 26.4615 3.19941 24.1631 4.09746 21.3992L5.06103 18.4336C5.46266 17.1976 5.02268 15.8435 3.97122 15.0795L1.44856 13.2467C-0.902577 11.5385 0.305749 7.81966 3.21192 7.81966H6.33009C7.62977 7.81966 8.78164 6.98278 9.18326 5.74671L10.1468 2.78115Z" fill="#FFF500"/>
</svg>
