<svg width="7" height="7" viewBox="0 0 7 7" fill="none" xmlns="http://www.w3.org/2000/svg">
<g clip-path="url(#clip0_656_3608)">
<path d="M4.95835 6.125V5.54167C4.95835 5.23225 4.83544 4.9355 4.61664 4.71671C4.39785 4.49792 4.10111 4.375 3.79169 4.375H1.45835C1.14893 4.375 0.852188 4.49792 0.633396 4.71671C0.414603 4.9355 0.291687 5.23225 0.291687 5.54167V6.125" stroke="black" stroke-linecap="round" stroke-linejoin="round"/>
<path d="M2.62498 3.20833C3.26931 3.20833 3.79165 2.686 3.79165 2.04167C3.79165 1.39733 3.26931 0.875 2.62498 0.875C1.98065 0.875 1.45831 1.39733 1.45831 2.04167C1.45831 2.686 1.98065 3.20833 2.62498 3.20833Z" stroke="black" stroke-linecap="round" stroke-linejoin="round"/>
<path d="M6.70831 6.12493V5.54159C6.70812 5.2831 6.62208 5.03198 6.46371 4.82768C6.30534 4.62338 6.0836 4.47747 5.83331 4.41284" stroke="black" stroke-linecap="round" stroke-linejoin="round"/>
<path d="M4.66669 0.912842C4.91764 0.977096 5.14007 1.12305 5.29892 1.32768C5.45776 1.53232 5.54397 1.784 5.54397 2.04305C5.54397 2.3021 5.45776 2.55378 5.29892 2.75842C5.14007 2.96305 4.91764 3.109 4.66669 3.17326" stroke="black" stroke-linecap="round" stroke-linejoin="round"/>
</g>
<defs>
<clipPath id="clip0_656_3608">
<rect width="7" height="7" fill="white"/>
</clipPath>
</defs>
</svg>
